<svg width="120" height="138" viewBox="0 0 120 138" fill="none" xmlns="http://www.w3.org/2000/svg">
<mask id="mask0_350_6040" style="mask-type:luminance" maskUnits="userSpaceOnUse" x="0" y="0" width="120" height="138">
<path d="M119.812 138H0.000282288V-6.10352e-05H119.812V138Z" fill="white"/>
</mask>
<g mask="url(#mask0_350_6040)">
<path d="M75.3365 34.4012C76.155 34.4303 76.9698 34.6 77.7228 34.9238C77.9859 35.0371 78.2472 35.162 78.4539 35.3645C78.657 35.5634 78.7722 35.8198 78.8874 36.0757C79.0256 36.383 79.1869 36.6753 79.3724 36.9505C79.7907 36.383 80.0205 35.6907 79.949 34.9808C79.8671 34.1756 79.4724 33.4457 79.3009 32.6612C79.0917 31.7027 79.162 30.7291 79.3166 29.7675C77.9901 31.3117 76.663 32.8564 75.3365 34.4012ZM78.2041 29.6681C77.3469 29.5578 76.5363 29.7075 75.7415 30.0397C74.9582 30.3677 74.2307 30.817 73.5129 31.2674C72.6423 31.8137 71.7881 32.3908 71.0024 33.0547C70.2512 33.6888 69.588 34.4091 69.0514 35.2281C69.7899 35.0177 70.5422 34.8935 71.3225 34.8243C72.4562 34.7231 73.5766 34.4648 74.7115 34.4012C74.7194 34.3696 74.7351 34.3369 74.7624 34.3042C76.0853 32.7649 77.4075 31.225 78.7298 29.6857C78.5594 29.7014 78.3836 29.6917 78.2041 29.6681ZM65.3163 37.7023C64.844 38.026 64.3644 38.3516 63.8976 38.6929C63.8976 38.7832 63.8976 38.8742 63.8982 38.9645C63.8994 39.2416 63.5345 39.2506 63.4284 39.0463C63.2022 39.2228 62.9809 39.4046 62.7688 39.5956C61.9236 40.3559 61.4107 41.3228 60.9354 42.3389C60.4049 43.4733 59.846 44.5918 59.2373 45.6861C58.9802 46.1475 58.722 46.6228 58.4401 47.0823C59.016 46.7216 59.6677 46.4918 60.3437 46.6786C60.502 46.7222 60.5565 46.9271 60.471 47.0556C60.2522 47.3842 59.9418 47.6049 59.6211 47.825C59.5719 47.8589 59.524 47.8929 59.4755 47.9268C60.1685 47.6213 60.873 47.3376 61.5902 47.106C62.4317 46.8344 63.4393 46.7762 64.0577 47.5255C64.088 47.5619 64.1031 47.6092 64.1098 47.6577C65.272 47.3539 66.4439 47.0787 67.6382 46.9386C68.9405 46.7853 70.1936 46.8459 71.4831 47.0659C72.1973 47.1878 72.7981 47.1357 73.4238 46.7458C74.0106 46.3797 74.5284 45.9189 75.134 45.5776C76.3932 44.8683 77.8834 44.6997 78.9911 43.7194C79.6446 43.1404 80.1793 42.425 80.6874 41.7187C81.0354 41.2343 81.364 40.6354 81.2451 40.0503C81.0839 40.0218 80.9899 39.8005 81.093 39.6514C81.0912 39.6484 81.0899 39.6447 81.0881 39.6411C80.9954 39.4932 81.0881 39.3658 81.2179 39.3204C81.1166 39.1737 80.8881 39.0251 80.8183 38.9815C80.5934 38.8432 80.374 38.7008 80.1666 38.5365C79.761 38.2151 79.3955 37.8417 79.0887 37.4246C78.7837 37.0105 78.5703 36.5643 78.3497 36.1029C78.1011 35.5822 77.6039 35.3924 77.0844 35.2166C76.1229 34.8916 75.1207 34.8292 74.118 34.9595C73.576 35.0299 73.0394 35.136 72.4974 35.2075C71.9663 35.2772 71.4322 35.3106 70.8999 35.3663C68.815 35.5852 67.0217 36.5328 65.3163 37.7023ZM64.0037 35.3075C64.339 34.6885 64.867 34.2072 65.198 33.5821C65.5254 32.9649 65.7697 32.3096 66.2196 31.7658C66.4203 31.5226 66.6901 31.2747 66.6925 30.9364C66.6949 30.5848 66.4457 30.2501 66.2141 30.0094C65.6891 29.4632 64.941 29.1861 64.2377 28.9509C62.9361 28.5162 61.5484 28.1834 60.1709 28.401C59.7866 28.4616 59.4083 28.5623 59.05 28.7157C58.8766 28.7902 58.6383 28.843 58.6256 29.0661C58.6165 29.2261 58.6814 29.4147 58.6965 29.5753C58.7577 30.2259 58.7092 30.8721 58.5728 31.5081C58.6183 31.5875 58.6638 31.6669 58.7086 31.7458C58.8681 32.0258 58.414 32.2405 58.2551 31.961C58.2412 31.9361 58.2273 31.9113 58.2133 31.887C58.1066 31.8434 58.0236 31.7373 58.0484 31.5984C57.6161 30.8497 57.1372 30.0979 56.4261 29.5947C55.7246 29.0988 54.8868 28.906 54.0744 29.2346C53.7385 29.371 53.4129 29.539 53.0607 29.6305C53.0589 29.6341 53.0577 29.6378 53.0559 29.6408C52.9728 29.7997 52.8097 29.7803 52.7048 29.6857C52.3841 29.6996 52.0695 29.6341 51.7433 29.6141C50.8272 29.5584 50.1464 30.3283 49.4971 30.8624C48.0506 32.0525 46.2694 33.3093 46.6604 35.433C46.9442 36.9723 47.2994 38.5025 47.6468 40.0315C47.7068 40.0976 47.728 40.1897 47.7014 40.2746C47.799 40.7075 47.8972 41.1404 47.9912 41.5732C48.2367 42.7021 48.5235 43.7691 49.0321 44.8113C49.5426 45.8559 50.1203 46.8689 50.7399 47.8523C50.749 47.8662 50.7496 47.879 50.7551 47.8923C51.2874 48.6913 51.7967 49.5049 52.2877 50.3301C52.3108 50.2888 52.332 50.247 52.3502 50.204C52.6921 49.4019 52.4084 48.4713 52.7667 47.6649C53.0722 46.9768 53.9507 46.4682 54.6382 46.969C54.7479 47.049 54.7855 47.2011 54.7073 47.3176C54.3624 47.8274 54.4115 48.5331 54.8092 48.9902C55.1311 48.524 55.4942 48.0875 55.9016 47.6928C56.1393 47.4624 56.3903 47.2466 56.654 47.0472C56.885 46.8726 57.1505 46.6428 57.4294 46.5494C57.7519 46.4415 57.9702 46.6088 58.0023 46.8495C58.317 46.3409 58.5977 45.808 58.879 45.2999C59.4822 44.2105 60.0266 43.0943 60.5583 41.9685C61.0524 40.9221 61.6096 39.9521 62.485 39.1761C62.7754 38.9178 63.084 38.6759 63.3974 38.4401C63.4041 37.3652 63.4841 36.2679 64.0037 35.3075ZM48.3949 44.6124C48.0463 43.8121 47.7887 42.9937 47.5995 42.1316C47.5025 41.6915 47.4079 41.2513 47.3121 40.8112C47.063 41.1064 46.7871 41.3786 46.4852 41.6187C46.4937 41.6472 46.4998 41.6769 46.4961 41.7066C46.4919 41.7278 46.4876 41.7484 46.4834 41.7697C46.4682 41.8121 46.444 41.8485 46.4094 41.8782C46.3688 41.9067 46.3264 41.9358 46.2815 41.9576C46.2627 41.9673 46.2415 41.9721 46.2215 41.9794C46.9745 42.8336 47.6971 43.7133 48.3949 44.6124ZM53.2486 27.1364C53.2868 26.4422 53.008 25.7025 53.4075 25.0799C53.8125 24.4494 54.1835 23.8765 54.3799 23.1411C54.5612 22.4633 54.6042 21.7443 54.503 21.0501C54.3987 20.3371 54.0404 19.6715 54.2241 18.9409C54.3939 18.268 54.871 17.7308 55.1541 17.1088C55.8434 15.5938 55.6015 13.9666 55.5015 12.3666C55.4421 11.4239 55.5912 10.5375 55.7289 9.60876C55.7707 9.32623 55.801 9.03281 55.8113 8.73877C55.6379 9.33897 55.3566 9.91068 55.0432 10.4563C54.4448 11.496 53.7906 12.4776 53.3426 13.5974C52.8655 14.7893 52.5381 16.0327 52.1622 17.2579C51.77 18.5359 51.2965 19.7848 50.769 21.0125C49.7148 23.4673 48.4707 25.8335 47.3734 28.2682C46.2888 30.6733 45.4455 33.1626 44.6149 35.664C43.7661 38.2224 42.8871 40.779 41.6721 43.1883C41.9498 43.0549 42.2584 42.9652 42.5542 42.9082C42.5985 42.6318 42.6785 42.3626 42.8422 42.1086C43.0313 41.8139 43.2963 41.5708 43.5655 41.3507C43.828 41.1361 44.1202 40.8675 44.4645 40.8051C45.0441 40.699 45.4891 41.1561 45.8474 41.5538C45.8741 41.5453 45.9008 41.5381 45.9287 41.5387C45.9262 41.5387 45.9238 41.5387 45.9214 41.5393C45.9329 41.5381 45.9444 41.5338 45.9559 41.5326C45.9529 41.4574 45.9766 41.3823 46.0384 41.3362C46.4761 41.0076 46.855 40.6172 47.1733 40.1734C47.0703 39.6975 46.9666 39.2215 46.8629 38.7456C46.6222 37.6404 46.333 36.534 46.1481 35.4179C45.9947 34.4939 46.2003 33.6246 46.7107 32.8419C47.2843 31.9628 48.1294 31.3226 48.9363 30.6721C49.6311 30.1119 50.3198 29.3377 51.2298 29.1479C51.69 29.0521 52.1228 29.2007 52.5806 29.197C52.6291 29.197 52.6751 29.1837 52.7224 29.1782C53.0268 28.5386 53.2105 27.8451 53.2486 27.1364ZM55.3287 6.1458C55.2554 5.59592 55.0626 5.07756 54.8443 4.56891C54.634 6.25735 54.3605 7.93668 54.0265 9.60451C54.3381 9.2456 54.6212 8.86185 54.8516 8.43322C55.2263 7.73602 55.4342 6.93879 55.3287 6.1458ZM53.7961 10.7322C53.7591 10.9019 53.6063 10.9292 53.4827 10.8728C53.4572 10.8959 53.4323 10.9201 53.4069 10.9431C52.7624 11.5179 52.0761 12.0435 51.4335 12.6201C50.7903 13.1966 50.2501 13.835 49.7384 14.5286C49.2534 15.1864 48.752 15.7981 48.1276 16.3292C47.5425 16.8263 46.9314 17.3095 46.758 18.0958C46.6356 18.6523 46.5822 19.358 45.9481 19.5684C45.7995 19.6175 45.6474 19.6145 45.4976 19.6502C45.2951 19.6981 45.163 19.8279 45.0435 19.9885C44.798 20.3177 44.6179 20.71 44.4173 21.0671C43.6522 22.4251 42.6136 23.8298 42.61 25.4485C42.6082 26.1845 42.7034 26.9084 42.5815 27.6408C42.4621 28.361 42.2177 29.0497 42.0159 29.7487C41.8091 30.4641 41.6939 31.174 41.7236 31.9198C41.7509 32.6188 41.8698 33.3105 41.9443 34.0047C42.0262 34.7686 42.0571 35.5367 41.9007 36.2933C41.7236 37.1518 41.355 37.9526 41.1319 38.7984C40.7463 40.2564 40.7445 41.7903 41.078 43.2568C43.4442 38.7147 44.5015 33.6361 46.5258 28.9491C47.5704 26.5313 48.7945 24.1978 49.8766 21.7976C50.4204 20.5918 50.9285 19.3689 51.3571 18.117C51.7742 16.8978 52.0931 15.6477 52.5048 14.4267C52.937 13.1451 53.5281 11.9859 54.232 10.8358C54.6637 10.1301 55.0941 9.39899 55.3221 8.61024C54.9486 9.33109 54.4175 9.97311 53.8349 10.5418C53.8216 10.6048 53.81 10.6691 53.7961 10.7322ZM41.3423 44.3287C41.3732 44.3966 41.3738 44.4736 41.3314 44.5439C41.332 44.5882 41.3296 44.63 41.332 44.6767C41.375 45.4206 41.1707 46.065 40.941 46.7653C40.696 47.5097 40.382 48.2639 40.2213 49.0321C40.0752 49.7329 40.3371 50.4313 40.2456 51.1388C40.1777 51.6632 40.0031 52.1664 39.8291 52.6684C39.8321 52.672 39.8351 52.6757 39.8376 52.6793C39.9709 52.8479 39.8454 53.0473 39.6878 53.0873C39.6126 53.3165 39.5466 53.5475 39.495 53.7809C39.5514 53.8694 39.6078 53.9573 39.6642 54.0464C39.7885 54.2417 39.5878 54.4035 39.4017 54.3805C39.3901 54.5502 39.3895 54.7218 39.4071 54.8964C39.5326 56.1514 40.2062 57.3202 40.0892 58.6049C40.0182 59.3852 39.5666 60.1193 39.6302 60.9123C39.6636 61.3276 39.8267 61.7102 40.0401 62.0679C39.9922 61.3149 40.282 60.4704 40.4141 59.7853C40.4778 59.4537 40.5032 59.1154 40.4353 58.7825C40.3632 58.4249 40.2037 58.0908 40.134 57.7325C40.0091 57.0905 40.2371 56.5182 40.5281 55.9574C40.8221 55.3893 41.0677 54.8722 41.1156 54.2247C41.1604 53.6239 41.1059 53.0188 41.1774 52.4192C41.2544 51.7784 41.5108 51.3104 41.8728 50.7878C42.0565 50.5222 42.1935 50.2494 42.1116 49.9214C42.0431 49.6474 41.8691 49.4049 41.7109 49.1763C41.3963 48.7223 41.0683 48.2676 41.0422 47.6946C41.0131 47.0575 41.3096 46.4633 41.64 45.9377C42.0413 45.2981 42.4427 44.7209 42.4827 43.9431C42.4912 43.7697 42.496 43.5975 42.5039 43.4272C42.2281 43.4842 41.9534 43.5642 41.717 43.7158C41.4642 43.8788 41.3708 44.0856 41.3423 44.3287ZM39.9176 48.2221C40.0734 47.7134 40.2662 47.2102 40.4293 46.7155C40.5808 46.253 40.7712 45.7819 40.8306 45.2963C40.8446 45.1829 40.844 45.0689 40.8403 44.955C39.4968 45.9638 37.9078 46.6046 36.2485 46.821C37.5035 47.1975 38.7293 47.6656 39.9176 48.2221ZM37.6411 49.8996C38.2534 50.6635 38.8566 51.4347 39.4617 52.2034C39.5648 51.9009 39.6605 51.5959 39.7175 51.2813C39.7872 50.8951 39.7472 50.5144 39.7096 50.1348C39.6939 50.1294 39.6781 50.1282 39.6624 50.1191C38.5965 49.5201 37.4986 48.9829 36.3758 48.5028C36.8354 48.9296 37.2476 49.4091 37.6411 49.8996ZM35.926 45.9068C34.0078 46.0105 32.192 45.2169 30.4478 44.5178C29.4905 44.1341 28.5429 43.7133 27.662 43.1738C26.7599 42.6208 25.9299 41.9618 25.1254 41.2774C23.4594 39.8605 21.8286 38.4019 20.1826 36.962C18.5075 35.4973 16.8324 34.032 15.1573 32.5666L12.6686 30.3895C12.246 30.0197 11.8241 29.6487 11.4003 29.2807C11.1008 29.02 10.6977 28.6332 10.2636 28.749C9.63185 28.9175 10.0999 29.4541 10.3727 29.7087C10.7674 30.0779 11.1633 30.4453 11.5592 30.8133C12.3649 31.5633 13.1712 32.3138 13.9769 33.0638C15.6047 34.5788 17.2319 36.0938 18.8591 37.6083C20.4621 39.0997 22.085 40.5723 23.6637 42.0892C24.4379 42.8336 25.1709 43.6139 25.8154 44.4748C26.478 45.3599 27.0279 46.3196 27.6748 47.2151C27.8191 47.4146 27.9712 47.6092 28.1319 47.7959C27.7342 46.5415 27.1249 45.3636 26.3192 44.3166C26.1555 44.1032 26.4119 43.7643 26.649 43.9437C27.522 44.6058 28.4441 45.1993 29.4129 45.711C30.409 46.2366 31.4566 46.6331 32.4939 47.0672C33.4797 47.4794 34.4303 47.9559 35.2748 48.6174C36.1369 49.2927 36.8875 50.0991 37.5592 50.9612C38.12 51.6808 38.6299 52.4374 39.1252 53.2037C39.1701 53.057 39.2161 52.9109 39.2671 52.7654C38.6232 51.9494 37.9818 51.1309 37.3337 50.3179C36.6535 49.4649 35.9369 48.635 34.9838 48.079C34.8699 48.0123 34.8523 47.9044 34.8862 47.8104C34.828 47.6346 34.9729 47.4 35.1954 47.4843C36.7371 48.0675 38.2334 48.7647 39.6769 49.5601C39.6757 49.4176 39.6745 49.2758 39.6963 49.1327C39.7175 48.992 39.7527 48.852 39.786 48.7126C38.1188 47.9287 36.3795 47.3157 34.5874 46.8895C34.3 46.8216 34.4133 46.3918 34.6868 46.4021C36.9111 46.4833 39.1101 45.7322 40.8294 44.3238C40.833 44.2687 40.833 44.2135 40.8427 44.1583C40.8434 44.1559 40.8446 44.1535 40.8452 44.1505C39.3586 45.0762 37.6956 45.8116 35.926 45.9068ZM40.921 63.4853C40.9889 64.4171 41.0695 65.3544 41.3144 66.2583C41.4454 66.7427 41.6315 67.2096 41.8788 67.6455C42.1329 68.0917 42.3681 68.5009 42.4699 69.0102C42.5657 69.4897 42.5821 70.0341 42.8858 70.4409C43.0447 70.6537 43.2405 70.7065 43.4588 70.8289C43.6509 70.9356 43.7867 71.0975 43.8941 71.2867C44.333 72.0627 44.3481 72.9939 44.6125 73.8281C44.7901 74.3895 45.1066 74.7696 45.5364 75.1625C45.8965 75.4911 46.1833 75.867 46.3924 76.298C46.5179 76.3071 46.6441 76.3968 46.6434 76.5587C46.6428 77.0625 47.3455 77.1929 47.702 77.3347C48.1348 77.5069 48.4453 77.7858 48.7005 78.1726C48.9581 78.5642 49.1431 79.0177 49.4904 79.3433C49.6475 79.4906 49.8324 79.6003 50.05 79.6215C50.2525 79.6415 50.4441 79.6118 50.6351 79.7022C51.051 79.8998 51.2668 80.4509 51.5226 80.805C51.8543 81.2645 52.2617 81.5434 52.7733 81.7744C53.2189 81.9756 53.6603 82.1654 54.0677 82.4394C54.4927 82.725 54.8819 83.0602 55.2966 83.3591C55.6707 83.6283 56.0684 83.869 56.5121 84.0018C57.0056 84.1491 57.4318 84.04 57.9272 83.9939C58.7887 83.9151 59.4173 84.4462 60.1406 84.8142C61.4435 85.4762 62.8682 84.7214 64.2159 84.6529C64.5724 84.6347 64.9198 84.6747 65.2453 84.7754C63.9364 83.3967 62.3929 82.2618 60.9142 81.0669C59.1306 79.6246 57.4549 78.0356 55.9592 76.295C55.5749 75.8482 55.2166 75.3783 54.9522 74.8491C54.7261 74.3962 54.5521 73.9203 54.3399 73.4607C53.7682 72.7896 53.6912 71.9166 53.376 71.106C53.0643 70.3033 53.0601 69.537 53.162 68.6931C53.2183 68.2287 53.2911 67.7479 53.2729 67.2781C53.1935 67.8201 53.1025 68.3602 52.9819 68.8962C52.7006 70.1427 52.3005 71.3582 51.867 72.5592C51.3783 73.9166 50.9176 75.3165 50.2107 76.5793C50.0912 76.7933 49.8142 76.6709 49.7554 76.4854C49.6123 76.03 49.4589 75.5456 49.1491 75.1728C48.8521 74.8145 48.4216 74.672 48.0348 74.4392C47.6801 74.2252 47.4267 73.9239 47.2449 73.5541C47.0369 73.1297 46.9181 72.6647 46.6271 72.284C46.3179 71.8802 45.8893 71.5898 45.48 71.2964C45.0769 71.0066 44.6822 70.7059 44.2996 70.39C43.634 69.8395 42.767 69.2527 42.693 68.3196C42.6288 67.5048 42.8961 66.7052 43.1047 65.9285C43.2199 65.4975 43.3199 65.0622 43.3405 64.6148C43.3563 64.2771 43.3381 63.9382 43.3708 63.6023C43.0762 63.6629 42.764 63.6775 42.5936 63.6878C42.0462 63.7217 41.4241 63.7411 40.921 63.4853ZM65.9613 85.8108C65.5733 85.3604 65.0604 85.1809 64.5136 85.1555C64.9689 85.7193 65.4236 86.2831 65.8789 86.847C66.1511 87.1834 66.4251 87.5187 66.6882 87.8612C66.6137 87.1222 66.4536 86.3825 65.9613 85.8108ZM66.3554 84.0012C66.0711 83.2421 65.7764 82.4782 65.6249 81.6786C65.4709 80.8686 65.52 80.0332 65.3211 79.2311C64.7749 79.3633 64.1522 79.3287 63.6375 79.2948C62.7894 79.2384 61.9394 79.0559 61.1543 78.7291C60.3831 78.409 59.6811 77.9531 59.0875 77.3656C58.7074 76.9892 58.3728 76.5708 57.9938 76.1943C57.6174 75.8203 57.2015 75.4899 56.7662 75.1873C56.2654 74.8387 55.7167 74.5477 55.2099 74.2028C55.236 74.2634 55.2602 74.3246 55.2875 74.3847C55.5197 74.8982 55.8253 75.3535 56.1854 75.7863C56.9026 76.6472 57.6834 77.4614 58.4843 78.2447C60.1467 79.8701 62.0073 81.2366 63.7848 82.7268C64.7549 83.541 65.6794 84.4092 66.4657 85.4053C66.5397 85.4986 66.5336 85.6023 66.4876 85.6829C66.7816 86.094 66.958 86.559 67.0629 87.047C67.0726 86.0133 66.7161 84.9639 66.3554 84.0012ZM65.5594 78.6212C65.9801 78.406 66.128 77.9373 66.2596 77.5172C66.3596 77.1965 66.4348 76.6333 66.7986 76.4969C67.1641 76.3605 67.4509 76.6933 67.6855 76.917C68.0414 77.2559 68.5294 77.6451 69.0405 77.3941C69.1569 77.3371 69.2594 77.3772 69.3236 77.4535C69.7723 77.5075 70.2209 77.5615 70.6689 77.6148C71.0721 77.6633 71.5777 77.7949 71.9197 77.5045C72.2197 77.2498 72.3313 76.8121 72.4726 76.4605C72.6126 76.1113 72.7751 75.7754 73.0461 75.5081C73.3686 75.1904 73.796 75.0158 74.1798 74.7866C74.6187 74.5247 74.94 74.1537 75.1953 73.7141C75.4451 73.2837 75.6475 72.8084 75.8149 72.3397C75.9798 71.8766 75.8767 71.4855 75.6748 71.0539C75.2614 70.1711 74.8194 69.2781 74.2635 68.4754C73.7015 67.663 72.9945 66.9628 72.4762 66.1183C71.996 65.335 71.6644 64.4753 71.2685 63.649C70.8399 62.7542 70.3112 61.9509 69.5722 61.2803C68.122 59.9654 66.2699 59.253 64.5348 58.383C64.596 58.5679 64.596 58.771 64.4572 58.9268C64.2317 59.1809 63.8352 59.0796 63.5514 59.0038C62.3656 58.6868 61.3137 57.3603 60.0527 57.336C60.374 57.5737 60.696 57.8119 61.0173 58.0496C61.3059 58.2636 61.726 58.494 61.7884 58.888C61.846 59.2512 61.5247 59.4591 61.1949 59.4052C61.0148 59.3761 60.8336 59.3258 60.6517 59.2688C61.0724 59.6707 61.4914 60.0751 61.8757 60.5043C62.2486 60.9214 62.4487 61.7102 61.7066 61.8823C61.3634 61.9618 61.0488 61.8145 60.7936 61.595C60.4619 61.3094 60.1643 60.9784 59.8551 60.6686C59.5022 60.3152 59.1494 59.9611 58.7965 59.6077C58.6274 59.4373 58.4194 59.1906 58.1769 59.1002C58.2351 59.4579 58.1145 59.8283 57.8399 60.0684C58.4128 60.6116 58.9863 61.1554 59.5592 61.6993C59.9606 62.0794 60.6844 62.5705 60.4686 63.2173C60.4237 63.3519 60.2801 63.4083 60.1497 63.3731C59.752 63.2658 59.3743 63.11 59.0069 62.93C59.1918 63.1731 59.3931 63.4332 59.5125 63.7072C59.6059 63.923 59.6004 64.188 59.407 64.3498C59.1973 64.5256 58.8954 64.4741 58.665 64.3747C57.7398 63.9764 57.2415 63.1428 56.7728 62.2916C56.7953 62.4031 56.8213 62.5141 56.8426 62.6262C56.9105 62.99 57.1754 63.8145 56.614 63.9394C56.223 64.0261 55.8919 63.5623 55.764 63.2586C55.6306 62.9427 55.587 62.5826 55.4597 62.2631C55.3293 62.425 55.1596 62.5529 54.9535 62.6232C54.7916 62.6784 54.6455 62.6117 54.5988 62.4419C54.389 61.6738 54.2502 60.8887 54.1932 60.0939C54.1659 59.7119 54.1544 59.3288 54.1617 58.9456C54.169 58.5576 54.2599 58.1296 54.1981 57.7452C54.195 57.7258 54.189 57.7052 54.1841 57.6852C54.1774 60.1394 53.8367 62.5844 53.5566 65.0185C53.5184 65.3489 53.4808 65.6794 53.442 66.0098C53.4699 66.0322 53.4954 66.0607 53.5142 66.1013C54.1114 67.3854 53.456 68.7313 53.6082 70.0608C53.6542 70.4652 53.81 70.8283 53.9543 71.2054C54.1241 71.648 54.1653 72.1324 54.3448 72.5671C54.3848 72.6629 54.4339 72.752 54.4866 72.8381C54.5551 72.8496 54.62 72.8872 54.6612 72.9672C54.7006 73.0442 54.7322 73.1248 54.7692 73.2031C55.2196 73.6838 55.8592 74.0136 56.4012 74.3483C57.196 74.8406 57.9447 75.4038 58.5868 76.0864C59.2379 76.7776 59.8278 77.462 60.665 77.9367C61.375 78.3393 62.1722 78.5945 62.9779 78.7182C63.3738 78.7788 63.7739 78.8097 64.1741 78.8122C64.6215 78.8152 65.1508 78.8298 65.5594 78.6212ZM69.7523 101.232C69.6638 100.941 69.5759 100.65 69.4873 100.36C69.4734 101.349 69.6316 102.336 69.7911 103.32C69.765 102.668 69.7935 102.014 69.8475 101.363C69.8062 101.332 69.7705 101.292 69.7523 101.232ZM68.4852 83.0754C68.8192 84.7851 68.8204 86.488 68.3033 88.1474C68.3185 88.1935 68.3221 88.2444 68.2979 88.3026C67.5649 90.0917 66.0917 91.4557 65.3654 93.2424C65.5915 93.0611 65.8176 92.8811 66.0407 92.6961C66.1208 92.6301 66.2081 92.6283 66.2826 92.6586L68.4379 88.5608C68.4888 88.4645 68.5695 88.4366 68.6489 88.4475C68.7938 88.2844 69.1254 88.3505 69.0848 88.6142C68.7416 90.8392 68.3973 93.069 68.27 95.3188C68.2409 95.8311 68.2354 96.347 68.1299 96.8515C68.0305 97.3249 67.831 97.759 67.6013 98.1822C67.3515 98.6411 67.0659 99.0825 66.8701 99.5681C66.6725 100.058 66.5561 100.576 66.4287 101.087C66.1287 102.297 65.8528 103.514 65.8019 104.763C65.7982 104.853 65.7558 104.912 65.6988 104.948C65.1538 105.807 64.3268 106.457 63.5666 107.115C62.7475 107.824 61.9036 108.505 60.9767 109.069C60.0497 109.633 59.0609 110.085 58.0993 110.585C57.1693 111.069 56.2569 111.588 55.3754 112.155C52.0755 114.277 49.154 117.176 47.8711 120.959C47.3012 122.638 47.0951 124.426 47.3449 126.179C49.5559 123.19 52.2611 120.619 55.002 118.121C57.7962 115.575 60.7226 113.076 63.0961 110.116C64.3135 108.599 65.3399 106.913 65.7891 105.003C65.8195 104.875 65.9146 104.829 66.0123 104.837C66.1553 104.164 66.1644 103.469 66.3008 102.795C66.4372 102.123 66.6791 101.483 66.9556 100.859C67.5212 99.5827 68.2439 98.341 68.4494 96.94C68.4961 96.6205 68.9544 96.652 68.9496 96.977C68.909 99.7536 68.9866 102.531 69.186 105.301C69.1921 105.38 69.1654 105.446 69.1224 105.494C69.1218 105.496 69.1224 105.497 69.1218 105.499C68.5343 107.076 67.34 108.47 67.2308 110.203C67.2242 110.307 67.1648 110.37 67.0908 110.402C67.0774 110.685 67.0611 110.968 67.0393 111.25C66.9926 111.862 66.9362 112.473 66.861 113.08C66.9562 113.113 67.032 113.194 67.0223 113.324C66.972 113.998 67.3551 114.6 67.537 115.229C67.6346 115.568 67.6364 115.907 67.6734 116.255C67.7207 116.705 67.9183 117.007 68.199 117.35C68.6537 117.906 68.8829 118.515 69.129 119.181C69.2418 119.484 69.3606 119.795 69.5474 120.061C69.7777 120.389 70.093 120.552 70.4507 120.711C71.1697 121.032 71.7517 121.611 72.3107 122.154C72.9503 122.775 73.4056 123.558 74.0549 124.164C74.626 124.697 75.3608 125.024 76.1028 125.241C76.7691 125.435 77.5257 125.498 78.0896 125.941C78.4357 126.213 78.6231 126.639 78.9753 126.898C79.2409 127.094 79.5755 127.157 79.8956 127.196C80.4431 127.263 80.9996 127.277 81.5004 127.505C81.5671 127.36 81.7787 127.269 81.9248 127.423C82.2188 127.729 82.5462 127.994 82.9118 128.211C82.9166 128.215 82.9366 128.227 82.9584 128.24C81.7981 126.792 80.3758 125.591 79.0317 124.319C77.65 123.012 76.4527 121.574 75.4372 119.965C74.4023 118.325 73.5529 116.578 72.7533 114.814C72.0379 113.237 71.3073 111.656 70.7168 110.027C70.1585 108.488 69.7529 106.888 69.7286 105.25C69.634 105.241 69.5492 105.183 69.5352 105.055C69.3164 103.067 68.7125 101.06 69.1072 99.054C69.163 98.7715 69.5195 98.7466 69.6043 99.0267C69.7996 99.6694 69.9942 100.311 70.1888 100.954C70.2912 100.982 70.3755 101.064 70.3634 101.201C70.1657 103.379 70.2688 105.63 71.7069 107.4C73.1595 109.19 75.3238 110.113 77.419 110.937C77.6306 108.83 77.3881 106.526 76.4424 104.622C75.3171 102.358 72.8375 101.372 70.5071 100.863C70.3901 100.837 70.3397 100.756 70.3379 100.667C70.2991 100.644 70.2633 100.611 70.2409 100.556C69.5522 98.8582 69.5298 97.0194 69.5286 95.2146C69.5267 93.0593 69.5255 90.904 69.5237 88.7488L69.5213 85.0797C69.5213 84.9039 69.6686 84.8384 69.8038 84.8645C69.936 84.8226 70.0924 84.8705 70.1124 85.047C70.2349 86.1 70.9199 86.9421 71.3346 87.8879C71.548 88.3753 71.6511 88.9355 72.0597 89.3096C72.3853 89.6079 72.8096 89.7661 73.2413 89.8576C72.7908 88.9149 72.3265 87.9752 71.7517 87.1022C71.1618 86.2073 70.2979 85.4786 69.9948 84.4237C69.8553 83.9381 69.8135 83.4325 69.7529 82.9335C69.6844 82.3734 69.5928 81.8156 69.477 81.2633C69.2424 80.1417 68.9065 79.0456 68.4791 77.9822C68.4749 77.9713 68.4767 77.9616 68.4737 77.9513C68.3882 77.9373 68.3033 77.9179 68.2196 77.8876C67.774 77.7258 67.4867 77.3796 67.1381 77.0801C67.1284 77.0716 67.1211 77.0686 67.112 77.0619C67.577 79.0626 68.0905 81.0602 68.4852 83.0754ZM50.994 101.94C45.4164 104.016 39.5114 105.162 33.561 105.291C30.0252 105.367 26.4762 105.146 22.9538 105.539C24.461 106.358 25.9645 107.186 27.4838 107.981C28.2622 108.389 29.0613 108.767 29.9058 109.017C30.7661 109.271 31.6239 109.322 32.5158 109.27C33.4051 109.219 34.2751 109.173 35.1584 109.325C35.9611 109.463 36.742 109.697 37.5229 109.924C38.3443 110.163 39.1683 110.387 40.0207 110.484C40.9458 110.591 41.8819 110.58 42.8094 110.512C46.3652 110.248 50.0112 109.556 53.2765 108.089C56.8541 106.483 59.9375 103.834 62.0394 100.521C63.241 98.6272 64.2183 96.5829 65.2617 94.5992L65.8443 93.4916C61.3901 97.0831 56.3563 99.9452 50.994 101.94ZM64.8713 93.4594C63.3574 93.0593 61.7878 92.8877 60.2231 92.9593C58.6959 93.0296 57.2191 93.4788 55.6949 93.5455C54.9328 93.5789 54.2017 93.4552 53.4675 93.2618C52.7127 93.0629 51.964 92.8186 51.1783 92.7792C49.7445 92.7077 48.3725 93.2594 47.0375 93.7062C46.3567 93.9335 45.6692 94.1469 44.9599 94.27C44.1772 94.4052 43.3599 94.4398 42.6064 94.712C41.894 94.9696 41.3132 95.4946 40.5881 95.7196C39.8788 95.9396 39.1379 95.7947 38.4159 95.9111C37.6199 96.0391 36.9596 96.5356 36.3037 96.9691C35.6762 97.3832 35.0257 97.7172 34.3091 97.9482C32.8147 98.4308 31.2753 98.4435 29.7367 98.6611C29.1977 98.7375 28.8333 98.903 28.4884 99.328C28.2052 99.6766 27.8833 99.9173 27.4959 100.141C26.7096 100.594 26.1149 101.207 25.582 101.936C24.815 102.986 24.153 104.169 23.1642 105.013C26.1385 104.709 29.1328 104.815 32.118 104.807C35.1463 104.799 38.1588 104.577 41.1453 104.071C46.9642 103.084 52.609 101.119 57.7877 98.2895C60.3207 96.906 62.7348 95.3134 65.0034 93.5316C64.9531 93.5182 64.9058 93.4964 64.8713 93.4594ZM67.092 108.627C67.5218 107.501 68.2251 106.469 68.6471 105.335C68.6568 105.31 68.6719 105.292 68.6865 105.273C68.5331 103.107 68.4512 100.937 68.4421 98.7666C68.1523 99.499 67.7953 100.209 67.4709 100.93C67.1829 101.572 66.9168 102.236 66.7822 102.929C66.6337 103.693 66.6428 104.477 66.4397 105.233C66.4378 105.239 66.4336 105.242 66.4318 105.248C66.8519 106.335 67.0356 107.475 67.092 108.627ZM50.7266 126.316C51.8167 126.241 52.9152 126.182 53.9853 125.946C55.0747 125.706 56.1047 125.263 57.0966 124.761C58.126 124.241 59.1294 123.665 60.0788 123.01C61.9 121.754 63.5302 120.201 64.6839 118.301C65.2441 117.378 65.6788 116.383 65.9559 115.339C66.2372 114.279 66.359 113.185 66.4621 112.096C66.6609 110.002 66.7707 107.817 66.0929 105.799C65.1204 108.989 62.656 111.553 60.337 113.845C57.5598 116.589 54.5491 119.086 51.787 121.846C50.3222 123.31 48.9406 124.856 47.7135 126.525L50.7266 126.316ZM83.9739 127.234C84.3825 126.969 84.197 126.489 84.0727 126.113C83.9739 125.813 83.8878 125.506 83.9515 125.189C84.0164 124.861 84.2292 124.614 84.4504 124.376C84.7166 124.089 84.9652 123.826 84.9197 123.409C84.8766 123.013 84.6299 122.682 84.3613 122.405C83.8205 121.848 83.1155 121.393 82.8978 120.601C82.8032 120.256 82.8821 119.926 82.873 119.577C82.8596 119.108 82.4934 118.832 82.14 118.588C81.4852 118.135 80.9184 117.667 80.5176 116.964C80.3218 116.621 80.206 116.239 80.0066 115.899C79.7477 115.457 79.3294 115.146 78.9389 114.828C77.4293 113.599 76.5588 111.755 74.9855 110.604C74.9073 110.547 74.8818 110.47 74.8855 110.395C73.987 109.954 73.1285 109.44 72.3665 108.784C71.3904 107.944 70.6744 106.927 70.25 105.767C70.4325 108.717 71.8202 111.511 73.0115 114.166C73.7724 115.862 74.5684 117.547 75.5202 119.145C76.5066 120.801 77.6779 122.311 79.0608 123.655C80.4734 125.027 82.0084 126.282 83.2567 127.811C83.2695 127.778 83.2828 127.745 83.3022 127.714C83.4574 127.459 83.7381 127.386 83.9739 127.234ZM74.3289 86.3104C74.9073 86.9912 75.4535 87.6605 75.8876 88.4444C76.3144 89.215 76.6594 90.0262 77.0553 90.8119C77.2469 91.1926 77.4457 91.5855 77.8271 91.808C78.1405 91.9911 78.5049 92.0681 78.8268 92.2336C79.4888 92.5731 79.7689 93.2297 80.0708 93.8687C80.2175 94.1785 80.3746 94.5101 80.6425 94.7356C80.9766 95.0175 81.4307 95.0272 81.8314 95.1497C82.2176 95.2679 82.5874 95.4619 82.9021 95.7153C83.2458 95.9924 83.4695 96.4095 83.823 96.6653C84.2013 96.9394 84.6493 96.6756 85.0537 96.6229C85.4223 96.575 85.7679 96.6393 86.0346 96.9115C86.0552 96.9321 86.0661 96.9545 86.077 96.9763C86.8937 97.094 87.7164 97.231 88.4815 97.545C89.3369 97.896 90.0674 98.4756 91.0114 98.5841C91.8359 98.6793 92.6647 98.5514 93.4904 98.5441C94.3525 98.5363 95.157 98.7624 95.9955 98.9267C96.9176 99.1067 97.7306 99.0273 98.5915 98.643C99.4136 98.2768 100.185 97.8415 101.055 97.5881C101.951 97.3274 102.877 97.1982 103.79 97.0127C104.752 96.8175 105.644 96.4913 106.553 96.1282C107.54 95.7335 108.531 95.4716 109.594 95.408C109.964 95.3855 110.333 95.3879 110.702 95.394C106.207 94.1427 101.698 92.9193 97.1134 92.0347C94.6047 91.5509 92.0693 91.2581 89.5533 90.8198C87.1447 90.4002 84.8148 89.7121 82.5795 88.7185C80.4467 87.7709 78.4236 86.596 76.4969 85.2822C76.4454 85.2883 76.3902 85.2792 76.3357 85.2373C74.8915 84.14 73.1407 83.5452 71.7311 82.3921C71.4183 82.1357 71.1224 81.8611 70.8411 81.5719C70.9993 81.7356 71.1606 81.8974 71.3176 82.0617C71.9203 82.6916 72.3956 83.4052 72.8466 84.1485C73.3031 84.9009 73.7578 85.6381 74.3289 86.3104ZM112.1 95.2637C111.911 94.8593 111.786 94.4282 111.749 93.976C111.724 93.6753 111.767 93.3624 111.715 93.0654C111.637 92.621 111.293 92.3524 110.897 92.1875C110.255 91.9213 109.533 91.9498 108.894 91.6728C108.142 91.3472 107.792 90.633 107.189 90.1292C106.195 89.2968 104.74 89.4739 103.538 89.3041C102.146 89.1077 100.887 88.4748 99.5888 87.977C98.8316 87.6872 98.0707 87.4775 97.2668 87.3702C96.5011 87.2683 95.7257 87.1901 95.0115 86.8754C95.0097 86.8748 95.0085 86.8736 95.0067 86.873C93.0618 86.4741 91.0884 86.1291 89.1859 85.5617C87.3168 85.0045 85.5684 84.1121 83.6981 83.5568C81.9617 83.0408 80.1569 82.7632 78.346 82.7238C77.4439 82.7044 76.5478 82.7547 75.6506 82.8456C74.8212 82.9299 73.9573 82.9984 73.1679 82.6728C71.12 81.8289 70.5586 79.4378 69.1242 77.9567C69.1127 77.9452 69.1096 77.9331 69.1012 77.921C69.0933 77.9173 69.0842 77.9161 69.0763 77.9125C69.0496 77.921 69.0217 77.924 68.9951 77.9307C68.9957 77.9319 68.9957 77.9331 68.9963 77.9349C69.0351 77.9574 69.0708 77.9895 69.0933 78.044C69.7656 79.6349 70.8247 81.0493 72.187 82.1163C73.2534 82.9517 74.5029 83.4901 75.6572 84.1824C75.7173 84.1655 75.7852 84.1727 75.8525 84.2212C79.8132 87.0549 84.1982 89.3047 89.0144 90.2147C91.5207 90.6882 94.0603 90.9562 96.5678 91.4236C99.0383 91.8844 101.489 92.4445 103.926 93.0581C106.663 93.748 109.381 94.5052 112.1 95.2637ZM63.7667 48.2645C63.6721 48.2894 63.6012 48.2585 63.552 48.2051C62.368 49.0157 61.1046 49.6983 59.7732 50.2355C59.8781 50.3313 59.983 50.4265 60.0873 50.5222C60.1024 50.5107 60.1139 50.4974 60.1333 50.4877C61.0458 50.0506 61.9909 49.5959 62.9634 49.3073C63.4023 49.1769 63.8315 49.1606 64.2753 49.2764C64.7427 49.3982 65.1647 49.5637 65.6546 49.5789C66.6967 49.6116 67.7747 49.354 68.8023 49.2067C69.3509 49.1284 69.9057 49.0666 70.4507 48.9623C71.0066 48.8562 71.4298 48.6513 71.8033 48.2197C71.9912 48.002 72.1913 47.8062 72.3998 47.6231C71.8111 47.6662 71.2218 47.5085 70.6404 47.4303C69.9493 47.3363 69.2473 47.3176 68.5513 47.3582C66.9259 47.454 65.3338 47.8456 63.7667 48.2645ZM53.0237 55.0328C52.9867 55.011 52.9528 54.9849 52.9219 54.9534C52.8503 55.2668 52.4787 55.4202 52.2404 55.6136C51.8458 55.9349 51.6221 56.463 51.6972 56.971C51.733 57.2141 51.8318 57.4482 51.9779 57.6458C52.1095 57.8228 52.3599 58.1005 52.5957 58.1193C52.8079 58.1369 52.697 57.9514 52.6606 57.8071C52.6224 57.6537 52.583 57.5009 52.549 57.3463C52.4884 57.0699 52.4447 56.7886 52.4423 56.5042C52.4381 55.9519 52.6206 55.4166 53.0237 55.0328ZM52.2877 52.7454C52.2659 52.7448 52.2471 52.749 52.2235 52.746C51.7233 52.6799 51.2201 52.4198 50.7339 52.2816C49.8166 52.0221 48.6411 51.9306 47.922 52.652C48.4998 52.8691 49.2595 52.5526 49.8481 52.7963C50.0779 52.8915 50.2592 53.0528 50.4368 53.2219C50.6169 53.3941 50.8181 53.6299 51.0873 53.6512C51.3044 53.6681 51.3996 53.4687 51.5742 53.3796C51.699 53.3153 51.8306 53.3153 51.9506 53.3589C51.9591 53.1164 52.0925 52.8927 52.2877 52.7454ZM54.3502 50.6011C54.2041 50.4131 54.1235 50.1749 53.9592 50.0021C53.7155 49.745 53.4718 49.9263 53.513 50.2543C53.5694 50.7011 54.1095 51.1358 53.7373 51.5735C53.5603 51.7814 53.399 51.8979 53.4111 52.2016C53.4208 52.4508 53.5378 52.6557 53.7512 52.783C53.995 52.9279 53.7949 53.331 53.5306 53.2286C53.2856 53.1346 52.971 52.9909 52.7042 53.0758C52.4138 53.1692 52.3805 53.4323 52.6224 53.5917C52.8115 53.7166 53.0359 53.787 53.185 53.967C53.2474 54.0422 53.2941 54.1331 53.3117 54.2301C53.3214 54.2871 53.2626 54.6133 53.3402 54.6181C53.4996 54.6284 53.5706 54.7552 53.5633 54.8788C53.6003 54.8928 53.6361 54.9152 53.6664 54.9564C53.981 55.3808 54.2957 55.8064 54.6103 56.2308C54.7516 56.4218 54.8916 56.6424 55.0844 56.7867C55.1699 56.8504 55.6288 57.0323 55.6203 56.8589C55.6155 56.7643 55.4445 56.6182 55.4136 56.5115C55.3736 56.3733 55.3918 56.2211 55.4736 56.0998C55.6834 55.7894 56.0732 55.8204 56.3806 55.9349C56.7674 56.0798 57.1263 56.1223 57.4979 55.8967C57.6234 55.8204 57.8781 55.63 57.8968 55.4657C57.9175 55.282 57.5652 55.0346 57.4506 54.9188C57.2203 54.686 56.9226 54.369 57.2548 54.0725C57.4143 53.9306 57.658 53.87 57.852 53.7912C58.0933 53.693 58.3352 53.5948 58.5765 53.496C58.7765 53.4147 59.1991 53.3214 59.3125 53.1189C59.4295 52.9103 59.2161 52.9048 59.0675 52.9C58.7499 52.8909 58.4382 52.9048 58.2127 52.6435C58.1284 52.5459 58.1297 52.3713 58.2388 52.2895C58.454 52.127 58.6698 51.9651 58.8851 51.8027C59.0396 51.6863 59.3895 51.4995 59.3779 51.2758C59.3579 50.8884 58.5425 50.963 58.3928 50.5762C58.3321 50.421 58.3697 50.2561 58.4758 50.1324C58.5098 50.093 58.7462 49.9566 58.7541 49.9245C58.7911 49.7802 58.5146 49.7584 58.4237 49.7499C57.9272 49.7038 57.4755 49.836 57.0075 49.9772C56.8292 50.0312 56.6437 50.0688 56.4576 50.0391C56.3739 50.0257 56.2927 50.0015 56.2187 49.959C56.1217 49.9026 56.0005 49.7196 55.8956 49.7135C55.624 49.6977 55.6652 50.2227 55.6525 50.3786C55.6361 50.5774 55.5646 50.7587 55.3912 50.8708C55.0341 51.1024 54.5879 50.906 54.3502 50.6011ZM54.7097 57.858C54.7231 58.1957 54.674 58.5364 54.6643 58.8741C54.6534 59.2688 54.6612 59.6634 54.6909 60.0569C54.7413 60.7159 54.8589 61.3652 55.0153 62.006C55.1074 61.9187 55.1723 61.8072 55.2081 61.658C55.2536 61.4713 55.5221 61.438 55.6355 61.5756C55.8483 61.8345 55.955 62.1346 56.0423 62.4534C56.1272 62.762 56.1805 63.1767 56.4497 63.3883C56.5788 63.4895 56.4612 63.3137 56.4388 63.2331C56.4085 63.1228 56.4006 63.0015 56.3806 62.8887C56.3394 62.6596 56.2951 62.431 56.2472 62.2037C56.1514 61.7478 56.0417 61.2955 55.9198 60.8463C55.8556 60.6086 56.2108 60.4401 56.3563 60.6365C57.0014 61.5089 57.3512 62.5911 58.1127 63.3768C58.2964 63.5659 58.5061 63.7357 58.7408 63.8582C58.8038 63.8909 59.0269 64.0267 59.059 63.9224C59.0724 63.8776 58.8905 63.6399 58.8899 63.6393C58.5613 63.1422 58.1885 62.6772 57.7847 62.2394C57.5852 62.0236 57.8787 61.7284 58.1139 61.8672C58.6977 62.2116 59.287 62.542 59.9236 62.7687C59.8375 62.6414 59.7053 62.5262 59.6192 62.4437C59.3561 62.1928 59.0912 61.9436 58.8275 61.6932L57.2439 60.1909C57.1305 60.0836 57.1833 59.8544 57.3264 59.8005C57.6301 59.6859 57.8271 59.2954 57.6313 58.9972C57.5228 58.8329 57.578 58.6419 57.7756 58.5867C58.3321 58.4309 58.7741 58.8765 59.1324 59.2354C59.7059 59.8102 60.2788 60.3855 60.853 60.9596C60.9791 61.0857 61.6314 61.7205 61.7248 61.2506C61.7721 61.0142 61.3798 60.7135 61.2379 60.5728C60.6499 59.9908 60.0612 59.4088 59.4731 58.8268C59.2882 58.6437 59.5216 58.3545 59.7441 58.4255L60.8148 58.7674C60.9609 58.8141 61.1106 58.8541 61.2567 58.9008C61.2543 58.8971 61.2537 58.8929 61.2513 58.8899C61.2088 58.8432 61.1773 58.7983 61.1282 58.7559C60.5571 58.2551 59.8854 57.8356 59.2743 57.3839C59.0845 57.2432 59.1633 56.9941 59.3682 56.9286C60.5747 56.5418 61.6575 57.3894 62.6117 57.9999C62.8876 58.1757 63.1713 58.343 63.4799 58.4552C63.5957 58.4976 63.8764 58.6237 63.9904 58.5825C64.0868 58.5473 64.071 58.5867 64.0286 58.4697C64.008 58.4121 63.9546 58.3594 63.9164 58.3139C63.4005 57.6979 62.8124 57.1293 62.2644 56.5412C62.1413 56.409 62.2195 56.1489 62.4086 56.1308C62.9688 56.075 63.4902 56.2193 64.0255 56.3666C64.482 56.4927 65.0259 56.6194 65.4848 56.446C65.1865 56.169 64.7882 56.038 64.396 55.9016C64.0134 55.7682 63.3035 55.5815 63.1349 55.1607C62.9767 54.7649 63.4162 54.3247 63.6157 54.0283C63.7685 53.8003 63.8946 53.5493 63.7636 53.2783C63.6412 53.0249 63.3799 52.8539 63.1556 52.6987C62.9846 52.5805 63.0301 52.3628 63.1877 52.2634C63.8158 51.8675 64.5572 51.8008 65.2708 51.6723C65.597 51.6141 66.0826 51.5571 66.3518 51.3395C66.3196 51.3237 66.2899 51.3025 66.2535 51.297C66.1638 51.2734 66.0559 51.2776 65.9644 51.2746C65.7588 51.2686 65.5545 51.2843 65.3508 51.3067C64.5645 51.3928 63.8346 51.5098 63.0507 51.3261C62.2577 51.14 61.2531 50.689 60.5371 51.3104C60.4256 51.4068 60.2837 51.3759 60.1831 51.2843C60.0473 51.16 59.9108 51.0357 59.775 50.9115C59.849 51.02 59.8957 51.1449 59.8933 51.2855C59.8896 51.5523 59.7235 51.7693 59.5301 51.9379C59.3343 52.1088 59.1227 52.2646 58.9099 52.4186C59.0863 52.4247 59.2852 52.401 59.4113 52.4392C59.689 52.5223 59.8781 52.7672 59.8514 53.0631C59.8151 53.465 59.4604 53.6724 59.1257 53.8136C58.8669 53.9221 58.6056 54.0252 58.3455 54.1313C58.22 54.1822 57.792 54.2902 57.6422 54.4132C57.8417 54.7206 58.2752 54.8922 58.3873 55.2614C58.4886 55.593 58.2339 55.9319 58.0023 56.1447C57.741 56.3842 57.39 56.5315 57.0378 56.5612C56.8668 56.5758 56.6989 56.563 56.5322 56.5218C56.4788 56.5085 55.912 56.2641 55.8932 56.3775C55.8822 56.4418 56.0599 56.6055 56.092 56.6715C56.1593 56.8098 56.1636 56.9577 56.095 57.0953C55.9374 57.4081 55.51 57.4761 55.202 57.396C54.7607 57.2814 54.4878 56.9062 54.2302 56.5588C53.9446 56.1738 53.6597 55.7882 53.3741 55.4026C53.3663 55.419 53.3638 55.436 53.3499 55.4524C53.1341 55.7167 53.0462 56.041 53.1207 56.3781C53.1553 56.5345 53.2293 56.7316 53.3554 56.8395C53.4972 56.9613 53.5809 56.8546 53.744 56.828C54.3442 56.7291 54.6897 57.35 54.7097 57.858ZM51.8834 54.7915C51.0097 55.1632 50.3113 55.7967 49.6584 56.4715C48.9872 57.1644 48.3373 57.8798 47.6953 58.5995C47.0302 59.3452 46.3785 60.1024 45.7395 60.8693C45.4515 61.2149 45.1666 61.5622 44.8841 61.9115C44.6131 62.2467 44.2808 62.5947 44.0717 62.9851C44.0723 62.9888 44.0747 62.9912 44.0753 62.9948C44.102 63.164 44.0335 63.2895 43.9135 63.3847C43.8352 63.7139 43.8498 64.0637 43.8468 64.3989C43.8431 64.7912 43.7952 65.1725 43.7116 65.5557C43.5394 66.3481 43.2314 67.1186 43.189 67.9359C43.1617 68.4645 43.3114 68.8265 43.691 69.1926C44.0456 69.5346 44.4257 69.8529 44.8101 70.1608C45.5207 70.7313 46.3906 71.1963 46.9708 71.9105C47.2849 72.2967 47.434 72.7514 47.6335 73.1988C47.8438 73.6717 48.133 73.9342 48.5865 74.17C49.0291 74.4004 49.4068 74.6369 49.6875 75.0619C49.8396 75.2916 49.9512 75.5408 50.047 75.7972C50.5344 74.8096 50.8964 73.7554 51.2735 72.7247C51.7051 71.5431 52.1131 70.3506 52.4138 69.1284C52.7206 67.8843 52.8679 66.6154 53.014 65.3447C53.162 64.0588 53.3178 62.7736 53.4536 61.4865C53.5979 60.1181 53.7027 58.7449 53.6918 57.3681C53.6197 57.3966 53.5475 57.4294 53.473 57.43C53.305 57.4324 53.1626 57.3469 53.0425 57.2317C53.1492 57.6234 53.3881 58.1751 53.0947 58.4788C52.7412 58.8444 52.1622 58.5206 51.8633 58.2569C51.5178 57.9514 51.2722 57.5203 51.2037 57.062C51.1304 56.5721 51.2528 56.0659 51.5299 55.6554C51.6609 55.4608 51.8306 55.2862 52.0222 55.151C52.1125 55.0874 52.2132 55.0377 52.3023 54.9722C52.4496 54.8625 52.4272 54.8061 52.3332 54.6588C52.2459 54.5205 52.1568 54.3841 52.0683 54.2471C52.021 54.1731 51.91 53.9173 51.8264 53.8743C51.7342 53.827 51.6803 53.9416 51.596 54.0034C51.4984 54.0749 51.3862 54.1253 51.2668 54.1453C50.7909 54.2253 50.4095 53.8918 50.0949 53.5869C49.8675 53.3668 49.6493 53.2153 49.3298 53.1874C49.1018 53.1674 48.8733 53.188 48.6453 53.2007C48.2021 53.225 47.748 53.2177 47.3855 52.9261C47.2831 52.843 47.2321 52.6957 47.3164 52.5781C47.8069 51.896 48.6095 51.599 49.428 51.579C49.8706 51.5674 50.3119 51.6517 50.7387 51.7639C51.1989 51.8851 51.7124 52.0118 52.1459 52.207C52.2665 52.261 52.2659 52.2877 52.2683 52.1476C52.2708 52.0155 52.235 51.8888 52.1756 51.7718C52.0804 51.5832 51.944 51.4334 51.9234 51.2146C51.9094 51.0709 51.944 50.9418 51.9998 50.8199C50.4871 48.2385 48.7672 45.7813 46.8526 43.4811C46.3761 42.9088 45.8911 42.3408 45.3867 41.7915C45.2145 41.6041 45.009 41.372 44.7507 41.3077C44.4009 41.221 44.0517 41.5951 43.808 41.8012C43.5564 42.014 43.3151 42.248 43.1702 42.5487C43.0326 42.8355 43.0089 43.1495 42.998 43.4629C42.9762 44.0832 42.9483 44.6403 42.6664 45.2078C42.3881 45.7661 41.9722 46.2487 41.7261 46.8234C41.4799 47.4006 41.4957 47.9232 41.8261 48.4585C42.0838 48.8756 42.4305 49.2497 42.5754 49.7274C42.7367 50.2585 42.5421 50.7144 42.2323 51.1467C41.8885 51.6268 41.7024 52.0737 41.6582 52.6666C41.6188 53.1971 41.6557 53.7306 41.6163 54.2617C41.5745 54.8212 41.4181 55.3202 41.1641 55.8191C40.9076 56.3229 40.5511 56.8552 40.5978 57.447C40.6269 57.8107 40.7858 58.1502 40.8815 58.4988C40.9658 58.8044 40.9949 59.1184 40.9688 59.4349C40.9119 60.1248 40.6208 60.7693 40.5481 61.4549C40.4717 62.1715 40.653 62.95 41.4417 63.1434C41.7703 63.224 42.1256 63.2119 42.4615 63.1961C42.65 63.1876 42.8386 63.1701 43.0241 63.1391C43.1102 63.1252 43.195 63.1076 43.2799 63.087C43.3563 63.0688 43.4436 63.0161 43.5054 63.0179C43.6158 62.7396 43.7825 62.4916 43.9729 62.2497C44.2869 61.8496 44.6088 61.4555 44.9314 61.0621C45.5801 60.2733 46.2421 59.4955 46.9169 58.7286C47.6674 57.8762 48.4301 57.0329 49.2146 56.212C49.9312 55.4621 50.703 54.7485 51.6687 54.338C51.9646 54.2119 52.1816 54.6648 51.8834 54.7915ZM58.3879 48.5076C58.5583 47.7983 59.2464 47.5473 59.7447 47.1126C59.2912 47.1454 58.8553 47.3927 58.4867 47.6474C58.1327 47.8911 57.7908 48.1524 57.4519 48.4191C57.3336 48.5452 57.2112 48.6677 57.0808 48.7829C57.0281 48.8296 56.9717 48.8441 56.9177 48.8423C56.825 48.9163 56.7316 48.9902 56.6383 49.0636C56.4218 49.2339 56.1005 48.9745 56.266 48.7338C56.5406 48.3336 56.8153 47.9335 57.0899 47.5334C57.1178 47.4922 57.1978 47.3497 57.2809 47.2139C57.196 47.2721 57.1111 47.3309 57.0287 47.3927C56.2472 47.9753 55.5882 48.6926 55.0608 49.5116C54.991 49.6201 54.8183 49.6626 54.7122 49.5807C54.0156 49.043 53.7894 48.0766 54.1526 47.2933C53.787 47.2018 53.4002 47.4921 53.2414 47.828C53.0261 48.2827 53.0516 48.8126 53.0237 49.3025C52.9971 49.7687 52.9273 50.2318 52.6891 50.6417C52.5848 50.8199 52.3768 51.0145 52.4399 51.2413C52.4757 51.3686 52.5957 51.4783 52.6515 51.599C52.6994 51.7026 52.7351 51.8184 52.7533 51.9318C52.7897 52.1543 52.7606 52.4235 52.6303 52.5914C52.7442 52.5659 52.8588 52.5569 52.9752 52.5672C52.9116 52.375 52.8916 52.167 52.9261 51.9621C52.9619 51.7523 53.051 51.5602 53.1935 51.4019C53.3159 51.2661 53.3808 51.2698 53.3153 51.0879C53.2559 50.9236 53.1559 50.7738 53.0953 50.6089C52.9304 50.1633 53.0037 49.4928 53.5609 49.3685C54.1004 49.2491 54.4084 49.759 54.6461 50.1433C54.7328 50.284 54.9201 50.5732 55.0935 50.4052C55.2002 50.3016 55.1529 50.0845 55.1778 49.9384C55.2214 49.6741 55.3512 49.4176 55.5985 49.2903C55.778 49.1976 55.9956 49.183 56.1763 49.2812C56.2951 49.3455 56.3818 49.5007 56.5128 49.5419C56.6558 49.5868 56.8444 49.5061 56.9784 49.4637C57.5198 49.2915 58.1121 49.16 58.6807 49.28C58.9881 49.3455 59.2549 49.6189 59.267 49.9045C60.7554 49.3316 62.1643 48.578 63.4678 47.6595C62.8512 47.1963 61.9564 47.494 61.2871 47.7413C60.4201 48.062 59.5689 48.4222 58.7329 48.8156C58.5237 48.9138 58.3394 48.7101 58.3879 48.5076ZM72.8515 65.6594C73.6275 65.8964 74.4744 66.1589 75.2886 65.9631C75.7482 65.8528 76.1332 65.5739 76.5042 65.2938C76.8722 65.0149 77.245 64.7463 77.6409 64.5075C78.4424 64.0237 79.3094 63.6551 80.2109 63.4022C81.0912 63.1549 82.0381 63.1312 82.8972 62.8148C83.318 62.6602 83.7217 62.4104 83.9212 61.9915C84.0824 61.6538 84.0885 61.2652 84.0752 60.8984C84.0473 60.1666 83.9721 59.4719 84.2607 58.7759C84.5384 58.1066 84.9955 57.5391 85.3338 56.9031C85.492 56.6061 85.6248 56.2835 85.6533 55.9446C85.689 55.5233 85.5375 55.1438 85.3611 54.7703C85.1889 54.406 84.9967 54.041 84.9221 53.6408C84.8566 53.2874 84.9021 52.9358 84.9858 52.5896C85.1652 51.8421 85.4969 51.1388 84.9773 50.4446C84.4765 49.7753 83.7963 49.3158 83.7187 48.4179C83.6811 47.9899 83.6769 47.5898 83.3913 47.2399C83.1221 46.9095 82.7165 46.7143 82.317 46.5931C81.4889 46.3415 80.6256 46.4615 79.7756 46.4567C78.9747 46.453 78.2429 46.3075 77.5633 45.8692C77.165 45.6127 76.8207 45.3939 76.3575 45.6376C75.9064 45.8747 75.479 46.1693 75.0443 46.4354C74.1695 46.972 73.1964 47.46 72.478 48.2063C72.1488 48.5483 71.8893 48.9284 71.4619 49.1588C71.066 49.3716 70.6095 49.4522 70.17 49.5177C69.1321 49.6717 68.0929 49.816 67.0538 49.9639C66.1523 50.0918 65.3241 50.1336 64.4469 49.8523C63.9831 49.7038 63.5793 49.6498 63.1034 49.7868C62.6433 49.919 62.1958 50.1203 61.7551 50.3058C61.595 50.3737 61.4392 50.4501 61.2804 50.5204C61.8497 50.4828 62.4517 50.6526 63.0058 50.7987C63.5351 50.9381 64.0377 50.9624 64.5815 50.8987C65.0525 50.843 65.5242 50.7599 66.0013 50.7744C66.3287 50.7841 66.8525 50.8575 66.9047 51.274C66.9592 51.7087 66.4069 51.8869 66.0844 51.9918C65.3302 52.2374 64.4966 52.2246 63.7673 52.5314C64.0468 52.7654 64.2838 53.0497 64.3202 53.4262C64.3687 53.9331 64.0098 54.312 63.7527 54.7054C63.6824 54.814 63.5866 54.9231 63.6782 55.0316C63.7612 55.1304 63.9582 55.1953 64.0698 55.2438C64.3165 55.3505 64.5742 55.4299 64.827 55.5209C65.3084 55.6943 65.7788 55.9161 66.0711 56.3551C66.139 56.4575 66.1675 56.6255 66.0444 56.7091C65.5466 57.0474 64.9725 57.0808 64.3923 56.9692C63.9437 56.8837 63.5017 56.7152 63.0489 56.6473C63.2441 56.8571 63.4399 57.0668 63.6357 57.2772C63.7006 57.3469 63.7709 57.4166 63.8418 57.487C63.8812 57.4876 63.9225 57.4948 63.9637 57.5185C65.8322 58.5661 67.9183 59.2633 69.5898 60.6383C70.3725 61.2828 71 62.0485 71.4759 62.9433C71.9463 63.8297 72.2883 64.7791 72.783 65.6527C72.8054 65.6533 72.8272 65.6521 72.8515 65.6594ZM76.6473 67.5848C77.1214 68.022 77.6731 68.3245 78.2672 68.5658C78.7922 68.7792 79.3336 68.9538 79.852 69.1835C80.3946 69.4236 80.8735 69.7304 81.3337 70.1039C81.7762 70.4628 82.214 70.812 82.7493 71.0223C83.1822 71.1921 83.6387 71.2867 84.0994 71.3424C85.0664 71.4588 86.0449 71.4249 87.0125 71.534C87.529 71.5922 88.045 71.6916 88.5348 71.8693C88.644 71.9087 88.7513 71.9523 88.8592 71.9948C88.3208 71.5783 87.7885 71.1539 87.2768 70.7047C86.4347 69.9662 85.6666 69.1526 84.8676 68.3693C83.23 66.7621 81.3306 65.5284 79.3924 64.3195C79.3573 64.2977 79.3318 64.2716 79.3136 64.2431C79.1663 64.3013 79.0184 64.3559 78.8729 64.4232C78.4182 64.6311 77.9774 64.8724 77.5597 65.1477C77.1414 65.4229 76.7606 65.7497 76.3423 66.0237C76.0974 66.1838 75.8446 66.2984 75.5851 66.379C75.9137 66.8034 76.2526 67.2211 76.6473 67.5848ZM87.5563 70.2875C88.0668 70.7368 88.5985 71.1612 89.1374 71.5771C88.416 70.3185 88.202 68.7889 87.8855 67.366C87.7691 66.841 87.626 66.3269 87.4314 65.8255C87.2574 65.3774 87.2029 65.0094 87.2399 64.5299C87.2805 64.0158 87.1168 63.5362 86.716 63.1973C86.3602 62.896 85.9255 62.6662 85.823 62.1691C85.7703 61.9108 85.8309 61.6508 85.8127 61.3919C85.7951 61.1403 85.7024 60.8996 85.5726 60.685C85.3198 60.2667 84.9349 59.9369 84.5565 59.6319C84.5287 59.8829 84.5305 60.1375 84.545 60.3928C84.5881 61.1494 84.6523 61.9484 84.1382 62.5747C83.5562 63.2834 82.5813 63.4562 81.7259 63.5987C81.0972 63.7036 80.4855 63.8454 79.8877 64.0376C81.7168 65.1822 83.5114 66.3614 85.0694 67.868C85.9012 68.6719 86.6869 69.5231 87.5563 70.2875ZM80.0714 28.4532C79.7477 29.9882 79.45 31.5657 79.9387 33.1001C80.1745 33.8386 80.4813 34.5546 80.4606 35.3451C80.4412 36.0769 80.1648 36.7904 79.704 37.3567C79.6992 37.3627 79.6925 37.3646 79.6871 37.3706C79.7822 37.4852 79.8811 37.598 79.9866 37.7059C80.2382 37.9617 80.5164 38.1897 80.8153 38.3885C81.0542 38.5474 81.327 38.6723 81.5216 38.8887C81.7338 39.1245 81.7938 39.4477 81.681 39.7084C82.1503 40.9063 80.9966 42.1959 80.2915 43.0604C79.8041 43.6582 79.2669 44.2171 78.6103 44.63C78.2278 44.8701 77.8131 45.0356 77.3918 45.1859C77.5876 45.286 77.7731 45.4115 77.9592 45.5273C78.3381 45.7625 78.7528 45.8825 79.1954 45.9274C80.0739 46.0165 80.9626 45.8486 81.8381 45.9771C82.6232 46.0929 83.4726 46.4106 83.9139 47.1114C84.1534 47.4909 84.174 47.8923 84.2122 48.327C84.254 48.8144 84.4899 49.1521 84.813 49.5037C85.3792 50.1209 85.8879 50.7065 85.7521 51.6002C85.632 52.3883 85.2143 53.094 85.5156 53.8967C85.8079 54.6751 86.2868 55.3402 86.1207 56.2126C85.9837 56.9316 85.5393 57.5397 85.1616 58.149C84.9724 58.4539 84.796 58.768 84.6766 59.1069C84.7008 59.1154 84.7257 59.1251 84.7499 59.1445C85.3962 59.6622 86.1061 60.2667 86.2801 61.1191C86.3232 61.33 86.3129 61.5398 86.3056 61.7532C86.2935 62.0812 86.3784 62.2976 86.6366 62.5074C87.004 62.8057 87.355 63.05 87.5642 63.4914C87.7618 63.9097 87.754 64.3219 87.7218 64.7712C87.6855 65.2756 87.9413 65.7194 88.091 66.188C88.4118 67.1926 88.553 68.2396 88.7931 69.2642C89.0659 70.4282 89.5097 71.631 90.4482 72.4252C90.641 72.5883 90.5512 72.8805 90.2899 72.8842C90.2451 72.8848 90.2026 72.8763 90.1584 72.8739C90.1166 72.8866 90.0711 72.8823 90.0244 72.8636C89.577 72.8169 89.1562 72.6562 88.7373 72.4871C88.2493 72.2894 87.76 72.1421 87.238 72.0675C86.2432 71.9257 85.2337 71.9645 84.2358 71.862C83.2149 71.7571 82.2709 71.4734 81.4507 70.8399C80.9602 70.4609 80.5067 70.0566 79.9471 69.7789C79.4015 69.5073 78.8189 69.3218 78.2526 69.0999C77.6221 68.8525 77.0128 68.5567 76.4939 68.1147C75.9386 67.6412 75.4857 67.0719 75.0425 66.4954C74.6709 66.5402 74.2877 66.5227 73.8942 66.4481C73.656 66.4032 73.422 66.3438 73.1886 66.279C73.6717 66.9513 74.2453 67.5563 74.7097 68.2444C75.2765 69.0841 75.7561 70.0044 76.1701 70.929C76.3508 71.3321 76.4684 71.7547 76.3769 72.1967C76.2817 72.6544 76.0562 73.1103 75.8543 73.5298C75.6463 73.9627 75.4038 74.3756 75.0692 74.7236C74.7218 75.0849 74.2822 75.2934 73.8536 75.5396C73.3225 75.8439 73.0946 76.2447 72.8794 76.797C72.7284 77.1844 72.5726 77.6063 72.2476 77.8846C71.8851 78.195 71.4274 78.2077 70.9757 78.1568C70.5986 78.1138 70.2215 78.0671 69.845 78.021C70.9042 79.3414 71.4765 81.1214 72.9758 82.0181C73.7706 82.494 74.6727 82.4419 75.559 82.3521C76.429 82.2636 77.299 82.2097 78.1738 82.22C79.9223 82.24 81.6683 82.4849 83.3574 82.939C85.2046 83.4367 86.921 84.2813 88.7288 84.8905C90.9132 85.6265 93.2285 85.9903 95.4801 86.4608C95.5541 86.4759 95.599 86.5147 95.6244 86.5626C96.1695 86.7281 96.7363 86.7942 97.3038 86.8694C98.0095 86.964 98.6927 87.121 99.3645 87.3592C100.698 87.8321 101.973 88.5317 103.38 88.7736C104.639 88.9901 106.03 88.8124 107.168 89.4993C107.813 89.8886 108.147 90.5906 108.749 91.021C109.363 91.46 110.166 91.4157 110.86 91.6407C111.587 91.8759 112.175 92.3742 112.228 93.1733C112.255 93.5855 112.227 93.9857 112.319 94.3931C112.416 94.8187 112.597 95.2218 112.845 95.5807C112.963 95.7517 112.87 96.0124 112.637 95.9948C110.746 95.8529 108.885 95.7693 107.082 96.458C106.195 96.7975 105.335 97.1734 104.407 97.3916C103.499 97.6056 102.572 97.7275 101.664 97.9452C100.744 98.1658 99.9356 98.5599 99.088 98.9661C98.309 99.3389 97.5081 99.599 96.6345 99.5257C95.7827 99.4547 94.9703 99.1528 94.1209 99.0704C93.2922 98.9891 92.4628 99.1189 91.6334 99.1189C91.1733 99.1189 90.7089 99.0758 90.2669 98.9431C89.7813 98.7982 89.3418 98.5363 88.898 98.2986C87.9043 97.7657 86.8209 97.585 85.7169 97.4304C85.5551 97.4074 85.4853 97.2674 85.4969 97.1406C85.2277 97.0364 84.8676 97.1825 84.6081 97.2395C84.2722 97.314 83.9279 97.3195 83.6247 97.1364C83.3143 96.9485 83.1215 96.632 82.879 96.3731C82.5747 96.0482 82.1891 95.8008 81.7684 95.6565C81.3979 95.5298 80.9996 95.505 80.6456 95.3303C80.3394 95.1794 80.109 94.9375 79.9253 94.6538C79.5416 94.0627 79.39 93.2375 78.8007 92.801C78.4994 92.5773 78.1162 92.4991 77.7804 92.3439C77.4227 92.1796 77.1474 91.9407 76.9292 91.6109C76.4502 90.8871 76.1404 90.0425 75.753 89.2684C75.3608 88.4845 74.9103 87.7636 74.3417 87.0949C73.7597 86.411 73.2249 85.7272 72.7545 84.9603C72.2216 84.0921 71.7166 83.2167 71.0145 82.4697C70.6811 82.1157 70.33 81.7756 70.0142 81.4094C70.093 81.8101 70.1639 82.2127 70.2179 82.6183C70.2846 83.1233 70.3203 83.635 70.4367 84.1321C70.5677 84.6911 70.8478 85.1276 71.2115 85.5617C71.5789 86.0006 71.9227 86.4486 72.2331 86.9294C72.8788 87.9285 73.3917 89.0028 73.9015 90.0747C73.9797 90.239 73.8463 90.456 73.656 90.4324C73.0673 90.359 72.461 90.2159 71.9663 89.8722C71.431 89.5005 71.2182 88.9743 70.9963 88.3868C70.7399 87.7084 70.3319 87.0907 70.0227 86.4365C70.0239 88.0898 70.0251 89.7437 70.0263 91.3969C70.0275 93.3643 69.9481 95.3522 70.0736 97.3165C70.1397 98.3483 70.304 99.3777 70.6944 100.34C70.7023 100.36 70.7017 100.378 70.7047 100.396C72.612 100.816 74.5235 101.523 75.8943 102.972C77.1978 104.35 77.7161 106.349 77.9144 108.19C78.0265 109.228 78.0168 110.275 77.8877 111.311C77.8683 111.464 77.7137 111.591 77.5561 111.53C77.0826 111.345 76.606 111.157 76.1338 110.959C77.2117 112.06 78.0107 113.428 79.2184 114.411C79.5725 114.7 79.9471 114.98 80.2309 115.343C80.4952 115.681 80.6407 116.073 80.8214 116.457C81.0166 116.872 81.2797 117.245 81.6101 117.564C81.9569 117.898 82.3898 118.115 82.7578 118.422C83.0397 118.658 83.2798 118.948 83.3519 119.318C83.438 119.761 83.2573 120.197 83.4374 120.629C83.7799 121.452 84.7039 121.849 85.1543 122.603C85.5496 123.264 85.4938 123.967 84.9815 124.538C84.6917 124.861 84.3662 125.129 84.4486 125.605C84.5123 125.973 84.6978 126.301 84.7233 126.678C84.7505 127.076 84.6093 127.423 84.2668 127.64C84.1031 127.744 83.7914 127.818 83.7132 128.013C83.6417 128.191 83.7235 128.395 83.6332 128.582C83.4301 129 83.0488 128.864 82.7287 128.684C82.3849 128.491 82.0721 128.253 81.7847 127.985C81.7114 128.077 81.584 128.128 81.4561 128.047C80.9335 127.717 80.286 127.766 79.6974 127.674C79.4197 127.631 79.1481 127.566 78.8971 127.436C78.574 127.268 78.3581 126.997 78.1356 126.716C77.8616 126.37 77.5724 126.164 77.1529 126.029C76.7891 125.912 76.4114 125.848 76.044 125.745C75.3044 125.538 74.5727 125.228 73.9682 124.747C73.294 124.21 72.8575 123.463 72.2792 122.836C71.6881 122.196 70.9987 121.501 70.1936 121.146C69.528 120.851 69.1078 120.428 68.818 119.757C68.5228 119.074 68.3645 118.354 67.8886 117.763C67.6091 117.416 67.3315 117.091 67.2266 116.647C67.1338 116.255 67.1732 115.846 67.0793 115.453C66.9823 115.048 66.8077 114.672 66.6785 114.284C66.4682 115.439 66.1505 116.567 65.6182 117.638C64.6124 119.666 63.0622 121.378 61.2792 122.754C60.3425 123.477 59.3404 124.116 58.3061 124.689C57.3021 125.245 56.266 125.766 55.176 126.131C53.9549 126.54 52.6945 126.678 51.4165 126.768C50.0221 126.866 48.6277 126.962 47.2333 127.059C47.0957 127.068 46.9702 127.003 46.9405 126.858C46.2373 123.401 47.3473 119.797 49.3722 116.976C50.6035 115.262 52.1713 113.804 53.8786 112.572C55.6458 111.296 57.561 110.309 59.4943 109.316C60.6208 108.737 61.6557 108.059 62.6311 107.251C63.1161 106.849 63.589 106.433 64.0601 106.015C64.5299 105.597 64.9762 105.163 65.309 104.626C65.3605 103.598 65.5563 102.587 65.7928 101.588C66.0341 100.568 66.2614 99.5608 66.7707 98.6363C67.0126 98.1968 67.2854 97.7705 67.4715 97.3031C67.671 96.8017 67.7183 96.2779 67.7456 95.7438C67.8025 94.6228 67.9001 93.5061 68.0366 92.3918C68.1481 91.4818 68.2815 90.5755 68.4191 89.6697C67.6019 91.2229 66.7846 92.7762 65.9674 94.3294C65.0137 96.1427 64.0971 97.9821 63.0804 99.7609C61.1058 103.217 58.2382 106.071 54.7158 107.944C51.4293 109.69 47.725 110.484 44.0529 110.895C42.2699 111.096 40.4729 111.168 38.7117 110.762C37.0075 110.37 35.3773 109.671 33.5991 109.712C32.6837 109.734 31.7725 109.862 30.8588 109.735C30.018 109.618 29.2092 109.345 28.4356 109.001C26.7017 108.229 25.0539 107.24 23.3861 106.338C22.9356 106.095 22.4846 105.851 22.0335 105.607C21.8565 105.511 21.9104 105.252 22.0656 105.172C23.4697 104.446 24.2167 102.973 25.1042 101.74C25.5492 101.123 26.0451 100.521 26.6659 100.072C26.9727 99.85 27.3183 99.693 27.6281 99.4778C27.9991 99.2189 28.1986 98.7969 28.569 98.5393C29.188 98.1094 30.021 98.1282 30.7412 98.0622C31.5324 97.9894 32.3248 97.9051 33.1038 97.7457C33.8689 97.5893 34.6171 97.3565 35.3094 96.9903C36.0254 96.6114 36.6468 96.0712 37.3804 95.7226C38.0618 95.3989 38.7408 95.3728 39.4805 95.3613C39.8745 95.3552 40.2607 95.3237 40.6293 95.1739C41.0186 95.0163 41.3659 94.775 41.7297 94.5701C43.0453 93.8274 44.6282 93.9117 46.0523 93.4958C47.4322 93.0933 48.7678 92.4809 50.2076 92.316C50.9515 92.2305 51.676 92.293 52.4035 92.4621C53.1704 92.6404 53.9186 92.912 54.7025 93.0096C56.4333 93.226 58.163 92.5931 59.883 92.4797C61.5853 92.3676 63.2895 92.5373 64.9404 92.9635C65.6509 91.306 66.9744 90.0031 67.7171 88.3644C67.7201 88.3505 67.7177 88.3377 67.7231 88.3232C68.3536 86.5541 68.3215 84.7626 67.9462 82.9426C67.5825 81.1748 67.1514 79.419 66.7385 77.6615C66.7125 77.7464 66.687 77.8312 66.6585 77.9149C66.5312 78.2829 66.3554 78.6527 66.045 78.9007C65.968 78.9613 65.8855 79.0135 65.7995 79.0589C66.0274 79.9028 65.9595 80.7868 66.1287 81.6404C66.3033 82.5213 66.6531 83.3519 66.9598 84.1921C67.4733 85.6005 67.8868 87.2022 67.2454 88.6391C67.2593 88.6615 67.2757 88.6821 67.2896 88.7045C67.4642 88.9749 67.0096 89.1883 66.8362 88.9198C66.4233 88.2777 65.9201 87.6957 65.4412 87.1028L63.9685 85.2792C63.9425 85.247 63.9267 85.2137 63.9182 85.1803C63.917 85.1809 63.9152 85.1809 63.914 85.1809C62.5335 85.3555 61.1943 85.9254 59.8617 85.2313C59.4871 85.036 59.1415 84.7802 58.7492 84.6189C58.28 84.4262 57.8805 84.525 57.3961 84.5771C56.5188 84.6717 55.7119 84.2764 55.0177 83.7762C54.5873 83.4664 54.1847 83.1172 53.7415 82.825C53.3069 82.5389 52.8261 82.36 52.3617 82.1327C51.9276 81.9205 51.5499 81.6561 51.2486 81.2742C51.1001 81.0863 50.9721 80.8832 50.8418 80.6831C50.6872 80.4467 50.5575 80.1502 50.2483 80.1253C49.7657 80.0871 49.4201 79.9914 49.0691 79.6312C48.7066 79.2596 48.5235 78.7679 48.2203 78.3538C48.0385 78.1047 47.8257 77.9252 47.5395 77.8094C47.294 77.7106 47.0381 77.6433 46.8029 77.519C46.5586 77.3893 46.3694 77.1983 46.256 76.9661C46.1815 76.9601 46.1124 76.9206 46.0778 76.8255C45.8814 76.295 45.5722 75.8694 45.1569 75.4899C44.7883 75.1534 44.4724 74.8169 44.273 74.3525C43.9231 73.5377 43.9165 72.6241 43.583 71.805C43.4806 71.5528 43.3721 71.34 43.1144 71.22C42.9071 71.123 42.7246 71.0199 42.5694 70.8465C42.2517 70.4913 42.1329 70.0099 42.0547 69.5534C41.9631 69.0174 41.8419 68.5682 41.5636 68.0959C41.312 67.6679 41.0998 67.2338 40.9446 66.7615C40.5845 65.6691 40.4941 64.5172 40.4123 63.3762C40.3723 63.3634 40.3335 63.3422 40.3001 63.2986C39.8673 62.7372 39.4277 62.1509 39.2265 61.4604C39.0167 60.7402 39.2052 60.066 39.4126 59.3706C39.6278 58.6504 39.632 57.998 39.4611 57.2687C39.3028 56.5939 39.0585 55.9392 38.9488 55.2535C38.8742 54.7849 38.8857 54.3277 38.9633 53.873C37.8727 52.1622 36.719 50.4295 35.1324 49.143C33.4536 47.7826 31.3463 47.2503 29.4463 46.2893C28.7685 45.9468 28.1149 45.56 27.4814 45.1423C28.1222 46.2136 28.5939 47.3776 28.8739 48.6034C28.9188 48.7993 28.6539 48.9999 28.4878 48.8575C27.6505 48.1396 27.0649 47.2254 26.4725 46.3075C25.8548 45.3521 25.1958 44.4245 24.4288 43.5824C22.9277 41.9346 21.2048 40.4723 19.5745 38.9554C17.9164 37.4125 16.2589 35.8689 14.6008 34.326C13.7647 33.5476 12.9281 32.7691 12.0915 31.9901C11.6659 31.5942 11.2397 31.1977 10.8141 30.8012C10.4454 30.4587 10.0211 30.1331 9.70278 29.7421C9.48029 29.4692 9.34751 29.1176 9.49605 28.7769C9.64397 28.4398 10.0156 28.2458 10.3721 28.2294C10.7783 28.2106 11.1493 28.4271 11.4561 28.6732C11.872 29.0079 12.2642 29.3747 12.6662 29.7263L17.8321 34.2448C19.5381 35.7374 21.2448 37.2294 22.9508 38.722C24.6113 40.174 26.2337 41.7575 28.1464 42.8797C29.0861 43.4308 30.0962 43.8443 31.1086 44.2396C32.0392 44.6027 32.9717 44.9834 33.9453 45.2175C35.8587 45.6776 37.7508 45.2332 39.475 44.3548C39.8812 44.148 40.2753 43.9201 40.6615 43.6782C40.3014 42.3153 40.2274 40.8766 40.4711 39.4871C40.7263 38.0321 41.4939 36.6946 41.5139 35.2008C41.5327 33.8125 41.1168 32.4472 41.2398 31.0552C41.3696 29.5905 42.142 28.2604 42.1523 26.7781C42.1571 26.0427 42.0443 25.3085 42.1832 24.5785C42.316 23.8801 42.6306 23.2387 42.9701 22.6197C43.3739 21.8831 43.794 21.1538 44.2063 20.4214C44.3833 20.1074 44.5446 19.7654 44.7968 19.5023C45.0629 19.2259 45.3266 19.1925 45.6795 19.1192C46.0517 19.0416 46.1293 18.699 46.1978 18.3698C46.2663 18.0394 46.3142 17.7151 46.464 17.4095C46.7853 16.7554 47.3831 16.3104 47.9214 15.8454C48.5562 15.2961 49.0339 14.631 49.5329 13.9629C50.0391 13.2857 50.6054 12.6783 51.2407 12.1205C51.944 11.5027 52.7006 10.9231 53.3814 10.275C53.8495 8.07613 54.209 5.856 54.4575 3.62193C54.4842 3.38125 54.8286 3.29576 54.9347 3.53281C55.3997 4.57315 55.8525 5.60865 55.8325 6.71932C56.7195 8.14767 56.1005 9.7682 55.9932 11.3184C55.9314 12.2175 56.0884 13.1123 56.1296 14.009C56.1648 14.7814 56.126 15.5574 55.9495 16.3122C55.7677 17.093 55.3803 17.7211 54.9929 18.4098C54.8225 18.7124 54.6691 19.0422 54.6624 19.395C54.6552 19.803 54.8425 20.1995 54.9292 20.5924C55.2378 21.9916 54.9819 23.503 54.2508 24.7325C54.021 25.1187 53.6476 25.4443 53.6882 25.9257C53.724 26.3446 53.7725 26.752 53.7494 27.1733C53.7149 27.8057 53.5724 28.4204 53.3432 29.0055C53.5318 28.9254 53.7173 28.8363 53.904 28.763C54.7898 28.4168 55.7089 28.5574 56.5128 29.0503C57.2245 29.4868 57.7374 30.1464 58.1782 30.8485C58.2376 30.3544 58.2388 29.8542 58.1654 29.3601C58.1212 29.0588 58.0411 28.7757 58.3024 28.5483C58.5443 28.338 58.9202 28.2173 59.2191 28.1179C60.6141 27.6535 62.1073 27.8184 63.5005 28.2003C64.7973 28.5562 66.6755 29.0831 67.1266 30.5405C67.3697 31.3256 66.8077 31.7573 66.4087 32.3459C65.9741 32.9886 65.7479 33.7464 65.2999 34.3818C65.0513 34.7352 64.7476 35.0474 64.5196 35.4161C64.3068 35.7598 64.1674 36.1436 64.074 36.5358C63.9552 37.0354 63.9176 37.5501 63.9049 38.0648C64.3517 37.7471 64.807 37.4422 65.2562 37.1403C66.1487 36.5413 67.0738 35.9787 68.0687 35.564C68.1554 35.5282 68.2427 35.5027 68.33 35.47C68.3342 35.4397 68.3427 35.4088 68.3603 35.3779C69.3546 33.6276 70.943 32.349 72.6029 31.2601C73.9785 30.3568 75.5039 29.2965 77.1905 29.14C77.6434 29.0982 78.0671 29.1782 78.5158 29.1976C79.1111 29.2237 79.3894 28.6981 79.6258 28.2325C79.7659 27.956 80.1248 28.2028 80.0714 28.4532Z" fill="#7DABF8"/>
</g>
</svg>
