<svg width="1128" height="243" viewBox="0 0 1128 243" fill="none" xmlns="http://www.w3.org/2000/svg">
<rect x="4" y="30" width="187" height="187" fill="white" stroke="black" stroke-width="4"/>
<rect x="191" y="30" width="187" height="187" fill="white" stroke="black" stroke-width="4"/>
<rect x="378" y="30" width="187" height="187" fill="white" stroke="black" stroke-width="4"/>
<rect x="752" y="30" width="187" height="187" fill="white" stroke="black" stroke-width="4"/>
<rect x="939" y="30" width="187" height="187" fill="white" stroke="black" stroke-width="4"/>
<rect x="565" y="30" width="187" height="187" fill="white" stroke="black" stroke-width="4"/>
<path d="M293.736 97.176C295.101 97.3467 296.637 97.56 298.344 97.816C300.051 98.072 301.672 98.328 303.208 98.584C304.744 98.84 306.067 99.096 307.176 99.352C308.371 99.5227 309.224 99.608 309.736 99.608C310.248 99.6933 310.717 99.736 311.144 99.736C311.656 99.736 312.125 99.736 312.552 99.736C313.064 99.736 313.533 99.736 313.96 99.736C314.472 99.6507 314.984 99.5653 315.496 99.48C315.923 99.48 316.392 99.5227 316.904 99.608C317.416 99.6933 318.141 99.864 319.08 100.12C321.043 100.803 323.005 101.656 324.968 102.68C326.931 103.619 328.68 104.557 330.216 105.496C330.984 106.093 331.453 106.904 331.624 107.928C331.88 108.867 331.752 109.763 331.24 110.616C330.728 111.384 329.789 111.939 328.424 112.28C327.144 112.536 325.352 112.28 323.048 111.512C320.659 110.829 318.013 110.061 315.112 109.208C312.211 108.355 309.181 107.459 306.024 106.52C302.867 105.581 299.709 104.685 296.552 103.832C293.48 102.893 290.536 102.04 287.72 101.272C281.064 104.429 274.152 107.203 266.984 109.592C259.816 111.896 252.904 113.475 246.248 114.328C244.029 114.755 242.323 114.84 241.128 114.584C240.019 114.243 239.293 113.816 238.952 113.304C238.525 112.792 238.44 112.237 238.696 111.64C239.037 111.043 239.549 110.616 240.232 110.36C250.131 108.056 260.243 104.557 270.568 99.864C280.893 95.0853 290.536 89.5387 299.496 83.224C297.192 83.3093 294.717 83.4373 292.072 83.608C289.427 83.6933 286.909 83.8213 284.52 83.992C282.131 84.0773 279.955 84.2053 277.992 84.376C276.115 84.4613 274.749 84.5467 273.896 84.632C272.531 84.8027 270.952 85.144 269.16 85.656C267.368 86.168 266.344 86.4667 266.088 86.552C265.235 86.8933 264.381 87.1067 263.528 87.192C262.76 87.2773 261.736 87.1493 260.456 86.808C259.432 86.552 257.939 86.0827 255.976 85.4C254.099 84.632 252.307 83.6933 250.6 82.584C248.296 81.048 247.315 79.768 247.656 78.744C248.083 77.72 249.96 77.3787 253.288 77.72C254.312 77.8907 256.061 78.0613 258.536 78.232C261.011 78.3173 263.699 78.36 266.6 78.36C268.392 78.36 270.568 78.36 273.128 78.36C275.773 78.36 278.461 78.3173 281.192 78.232C283.923 78.232 286.568 78.1467 289.128 77.976C291.773 77.8053 294.077 77.592 296.04 77.336C296.979 77.336 297.789 77.2933 298.472 77.208C299.24 77.0373 299.837 76.8667 300.264 76.696C300.435 76.44 300.733 76.2693 301.16 76.184C301.587 76.0133 302.099 75.8853 302.696 75.8C304.488 75.7147 306.152 75.7147 307.688 75.8C309.309 75.8 311.016 75.8853 312.808 76.056C314.856 76.312 316.136 77.1653 316.648 78.616C317.16 80.0667 316.605 81.7307 314.984 83.608C314.728 83.9493 314.429 84.248 314.088 84.504C313.832 84.76 313.576 85.016 313.32 85.272C312.979 85.528 312.637 85.784 312.296 86.04C311.955 86.296 311.613 86.552 311.272 86.808C308.968 88.6 306.365 90.392 303.464 92.184C300.563 93.976 297.32 95.64 293.736 97.176ZM294.76 68.76C291.688 69.016 288.787 69.1867 286.056 69.272C283.411 69.3573 281.107 69.272 279.144 69.016C277.523 68.8453 275.645 68.3333 273.512 67.48C271.379 66.5413 269.16 65.0907 266.856 63.128C265.064 61.592 264.595 60.2693 265.448 59.16C266.387 58.0507 268.264 57.9653 271.08 58.904C274.408 59.928 277.907 60.568 281.576 60.824C285.331 60.9947 289.384 61.08 293.736 61.08C296.381 61.08 298.301 61.464 299.496 62.232C300.776 63 301.373 63.8533 301.288 64.792C301.203 65.6453 300.563 66.4987 299.368 67.352C298.259 68.2053 296.723 68.6747 294.76 68.76ZM292.968 130.072V149.272C293.053 158.488 292.456 165.869 291.176 171.416C289.981 176.963 288.36 179.736 286.312 179.736C285.288 179.821 284.435 179.224 283.752 177.944C283.069 176.664 282.515 174.957 282.088 172.824C281.661 170.691 281.363 168.216 281.192 165.4C281.021 162.669 280.936 159.853 280.936 156.952V130.072C276.84 130.243 272.872 130.456 269.032 130.712C265.192 130.883 262.12 131.053 259.816 131.224C259.048 131.309 258.323 131.437 257.64 131.608C256.957 131.693 256.36 131.821 255.848 131.992C255.251 132.163 254.696 132.376 254.184 132.632C253.672 132.803 253.16 132.931 252.648 133.016C251.368 133.443 249.96 133.741 248.424 133.912C246.973 133.997 245.053 133.741 242.664 133.144C241.128 132.888 239.336 132.376 237.288 131.608C235.24 130.84 233.021 129.816 230.632 128.536C228.072 127.256 226.963 125.976 227.304 124.696C227.731 123.331 229.608 122.861 232.936 123.288C236.776 123.8 240.915 124.141 245.352 124.312C249.789 124.483 254.056 124.568 258.152 124.568C261.139 124.568 264.893 124.568 269.416 124.568C273.939 124.568 278.632 124.525 283.496 124.44C288.36 124.44 293.096 124.397 297.704 124.312C302.397 124.227 306.408 124.141 309.736 124.056C311.528 124.056 313.235 123.843 314.856 123.416C316.477 122.904 317.587 122.52 318.184 122.264C318.867 122.008 319.549 121.795 320.232 121.624C321 121.453 321.725 121.325 322.408 121.24C324.627 121.069 326.803 121.027 328.936 121.112C331.155 121.112 333.416 121.197 335.72 121.368C338.28 121.624 340.243 122.136 341.608 122.904C343.059 123.587 343.784 124.653 343.784 126.104C343.699 127.811 342.888 128.963 341.352 129.56C339.901 130.072 337.981 130.328 335.592 130.328C333.117 130.328 330.131 130.328 326.632 130.328C323.219 130.243 319.592 130.2 315.752 130.2C311.912 130.2 307.987 130.2 303.976 130.2C300.051 130.115 296.381 130.072 292.968 130.072Z" fill="black"/>
<path d="M664.152 79.64V113.56C664.152 116.461 663.427 119.149 661.976 121.624C660.611 124.013 659.288 125.208 658.008 125.208C657.24 125.208 656.6 125.037 656.088 124.696C655.661 124.355 655.277 123.971 654.936 123.544C654.595 123.032 654.296 122.52 654.04 122.008C653.784 121.496 653.613 121.069 653.528 120.728L623.576 121.24C623.405 121.667 623.149 122.179 622.808 122.776C622.467 123.373 622.083 123.971 621.656 124.568C621.144 125.165 620.547 125.72 619.864 126.232C619.267 126.659 618.584 126.872 617.816 126.872C616.536 127.043 615.384 126.232 614.36 124.44C613.421 122.648 612.952 119.661 612.952 115.48V86.168C612.952 85.3147 612.867 84.376 612.696 83.352C612.525 82.2427 612.056 81.3467 611.288 80.664C610.52 79.9813 609.411 79.4267 607.96 79C606.509 78.488 605.059 78.104 603.608 77.848C603.096 77.848 602.712 77.592 602.456 77.08C602.285 76.568 602.243 76.0133 602.328 75.416C602.413 74.8187 602.627 74.264 602.968 73.752C603.395 73.24 603.992 72.9413 604.76 72.856C607.064 72.7707 610.008 72.8987 613.592 73.24C617.261 73.5813 620.376 74.0507 622.936 74.648C623.448 74.904 623.832 75.4587 624.088 76.312C624.429 77.08 624.472 77.8907 624.216 78.744C624.131 79 624.045 79.2987 623.96 79.64C623.96 79.9813 623.917 80.408 623.832 80.92C623.832 81.3467 623.789 81.816 623.704 82.328C623.704 82.84 623.704 83.352 623.704 83.864V89.368L653.4 88.728V81.176C653.4 80.3227 653.272 79.384 653.016 78.36C652.845 77.336 652.376 76.4827 651.608 75.8C650.925 75.1173 649.731 74.52 648.024 74.008C646.403 73.496 644.867 73.112 643.416 72.856C642.904 72.856 642.52 72.6 642.264 72.088C642.093 71.576 642.051 71.0213 642.136 70.424C642.221 69.8267 642.435 69.272 642.776 68.76C643.203 68.248 643.8 67.9493 644.568 67.864C646.872 67.864 649.944 68.0347 653.784 68.376C657.624 68.7173 660.824 69.1867 663.384 69.784C663.896 70.04 664.28 70.5947 664.536 71.448C664.877 72.216 664.92 73.0267 664.664 73.88C664.579 74.136 664.493 74.4773 664.408 74.904C664.408 75.3307 664.365 75.8 664.28 76.312C664.28 76.9093 664.237 77.5067 664.152 78.104C664.152 78.616 664.152 79.128 664.152 79.64ZM653.4 95.256L623.704 95.768V114.968L653.4 114.328V95.256ZM666.968 133.016C675.16 133.016 681.731 135.064 686.68 139.16C691.715 143.171 694.232 148.632 694.232 155.544C694.232 162.2 691.715 167.619 686.68 171.8C681.731 175.981 675.16 178.072 666.968 178.072C662.957 178.072 659.288 177.517 655.96 176.408C652.632 175.384 649.731 173.848 647.256 171.8C644.867 169.837 642.989 167.448 641.624 164.632C640.259 161.901 639.576 158.872 639.576 155.544C639.576 152.131 640.259 149.059 641.624 146.328C642.989 143.512 644.909 141.123 647.384 139.16C649.773 137.197 652.632 135.704 655.96 134.68C659.373 133.571 663.043 133.016 666.968 133.016ZM666.968 140.44C661.933 140.44 657.923 141.933 654.936 144.92C651.949 147.907 650.456 151.576 650.456 155.928C650.456 160.024 651.949 163.48 654.936 166.296C657.923 169.197 661.933 170.648 666.968 170.648C672.003 170.648 675.928 169.197 678.744 166.296C681.645 163.48 683.096 160.024 683.096 155.928C683.096 151.576 681.645 147.907 678.744 144.92C675.928 141.933 672.003 140.44 666.968 140.44ZM693.72 71.832V93.976C695.512 93.8907 697.304 93.6773 699.096 93.336C700.973 92.9947 702.552 92.312 703.832 91.288C704.259 90.6907 705.667 90.3493 708.056 90.264C710.531 90.1787 712.749 90.264 714.712 90.52C716.845 91.032 718.381 91.8 719.32 92.824C720.259 93.7627 720.643 94.744 720.472 95.768C720.301 96.792 719.576 97.688 718.296 98.456C717.101 99.1387 715.437 99.48 713.304 99.48H693.72V112.408C693.72 118.979 692.995 124.355 691.544 128.536C690.093 132.717 688.6 134.808 687.064 134.808C685.528 134.893 684.419 133.357 683.736 130.2C683.139 126.957 682.84 122.989 682.84 118.296V74.136C682.84 72.088 682.669 70.3813 682.328 69.016C681.987 67.6507 681.261 66.584 680.152 65.816C678.701 64.792 676.995 63.9813 675.032 63.384C673.155 62.7867 671.32 62.3173 669.528 61.976C668.845 61.8907 668.376 61.5493 668.12 60.952C667.864 60.3547 667.821 59.7573 667.992 59.16C668.077 58.5627 668.376 58.0507 668.888 57.624C669.4 57.112 670.125 56.856 671.064 56.856C674.307 56.9413 678.104 57.2827 682.456 57.88C686.808 58.392 690.52 59.1173 693.592 60.056C694.104 60.312 694.531 60.824 694.872 61.592C695.213 62.2747 695.256 63.0853 695 64.024C694.573 65.304 694.232 66.6267 693.976 67.992C693.805 69.272 693.72 70.552 693.72 71.832Z" fill="black"/>
<path d="M452.192 69.912C459.701 69.912 466.016 71.8747 471.136 75.8C476.256 79.64 479.328 84.888 480.352 91.544C480.864 91.544 481.461 91.5867 482.144 91.672C482.827 91.672 483.509 91.672 484.192 91.672C484.96 91.672 485.685 91.672 486.368 91.672C487.136 91.672 487.861 91.672 488.544 91.672C490.251 91.672 492.341 91.672 494.816 91.672C497.291 91.5867 499.851 91.5013 502.496 91.416V74.136C502.496 72.088 502.325 70.3813 501.984 69.016C501.643 67.6507 500.917 66.584 499.808 65.816C498.357 64.792 496.651 63.9813 494.688 63.384C492.811 62.7867 490.976 62.3173 489.184 61.976C488.501 61.8907 488.032 61.5493 487.776 60.952C487.52 60.3547 487.477 59.7573 487.648 59.16C487.733 58.5627 488.032 58.0507 488.544 57.624C489.056 57.112 489.781 56.856 490.72 56.856C493.963 56.9413 497.803 57.2827 502.24 57.88C506.677 58.392 510.432 59.1173 513.504 60.056C514.016 60.312 514.443 60.824 514.784 61.592C515.125 62.2747 515.168 63.0853 514.912 64.024C514.485 65.304 514.144 66.6267 513.888 67.992C513.717 69.272 513.589 70.552 513.504 71.832V107.544C513.504 114.2 512.779 119.661 511.328 123.928C509.877 128.109 508.384 130.2 506.848 130.2C505.312 130.285 504.203 128.749 503.52 125.592C502.837 122.349 502.496 118.381 502.496 113.688V97.304C501.472 97.304 500.619 97.3467 499.936 97.432C499.253 97.432 498.784 97.432 498.528 97.432C497.589 97.6027 496.48 97.8587 495.2 98.2C493.92 98.456 492.64 98.84 491.36 99.352C489.568 100.12 488.032 100.504 486.752 100.504C485.472 100.504 484.235 100.248 483.04 99.736C482.869 99.736 482.656 99.6933 482.4 99.608C482.229 99.5227 482.016 99.4373 481.76 99.352C481.589 99.2667 481.376 99.1813 481.12 99.096C480.949 98.9253 480.779 98.7547 480.608 98.584C480.608 98.584 480.565 98.584 480.48 98.584C480.48 98.584 480.48 98.5413 480.48 98.456C479.712 105.368 476.725 110.915 471.52 115.096C466.4 119.277 459.957 121.368 452.192 121.368C448.011 121.368 444.171 120.771 440.672 119.576C437.259 118.296 434.272 116.547 431.712 114.328C429.237 112.109 427.275 109.421 425.824 106.264C424.459 103.021 423.776 99.48 423.776 95.64C423.776 91.7147 424.459 88.1733 425.824 85.016C427.275 81.8587 429.237 79.1707 431.712 76.952C434.272 74.7333 437.259 73.0267 440.672 71.832C444.171 70.552 448.011 69.912 452.192 69.912ZM452.192 77.08C446.816 77.08 442.592 78.8293 439.52 82.328C436.448 85.8267 434.912 90.2213 434.912 95.512C434.912 100.717 436.448 105.112 439.52 108.696C442.592 112.195 446.816 113.944 452.192 113.944C457.483 113.944 461.664 112.195 464.736 108.696C467.893 105.112 469.472 100.717 469.472 95.512C469.472 90.2213 467.893 85.8267 464.736 82.328C461.664 78.8293 457.483 77.08 452.192 77.08ZM512.736 159.128C512.736 161.859 512.48 164.376 511.968 166.68C511.541 169.069 511.029 171.16 510.432 172.952C509.749 174.744 508.981 176.152 508.128 177.176C507.36 178.285 506.635 178.84 505.952 178.84C505.269 178.925 504.629 178.499 504.032 177.56C503.52 176.707 503.051 175.597 502.624 174.232C502.197 172.781 501.856 171.16 501.6 169.368C501.429 167.576 501.344 165.741 501.344 163.864V140.952C499.381 141.037 497.035 141.123 494.304 141.208C491.659 141.293 488.885 141.379 485.984 141.464C483.168 141.549 480.352 141.635 477.536 141.72C474.72 141.805 472.203 141.891 469.984 141.976C468.96 142.061 468.064 142.189 467.296 142.36C466.528 142.531 465.803 142.744 465.12 143C464.352 143.171 463.627 143.384 462.944 143.64C462.347 143.896 461.707 144.109 461.024 144.28C460 144.621 458.805 144.792 457.44 144.792C456.075 144.792 454.453 144.493 452.576 143.896C451.296 143.555 449.717 142.957 447.84 142.104C445.963 141.165 444.043 140.141 442.08 139.032C440.629 138.179 440.032 137.155 440.288 135.96C440.544 134.68 442.123 134.253 445.024 134.68C446.56 134.936 448.864 135.149 451.936 135.32C455.093 135.491 458.08 135.576 460.896 135.576C463.883 135.661 466.955 135.704 470.112 135.704C473.355 135.704 476.427 135.661 479.328 135.576C482.315 135.491 485.088 135.405 487.648 135.32C490.208 135.149 492.427 134.979 494.304 134.808C494.731 134.808 495.115 134.808 495.456 134.808C495.797 134.723 496.139 134.637 496.48 134.552C496.736 134.552 496.992 134.552 497.248 134.552C497.504 134.467 497.717 134.381 497.888 134.296C498.229 134.211 498.528 134.125 498.784 134.04C499.04 133.955 499.296 133.869 499.552 133.784C499.808 133.699 500.064 133.613 500.32 133.528C500.576 133.443 500.875 133.357 501.216 133.272C502.752 133.187 504.373 133.144 506.08 133.144C507.872 133.144 509.451 133.187 510.816 133.272C512.352 133.443 513.205 133.955 513.376 134.808C513.632 135.576 513.717 136.387 513.632 137.24C513.547 137.667 513.461 138.093 513.376 138.52C513.291 138.861 513.205 139.245 513.12 139.672C512.949 140.184 512.821 140.653 512.736 141.08C512.736 141.507 512.736 141.976 512.736 142.488V159.128Z" fill="black"/>
<path d="M831.312 175C829.52 175 827.813 174.915 826.192 174.744C824.656 174.659 823.248 174.317 821.968 173.72C820.773 173.123 819.835 172.227 819.152 171.032C818.469 169.923 818.128 168.344 818.128 166.296V160.536C818.128 158.744 817.488 157.507 816.208 156.824C815.013 156.056 813.392 155.587 811.344 155.416C810.491 155.416 809.851 155.16 809.424 154.648C809.083 154.051 808.955 153.453 809.04 152.856C809.125 152.173 809.381 151.576 809.808 151.064C810.235 150.552 810.875 150.253 811.728 150.168C813.605 150.168 816.379 150.253 820.048 150.424C823.803 150.595 827.259 150.893 830.416 151.32C831.952 151.405 834.427 151.448 837.84 151.448C841.253 151.448 844.88 151.405 848.72 151.32C852.56 151.32 856.187 151.32 859.6 151.32C863.099 151.235 865.659 151.149 867.28 151.064L867.92 138.776C866.555 138.776 864.293 138.819 861.136 138.904C858.064 138.904 854.864 138.904 851.536 138.904C848.208 138.904 845.093 138.947 842.192 139.032C839.376 139.032 837.541 139.032 836.688 139.032C835.152 139.203 833.445 139.587 831.568 140.184C829.776 140.696 828.667 141.037 828.24 141.208C827.557 141.464 826.661 141.677 825.552 141.848C824.528 142.019 823.248 141.805 821.712 141.208C820.432 140.781 818.811 140.099 816.848 139.16C814.885 138.136 813.264 137.112 811.984 136.088C810.789 135.149 810.363 134.211 810.704 133.272C811.045 132.333 812.112 131.992 813.904 132.248C816.293 132.589 819.024 132.888 822.096 133.144C825.253 133.315 828.24 133.4 831.056 133.4C831.483 133.4 832.08 133.443 832.848 133.528C833.701 133.528 834.64 133.528 835.664 133.528C836.773 133.528 837.925 133.528 839.12 133.528C840.4 133.528 841.765 133.528 843.216 133.528C842.875 132.504 842.619 131.395 842.448 130.2C842.277 128.92 842.192 127.683 842.192 126.488V120.6C837.84 120.685 833.573 120.856 829.392 121.112C825.296 121.283 822.096 121.496 819.792 121.752C819.024 121.837 818.299 121.965 817.616 122.136C816.933 122.221 816.293 122.349 815.696 122.52C815.184 122.691 814.629 122.904 814.032 123.16C813.52 123.331 813.008 123.459 812.496 123.544C811.301 123.971 809.936 124.269 808.4 124.44C806.949 124.525 804.987 124.269 802.512 123.672C800.976 123.416 799.184 122.904 797.136 122.136C795.088 121.368 792.912 120.344 790.608 119.064C788.133 117.784 787.024 116.504 787.28 115.224C787.621 113.859 789.456 113.389 792.784 113.816C796.624 114.328 800.763 114.669 805.2 114.84C809.723 115.011 814.032 115.096 818.128 115.096C821.115 115.096 824.955 115.096 829.648 115.096C834.427 115.096 839.376 115.053 844.496 114.968C849.616 114.968 854.608 114.925 859.472 114.84C864.336 114.755 868.432 114.669 871.76 114.584C873.552 114.584 875.259 114.371 876.88 113.944C878.501 113.432 879.653 113.048 880.336 112.792C880.933 112.536 881.616 112.323 882.384 112.152C883.152 111.981 883.835 111.853 884.432 111.768C886.651 111.597 888.869 111.555 891.088 111.64C893.307 111.64 895.525 111.725 897.744 111.896C900.304 112.152 902.267 112.664 903.632 113.432C905.083 114.115 905.808 115.181 905.808 116.632C905.723 118.339 904.912 119.491 903.376 120.088C901.925 120.6 900.005 120.856 897.616 120.856C895.227 120.856 892.24 120.856 888.656 120.856C885.157 120.771 881.445 120.728 877.52 120.728C873.509 120.728 869.456 120.728 865.36 120.728C861.349 120.643 857.637 120.6 854.224 120.6C854.224 123.672 854.011 126.275 853.584 128.408C853.243 130.541 852.773 132.248 852.176 133.528C853.883 133.528 855.461 133.528 856.912 133.528C858.448 133.443 859.813 133.357 861.008 133.272C862.288 133.187 863.355 133.059 864.208 132.888C865.147 132.717 865.744 132.547 866 132.376C866.085 132.376 866.213 132.333 866.384 132.248C866.64 132.163 866.896 132.035 867.152 131.864C867.323 131.779 867.493 131.693 867.664 131.608C867.92 131.523 868.176 131.437 868.432 131.352C870.139 131.181 872.101 131.139 874.32 131.224C876.539 131.224 878.288 131.352 879.568 131.608C880.848 131.949 881.573 132.547 881.744 133.4C881.915 134.253 881.872 135.064 881.616 135.832C881.36 136.344 881.104 136.984 880.848 137.752C880.592 138.435 880.379 139.117 880.208 139.8L877.136 150.936C878.587 151.021 879.696 151.32 880.464 151.832C881.232 152.344 881.616 152.984 881.616 153.752C881.616 154.776 881.275 155.587 880.592 156.184C879.909 156.696 878.331 156.952 875.856 156.952C873.979 156.952 870.821 156.995 866.384 157.08C862.032 157.08 857.381 157.123 852.432 157.208C847.568 157.293 842.96 157.336 838.608 157.336C834.341 157.336 831.44 157.336 829.904 157.336V165.144C829.904 166.595 830.331 167.576 831.184 168.088C832.123 168.685 833.317 168.984 834.768 168.984L858.96 168.728C860.496 168.728 862.075 168.643 863.696 168.472C865.317 168.301 866.896 167.832 868.432 167.064C868.859 166.808 869.328 166.552 869.84 166.296C870.352 166.125 870.949 165.997 871.632 165.912C873.339 165.827 875.344 165.784 877.648 165.784C879.952 165.869 881.744 165.955 883.024 166.04C884.731 166.296 886.011 166.851 886.864 167.704C887.803 168.643 888.272 169.624 888.272 170.648C888.187 171.672 887.632 172.568 886.608 173.336C885.584 174.189 884.048 174.616 882 174.616L831.312 175ZM846.8 60.184C850.981 60.184 854.864 60.7813 858.448 61.976C862.032 63.0853 865.104 64.7067 867.664 66.84C870.309 68.9733 872.357 71.4907 873.808 74.392C875.259 77.2933 875.984 80.536 875.984 84.12C875.984 91.2027 873.253 96.792 867.792 100.888C862.331 104.899 855.376 106.904 846.928 106.904C842.661 106.904 838.736 106.392 835.152 105.368C831.653 104.344 828.624 102.851 826.064 100.888C823.504 98.9253 821.499 96.536 820.048 93.72C818.597 90.904 817.872 87.704 817.872 84.12C817.872 80.536 818.555 77.2933 819.92 74.392C821.371 71.4907 823.376 68.9733 825.936 66.84C828.496 64.7067 831.525 63.0853 835.024 61.976C838.608 60.7813 842.533 60.184 846.8 60.184ZM846.8 67.352C841.083 67.352 836.688 69.016 833.616 72.344C830.629 75.5867 829.136 79.5973 829.136 84.376C829.136 88.8987 830.629 92.696 833.616 95.768C836.688 98.7547 841.083 100.248 846.8 100.248C852.432 100.248 856.827 98.7547 859.984 95.768C863.141 92.696 864.72 88.8987 864.72 84.376C864.72 79.5973 863.141 75.5867 859.984 72.344C856.827 69.016 852.432 67.352 846.8 67.352Z" fill="black"/>
<line x1="2" y1="2" x2="1128" y2="2" stroke="black" stroke-width="4"/>
<line y1="241" x2="1128" y2="241" stroke="black" stroke-width="4"/>
</svg>
