<svg width="380" height="432" viewBox="0 0 380 432" fill="none" xmlns="http://www.w3.org/2000/svg">
<rect x="2" y="30" width="187" height="187" fill="white" stroke="black" stroke-width="4"/>
<rect x="190" y="30" width="187" height="187" fill="white" stroke="black" stroke-width="4"/>
<rect x="2" y="218" width="187" height="187" fill="white" stroke="black" stroke-width="4"/>
<rect x="190" y="218" width="187" height="187" fill="white" stroke="black" stroke-width="4"/>
<path d="M99.736 101.176C101.101 101.347 102.637 101.56 104.344 101.816C106.051 102.072 107.672 102.328 109.208 102.584C110.744 102.84 112.067 103.096 113.176 103.352C114.371 103.523 115.224 103.608 115.736 103.608C116.248 103.693 116.717 103.736 117.144 103.736C117.656 103.736 118.125 103.736 118.552 103.736C119.064 103.736 119.533 103.736 119.96 103.736C120.472 103.651 120.984 103.565 121.496 103.48C121.923 103.48 122.392 103.523 122.904 103.608C123.416 103.693 124.141 103.864 125.08 104.12C127.043 104.803 129.005 105.656 130.968 106.68C132.931 107.619 134.68 108.557 136.216 109.496C136.984 110.093 137.453 110.904 137.624 111.928C137.88 112.867 137.752 113.763 137.24 114.616C136.728 115.384 135.789 115.939 134.424 116.28C133.144 116.536 131.352 116.28 129.048 115.512C126.659 114.829 124.013 114.061 121.112 113.208C118.211 112.355 115.181 111.459 112.024 110.52C108.867 109.581 105.709 108.685 102.552 107.832C99.48 106.893 96.536 106.04 93.72 105.272C87.064 108.429 80.152 111.203 72.984 113.592C65.816 115.896 58.904 117.475 52.248 118.328C50.0293 118.755 48.3227 118.84 47.128 118.584C46.0187 118.243 45.2933 117.816 44.952 117.304C44.5253 116.792 44.44 116.237 44.696 115.64C45.0373 115.043 45.5493 114.616 46.232 114.36C56.1307 112.056 66.2427 108.557 76.568 103.864C86.8933 99.0853 96.536 93.5387 105.496 87.224C103.192 87.3093 100.717 87.4373 98.072 87.608C95.4267 87.6933 92.9093 87.8213 90.52 87.992C88.1307 88.0773 85.9547 88.2053 83.992 88.376C82.1147 88.4613 80.7493 88.5467 79.896 88.632C78.5307 88.8027 76.952 89.144 75.16 89.656C73.368 90.168 72.344 90.4667 72.088 90.552C71.2347 90.8933 70.3813 91.1067 69.528 91.192C68.76 91.2773 67.736 91.1493 66.456 90.808C65.432 90.552 63.9387 90.0827 61.976 89.4C60.0987 88.632 58.3067 87.6933 56.6 86.584C54.296 85.048 53.3147 83.768 53.656 82.744C54.0827 81.72 55.96 81.3787 59.288 81.72C60.312 81.8907 62.0613 82.0613 64.536 82.232C67.0107 82.3173 69.6987 82.36 72.6 82.36C74.392 82.36 76.568 82.36 79.128 82.36C81.7733 82.36 84.4613 82.3173 87.192 82.232C89.9227 82.232 92.568 82.1467 95.128 81.976C97.7733 81.8053 100.077 81.592 102.04 81.336C102.979 81.336 103.789 81.2933 104.472 81.208C105.24 81.0373 105.837 80.8667 106.264 80.696C106.435 80.44 106.733 80.2693 107.16 80.184C107.587 80.0133 108.099 79.8853 108.696 79.8C110.488 79.7147 112.152 79.7147 113.688 79.8C115.309 79.8 117.016 79.8853 118.808 80.056C120.856 80.312 122.136 81.1653 122.648 82.616C123.16 84.0667 122.605 85.7307 120.984 87.608C120.728 87.9493 120.429 88.248 120.088 88.504C119.832 88.76 119.576 89.016 119.32 89.272C118.979 89.528 118.637 89.784 118.296 90.04C117.955 90.296 117.613 90.552 117.272 90.808C114.968 92.6 112.365 94.392 109.464 96.184C106.563 97.976 103.32 99.64 99.736 101.176ZM100.76 72.76C97.688 73.016 94.7867 73.1867 92.056 73.272C89.4107 73.3573 87.1067 73.272 85.144 73.016C83.5227 72.8453 81.6453 72.3333 79.512 71.48C77.3787 70.5413 75.16 69.0907 72.856 67.128C71.064 65.592 70.5947 64.2693 71.448 63.16C72.3867 62.0507 74.264 61.9653 77.08 62.904C80.408 63.928 83.9067 64.568 87.576 64.824C91.3307 64.9947 95.384 65.08 99.736 65.08C102.381 65.08 104.301 65.464 105.496 66.232C106.776 67 107.373 67.8533 107.288 68.792C107.203 69.6453 106.563 70.4987 105.368 71.352C104.259 72.2053 102.723 72.6747 100.76 72.76ZM98.968 134.072V153.272C99.0533 162.488 98.456 169.869 97.176 175.416C95.9813 180.963 94.36 183.736 92.312 183.736C91.288 183.821 90.4347 183.224 89.752 181.944C89.0693 180.664 88.5147 178.957 88.088 176.824C87.6613 174.691 87.3627 172.216 87.192 169.4C87.0213 166.669 86.936 163.853 86.936 160.952V134.072C82.84 134.243 78.872 134.456 75.032 134.712C71.192 134.883 68.12 135.053 65.816 135.224C65.048 135.309 64.3227 135.437 63.64 135.608C62.9573 135.693 62.36 135.821 61.848 135.992C61.2507 136.163 60.696 136.376 60.184 136.632C59.672 136.803 59.16 136.931 58.648 137.016C57.368 137.443 55.96 137.741 54.424 137.912C52.9733 137.997 51.0533 137.741 48.664 137.144C47.128 136.888 45.336 136.376 43.288 135.608C41.24 134.84 39.0213 133.816 36.632 132.536C34.072 131.256 32.9627 129.976 33.304 128.696C33.7307 127.331 35.608 126.861 38.936 127.288C42.776 127.8 46.9147 128.141 51.352 128.312C55.7893 128.483 60.056 128.568 64.152 128.568C67.1387 128.568 70.8933 128.568 75.416 128.568C79.9387 128.568 84.632 128.525 89.496 128.44C94.36 128.44 99.096 128.397 103.704 128.312C108.397 128.227 112.408 128.141 115.736 128.056C117.528 128.056 119.235 127.843 120.856 127.416C122.477 126.904 123.587 126.52 124.184 126.264C124.867 126.008 125.549 125.795 126.232 125.624C127 125.453 127.725 125.325 128.408 125.24C130.627 125.069 132.803 125.027 134.936 125.112C137.155 125.112 139.416 125.197 141.72 125.368C144.28 125.624 146.243 126.136 147.608 126.904C149.059 127.587 149.784 128.653 149.784 130.104C149.699 131.811 148.888 132.963 147.352 133.56C145.901 134.072 143.981 134.328 141.592 134.328C139.117 134.328 136.131 134.328 132.632 134.328C129.219 134.243 125.592 134.2 121.752 134.2C117.912 134.2 113.987 134.2 109.976 134.2C106.051 134.115 102.381 134.072 98.968 134.072Z" fill="black"/>
<path d="M96.152 272.64V306.56C96.152 309.461 95.4267 312.149 93.976 314.624C92.6107 317.013 91.288 318.208 90.008 318.208C89.24 318.208 88.6 318.037 88.088 317.696C87.6613 317.355 87.2773 316.971 86.936 316.544C86.5947 316.032 86.296 315.52 86.04 315.008C85.784 314.496 85.6133 314.069 85.528 313.728L55.576 314.24C55.4053 314.667 55.1493 315.179 54.808 315.776C54.4667 316.373 54.0827 316.971 53.656 317.568C53.144 318.165 52.5467 318.72 51.864 319.232C51.2667 319.659 50.584 319.872 49.816 319.872C48.536 320.043 47.384 319.232 46.36 317.44C45.4213 315.648 44.952 312.661 44.952 308.48V279.168C44.952 278.315 44.8667 277.376 44.696 276.352C44.5253 275.243 44.056 274.347 43.288 273.664C42.52 272.981 41.4107 272.427 39.96 272C38.5093 271.488 37.0587 271.104 35.608 270.848C35.096 270.848 34.712 270.592 34.456 270.08C34.2853 269.568 34.2427 269.013 34.328 268.416C34.4133 267.819 34.6267 267.264 34.968 266.752C35.3947 266.24 35.992 265.941 36.76 265.856C39.064 265.771 42.008 265.899 45.592 266.24C49.2613 266.581 52.376 267.051 54.936 267.648C55.448 267.904 55.832 268.459 56.088 269.312C56.4293 270.08 56.472 270.891 56.216 271.744C56.1307 272 56.0453 272.299 55.96 272.64C55.96 272.981 55.9173 273.408 55.832 273.92C55.832 274.347 55.7893 274.816 55.704 275.328C55.704 275.84 55.704 276.352 55.704 276.864V282.368L85.4 281.728V274.176C85.4 273.323 85.272 272.384 85.016 271.36C84.8453 270.336 84.376 269.483 83.608 268.8C82.9253 268.117 81.7307 267.52 80.024 267.008C78.4027 266.496 76.8667 266.112 75.416 265.856C74.904 265.856 74.52 265.6 74.264 265.088C74.0933 264.576 74.0507 264.021 74.136 263.424C74.2213 262.827 74.4347 262.272 74.776 261.76C75.2027 261.248 75.8 260.949 76.568 260.864C78.872 260.864 81.944 261.035 85.784 261.376C89.624 261.717 92.824 262.187 95.384 262.784C95.896 263.04 96.28 263.595 96.536 264.448C96.8773 265.216 96.92 266.027 96.664 266.88C96.5787 267.136 96.4933 267.477 96.408 267.904C96.408 268.331 96.3653 268.8 96.28 269.312C96.28 269.909 96.2373 270.507 96.152 271.104C96.152 271.616 96.152 272.128 96.152 272.64ZM85.4 288.256L55.704 288.768V307.968L85.4 307.328V288.256ZM98.968 326.016C107.16 326.016 113.731 328.064 118.68 332.16C123.715 336.171 126.232 341.632 126.232 348.544C126.232 355.2 123.715 360.619 118.68 364.8C113.731 368.981 107.16 371.072 98.968 371.072C94.9573 371.072 91.288 370.517 87.96 369.408C84.632 368.384 81.7307 366.848 79.256 364.8C76.8667 362.837 74.9893 360.448 73.624 357.632C72.2587 354.901 71.576 351.872 71.576 348.544C71.576 345.131 72.2587 342.059 73.624 339.328C74.9893 336.512 76.9093 334.123 79.384 332.16C81.7733 330.197 84.632 328.704 87.96 327.68C91.3733 326.571 95.0427 326.016 98.968 326.016ZM98.968 333.44C93.9333 333.44 89.9227 334.933 86.936 337.92C83.9493 340.907 82.456 344.576 82.456 348.928C82.456 353.024 83.9493 356.48 86.936 359.296C89.9227 362.197 93.9333 363.648 98.968 363.648C104.003 363.648 107.928 362.197 110.744 359.296C113.645 356.48 115.096 353.024 115.096 348.928C115.096 344.576 113.645 340.907 110.744 337.92C107.928 334.933 104.003 333.44 98.968 333.44ZM125.72 264.832V286.976C127.512 286.891 129.304 286.677 131.096 286.336C132.973 285.995 134.552 285.312 135.832 284.288C136.259 283.691 137.667 283.349 140.056 283.264C142.531 283.179 144.749 283.264 146.712 283.52C148.845 284.032 150.381 284.8 151.32 285.824C152.259 286.763 152.643 287.744 152.472 288.768C152.301 289.792 151.576 290.688 150.296 291.456C149.101 292.139 147.437 292.48 145.304 292.48H125.72V305.408C125.72 311.979 124.995 317.355 123.544 321.536C122.093 325.717 120.6 327.808 119.064 327.808C117.528 327.893 116.419 326.357 115.736 323.2C115.139 319.957 114.84 315.989 114.84 311.296V267.136C114.84 265.088 114.669 263.381 114.328 262.016C113.987 260.651 113.261 259.584 112.152 258.816C110.701 257.792 108.995 256.981 107.032 256.384C105.155 255.787 103.32 255.317 101.528 254.976C100.845 254.891 100.376 254.549 100.12 253.952C99.864 253.355 99.8213 252.757 99.992 252.16C100.077 251.563 100.376 251.051 100.888 250.624C101.4 250.112 102.125 249.856 103.064 249.856C106.307 249.941 110.104 250.283 114.456 250.88C118.808 251.392 122.52 252.117 125.592 253.056C126.104 253.312 126.531 253.824 126.872 254.592C127.213 255.275 127.256 256.085 127 257.024C126.573 258.304 126.232 259.627 125.976 260.992C125.805 262.272 125.72 263.552 125.72 264.832Z" fill="black"/>
<path d="M260.192 73.912C267.701 73.912 274.016 75.8747 279.136 79.8C284.256 83.64 287.328 88.888 288.352 95.544C288.864 95.544 289.461 95.5867 290.144 95.672C290.827 95.672 291.509 95.672 292.192 95.672C292.96 95.672 293.685 95.672 294.368 95.672C295.136 95.672 295.861 95.672 296.544 95.672C298.251 95.672 300.341 95.672 302.816 95.672C305.291 95.5867 307.851 95.5013 310.496 95.416V78.136C310.496 76.088 310.325 74.3813 309.984 73.016C309.643 71.6507 308.917 70.584 307.808 69.816C306.357 68.792 304.651 67.9813 302.688 67.384C300.811 66.7867 298.976 66.3173 297.184 65.976C296.501 65.8907 296.032 65.5493 295.776 64.952C295.52 64.3547 295.477 63.7573 295.648 63.16C295.733 62.5627 296.032 62.0507 296.544 61.624C297.056 61.112 297.781 60.856 298.72 60.856C301.963 60.9413 305.803 61.2827 310.24 61.88C314.677 62.392 318.432 63.1173 321.504 64.056C322.016 64.312 322.443 64.824 322.784 65.592C323.125 66.2747 323.168 67.0853 322.912 68.024C322.485 69.304 322.144 70.6267 321.888 71.992C321.717 73.272 321.589 74.552 321.504 75.832V111.544C321.504 118.2 320.779 123.661 319.328 127.928C317.877 132.109 316.384 134.2 314.848 134.2C313.312 134.285 312.203 132.749 311.52 129.592C310.837 126.349 310.496 122.381 310.496 117.688V101.304C309.472 101.304 308.619 101.347 307.936 101.432C307.253 101.432 306.784 101.432 306.528 101.432C305.589 101.603 304.48 101.859 303.2 102.2C301.92 102.456 300.64 102.84 299.36 103.352C297.568 104.12 296.032 104.504 294.752 104.504C293.472 104.504 292.235 104.248 291.04 103.736C290.869 103.736 290.656 103.693 290.4 103.608C290.229 103.523 290.016 103.437 289.76 103.352C289.589 103.267 289.376 103.181 289.12 103.096C288.949 102.925 288.779 102.755 288.608 102.584C288.608 102.584 288.565 102.584 288.48 102.584C288.48 102.584 288.48 102.541 288.48 102.456C287.712 109.368 284.725 114.915 279.52 119.096C274.4 123.277 267.957 125.368 260.192 125.368C256.011 125.368 252.171 124.771 248.672 123.576C245.259 122.296 242.272 120.547 239.712 118.328C237.237 116.109 235.275 113.421 233.824 110.264C232.459 107.021 231.776 103.48 231.776 99.64C231.776 95.7147 232.459 92.1733 233.824 89.016C235.275 85.8587 237.237 83.1707 239.712 80.952C242.272 78.7333 245.259 77.0267 248.672 75.832C252.171 74.552 256.011 73.912 260.192 73.912ZM260.192 81.08C254.816 81.08 250.592 82.8293 247.52 86.328C244.448 89.8267 242.912 94.2213 242.912 99.512C242.912 104.717 244.448 109.112 247.52 112.696C250.592 116.195 254.816 117.944 260.192 117.944C265.483 117.944 269.664 116.195 272.736 112.696C275.893 109.112 277.472 104.717 277.472 99.512C277.472 94.2213 275.893 89.8267 272.736 86.328C269.664 82.8293 265.483 81.08 260.192 81.08ZM320.736 163.128C320.736 165.859 320.48 168.376 319.968 170.68C319.541 173.069 319.029 175.16 318.432 176.952C317.749 178.744 316.981 180.152 316.128 181.176C315.36 182.285 314.635 182.84 313.952 182.84C313.269 182.925 312.629 182.499 312.032 181.56C311.52 180.707 311.051 179.597 310.624 178.232C310.197 176.781 309.856 175.16 309.6 173.368C309.429 171.576 309.344 169.741 309.344 167.864V144.952C307.381 145.037 305.035 145.123 302.304 145.208C299.659 145.293 296.885 145.379 293.984 145.464C291.168 145.549 288.352 145.635 285.536 145.72C282.72 145.805 280.203 145.891 277.984 145.976C276.96 146.061 276.064 146.189 275.296 146.36C274.528 146.531 273.803 146.744 273.12 147C272.352 147.171 271.627 147.384 270.944 147.64C270.347 147.896 269.707 148.109 269.024 148.28C268 148.621 266.805 148.792 265.44 148.792C264.075 148.792 262.453 148.493 260.576 147.896C259.296 147.555 257.717 146.957 255.84 146.104C253.963 145.165 252.043 144.141 250.08 143.032C248.629 142.179 248.032 141.155 248.288 139.96C248.544 138.68 250.123 138.253 253.024 138.68C254.56 138.936 256.864 139.149 259.936 139.32C263.093 139.491 266.08 139.576 268.896 139.576C271.883 139.661 274.955 139.704 278.112 139.704C281.355 139.704 284.427 139.661 287.328 139.576C290.315 139.491 293.088 139.405 295.648 139.32C298.208 139.149 300.427 138.979 302.304 138.808C302.731 138.808 303.115 138.808 303.456 138.808C303.797 138.723 304.139 138.637 304.48 138.552C304.736 138.552 304.992 138.552 305.248 138.552C305.504 138.467 305.717 138.381 305.888 138.296C306.229 138.211 306.528 138.125 306.784 138.04C307.04 137.955 307.296 137.869 307.552 137.784C307.808 137.699 308.064 137.613 308.32 137.528C308.576 137.443 308.875 137.357 309.216 137.272C310.752 137.187 312.373 137.144 314.08 137.144C315.872 137.144 317.451 137.187 318.816 137.272C320.352 137.443 321.205 137.955 321.376 138.808C321.632 139.576 321.717 140.387 321.632 141.24C321.547 141.667 321.461 142.093 321.376 142.52C321.291 142.861 321.205 143.245 321.12 143.672C320.949 144.184 320.821 144.653 320.736 145.08C320.736 145.507 320.736 145.976 320.736 146.488V163.128Z" fill="black"/>
<path d="M265.312 368C263.52 368 261.813 367.915 260.192 367.744C258.656 367.659 257.248 367.317 255.968 366.72C254.773 366.123 253.835 365.227 253.152 364.032C252.469 362.923 252.128 361.344 252.128 359.296V353.536C252.128 351.744 251.488 350.507 250.208 349.824C249.013 349.056 247.392 348.587 245.344 348.416C244.491 348.416 243.851 348.16 243.424 347.648C243.083 347.051 242.955 346.453 243.04 345.856C243.125 345.173 243.381 344.576 243.808 344.064C244.235 343.552 244.875 343.253 245.728 343.168C247.605 343.168 250.379 343.253 254.048 343.424C257.803 343.595 261.259 343.893 264.416 344.32C265.952 344.405 268.427 344.448 271.84 344.448C275.253 344.448 278.88 344.405 282.72 344.32C286.56 344.32 290.187 344.32 293.6 344.32C297.099 344.235 299.659 344.149 301.28 344.064L301.92 331.776C300.555 331.776 298.293 331.819 295.136 331.904C292.064 331.904 288.864 331.904 285.536 331.904C282.208 331.904 279.093 331.947 276.192 332.032C273.376 332.032 271.541 332.032 270.688 332.032C269.152 332.203 267.445 332.587 265.568 333.184C263.776 333.696 262.667 334.037 262.24 334.208C261.557 334.464 260.661 334.677 259.552 334.848C258.528 335.019 257.248 334.805 255.712 334.208C254.432 333.781 252.811 333.099 250.848 332.16C248.885 331.136 247.264 330.112 245.984 329.088C244.789 328.149 244.363 327.211 244.704 326.272C245.045 325.333 246.112 324.992 247.904 325.248C250.293 325.589 253.024 325.888 256.096 326.144C259.253 326.315 262.24 326.4 265.056 326.4C265.483 326.4 266.08 326.443 266.848 326.528C267.701 326.528 268.64 326.528 269.664 326.528C270.773 326.528 271.925 326.528 273.12 326.528C274.4 326.528 275.765 326.528 277.216 326.528C276.875 325.504 276.619 324.395 276.448 323.2C276.277 321.92 276.192 320.683 276.192 319.488V313.6C271.84 313.685 267.573 313.856 263.392 314.112C259.296 314.283 256.096 314.496 253.792 314.752C253.024 314.837 252.299 314.965 251.616 315.136C250.933 315.221 250.293 315.349 249.696 315.52C249.184 315.691 248.629 315.904 248.032 316.16C247.52 316.331 247.008 316.459 246.496 316.544C245.301 316.971 243.936 317.269 242.4 317.44C240.949 317.525 238.987 317.269 236.512 316.672C234.976 316.416 233.184 315.904 231.136 315.136C229.088 314.368 226.912 313.344 224.608 312.064C222.133 310.784 221.024 309.504 221.28 308.224C221.621 306.859 223.456 306.389 226.784 306.816C230.624 307.328 234.763 307.669 239.2 307.84C243.723 308.011 248.032 308.096 252.128 308.096C255.115 308.096 258.955 308.096 263.648 308.096C268.427 308.096 273.376 308.053 278.496 307.968C283.616 307.968 288.608 307.925 293.472 307.84C298.336 307.755 302.432 307.669 305.76 307.584C307.552 307.584 309.259 307.371 310.88 306.944C312.501 306.432 313.653 306.048 314.336 305.792C314.933 305.536 315.616 305.323 316.384 305.152C317.152 304.981 317.835 304.853 318.432 304.768C320.651 304.597 322.869 304.555 325.088 304.64C327.307 304.64 329.525 304.725 331.744 304.896C334.304 305.152 336.267 305.664 337.632 306.432C339.083 307.115 339.808 308.181 339.808 309.632C339.723 311.339 338.912 312.491 337.376 313.088C335.925 313.6 334.005 313.856 331.616 313.856C329.227 313.856 326.24 313.856 322.656 313.856C319.157 313.771 315.445 313.728 311.52 313.728C307.509 313.728 303.456 313.728 299.36 313.728C295.349 313.643 291.637 313.6 288.224 313.6C288.224 316.672 288.011 319.275 287.584 321.408C287.243 323.541 286.773 325.248 286.176 326.528C287.883 326.528 289.461 326.528 290.912 326.528C292.448 326.443 293.813 326.357 295.008 326.272C296.288 326.187 297.355 326.059 298.208 325.888C299.147 325.717 299.744 325.547 300 325.376C300.085 325.376 300.213 325.333 300.384 325.248C300.64 325.163 300.896 325.035 301.152 324.864C301.323 324.779 301.493 324.693 301.664 324.608C301.92 324.523 302.176 324.437 302.432 324.352C304.139 324.181 306.101 324.139 308.32 324.224C310.539 324.224 312.288 324.352 313.568 324.608C314.848 324.949 315.573 325.547 315.744 326.4C315.915 327.253 315.872 328.064 315.616 328.832C315.36 329.344 315.104 329.984 314.848 330.752C314.592 331.435 314.379 332.117 314.208 332.8L311.136 343.936C312.587 344.021 313.696 344.32 314.464 344.832C315.232 345.344 315.616 345.984 315.616 346.752C315.616 347.776 315.275 348.587 314.592 349.184C313.909 349.696 312.331 349.952 309.856 349.952C307.979 349.952 304.821 349.995 300.384 350.08C296.032 350.08 291.381 350.123 286.432 350.208C281.568 350.293 276.96 350.336 272.608 350.336C268.341 350.336 265.44 350.336 263.904 350.336V358.144C263.904 359.595 264.331 360.576 265.184 361.088C266.123 361.685 267.317 361.984 268.768 361.984L292.96 361.728C294.496 361.728 296.075 361.643 297.696 361.472C299.317 361.301 300.896 360.832 302.432 360.064C302.859 359.808 303.328 359.552 303.84 359.296C304.352 359.125 304.949 358.997 305.632 358.912C307.339 358.827 309.344 358.784 311.648 358.784C313.952 358.869 315.744 358.955 317.024 359.04C318.731 359.296 320.011 359.851 320.864 360.704C321.803 361.643 322.272 362.624 322.272 363.648C322.187 364.672 321.632 365.568 320.608 366.336C319.584 367.189 318.048 367.616 316 367.616L265.312 368ZM280.8 253.184C284.981 253.184 288.864 253.781 292.448 254.976C296.032 256.085 299.104 257.707 301.664 259.84C304.309 261.973 306.357 264.491 307.808 267.392C309.259 270.293 309.984 273.536 309.984 277.12C309.984 284.203 307.253 289.792 301.792 293.888C296.331 297.899 289.376 299.904 280.928 299.904C276.661 299.904 272.736 299.392 269.152 298.368C265.653 297.344 262.624 295.851 260.064 293.888C257.504 291.925 255.499 289.536 254.048 286.72C252.597 283.904 251.872 280.704 251.872 277.12C251.872 273.536 252.555 270.293 253.92 267.392C255.371 264.491 257.376 261.973 259.936 259.84C262.496 257.707 265.525 256.085 269.024 254.976C272.608 253.781 276.533 253.184 280.8 253.184ZM280.8 260.352C275.083 260.352 270.688 262.016 267.616 265.344C264.629 268.587 263.136 272.597 263.136 277.376C263.136 281.899 264.629 285.696 267.616 288.768C270.688 291.755 275.083 293.248 280.8 293.248C286.432 293.248 290.827 291.755 293.984 288.768C297.141 285.696 298.72 281.899 298.72 277.376C298.72 272.597 297.141 268.587 293.984 265.344C290.827 262.016 286.432 260.352 280.8 260.352Z" fill="black"/>
<line y1="2" x2="380" y2="2" stroke="black" stroke-width="4"/>
<line y1="430" x2="380" y2="430" stroke="black" stroke-width="4"/>
</svg>
