<svg width="55" height="54" viewBox="0 0 55 54" fill="none" xmlns="http://www.w3.org/2000/svg">
<path fill-rule="evenodd" clip-rule="evenodd" d="M27.3148 53.4743C42.4005 53.4743 54.6296 41.5038 54.6296 26.7372C54.6296 11.9705 42.4005 0 27.3148 0C12.2292 0 0 11.9705 0 26.7372C0 41.5038 12.2292 53.4743 27.3148 53.4743ZM42.4565 24.2375H47.369C46.6722 18.7867 43.7282 14.0193 39.4727 10.853L37.0204 15.0118L32.6037 12.5157L35.0588 8.35333C32.6292 7.35137 29.9593 6.79758 27.1569 6.79758C24.3583 6.79758 21.6912 7.34999 19.2639 8.34969L21.7185 12.5121L17.3023 15.0082L14.8486 10.848C10.5894 14.0139 7.64214 18.7835 6.94538 24.2375H11.8579V29.2296H6.94444C7.63889 34.6826 10.5829 39.4518 14.8389 42.619L17.2945 38.4557L21.7111 40.9518L19.2523 45.1201C21.6829 46.1225 24.3537 46.6767 27.1569 46.6767C29.956 46.6767 32.6236 46.1239 35.0514 45.1242L32.5968 40.9627L37.013 38.4666L39.4662 42.6258C43.7269 39.4582 46.6745 34.6863 47.3699 29.2296H42.4565V24.2375Z" fill="#202020"/>
</svg>
