<svg width="419" height="251" viewBox="0 0 419 251" fill="none" xmlns="http://www.w3.org/2000/svg">
<g clip-path="url(#clip0_673_5099)">
<path fill-rule="evenodd" clip-rule="evenodd" d="M18.2344 1.1377C8.80674 1.1377 1.16406 8.60684 1.16406 17.8205V233.18C1.16406 242.394 8.80674 249.863 18.2344 249.863H400.766C410.193 249.863 417.836 242.394 417.836 233.18V17.8205C417.836 8.60684 410.193 1.1377 400.766 1.1377H18.2344ZM147.814 114.126C147.814 126.48 137.566 136.496 124.924 136.496C112.282 136.496 102.034 126.48 102.034 114.126C102.034 101.771 112.282 91.7555 124.924 91.7555C137.566 91.7555 147.814 101.771 147.814 114.126ZM316.966 114.126C316.966 126.48 306.718 136.496 294.076 136.496C281.434 136.496 271.186 126.48 271.186 114.126C271.186 101.771 281.434 91.7555 294.076 91.7555C306.718 91.7555 316.966 101.771 316.966 114.126ZM110.57 243.775C116.569 243.775 121.433 239.022 121.433 233.159C121.433 227.296 116.569 222.543 110.57 222.543C104.57 222.543 99.7067 227.296 99.7067 233.159C99.7067 239.022 104.57 243.775 110.57 243.775ZM319.682 233.159C319.682 239.022 314.818 243.775 308.819 243.775C302.819 243.775 297.956 239.022 297.956 233.159C297.956 227.296 302.819 222.543 308.819 222.543C314.818 222.543 319.682 227.296 319.682 233.159ZM145.486 222.543C144.201 222.543 143.159 223.562 143.159 224.818V234.676C143.159 235.932 144.201 236.951 145.486 236.951H155.573C156.859 236.951 157.901 235.932 157.901 234.676V224.818C157.901 223.562 156.859 222.543 155.573 222.543H145.486ZM261.487 224.818C261.487 223.562 262.529 222.543 263.815 222.543H273.902C275.188 222.543 276.23 223.562 276.23 224.818V234.676C276.23 235.932 275.188 236.951 273.902 236.951H263.815C262.529 236.951 261.487 235.932 261.487 234.676V224.818Z" fill="#50659C"/>
<mask id="mask0_673_5099" style="mask-type:luminance" maskUnits="userSpaceOnUse" x="0" y="0" width="419" height="251">
<g opacity="0.8">
<path d="M419 0H0V251H419V0Z" fill="white"/>
<path fill-rule="evenodd" clip-rule="evenodd" d="M18.2344 1.1377C8.80674 1.1377 1.16406 8.60684 1.16406 17.8205V233.18C1.16406 242.394 8.80674 249.863 18.2344 249.863H400.766C410.193 249.863 417.836 242.394 417.836 233.18V17.8205C417.836 8.60684 410.193 1.1377 400.766 1.1377H18.2344ZM147.814 114.126C147.814 126.48 137.566 136.496 124.924 136.496C112.282 136.496 102.034 126.48 102.034 114.126C102.034 101.771 112.282 91.7555 124.924 91.7555C137.566 91.7555 147.814 101.771 147.814 114.126ZM316.966 114.126C316.966 126.48 306.718 136.496 294.076 136.496C281.434 136.496 271.186 126.48 271.186 114.126C271.186 101.771 281.434 91.7555 294.076 91.7555C306.718 91.7555 316.966 101.771 316.966 114.126ZM110.57 243.775C116.569 243.775 121.433 239.022 121.433 233.159C121.433 227.296 116.569 222.543 110.57 222.543C104.57 222.543 99.7067 227.296 99.7067 233.159C99.7067 239.022 104.57 243.775 110.57 243.775ZM319.682 233.159C319.682 239.022 314.818 243.775 308.819 243.775C302.819 243.775 297.956 239.022 297.956 233.159C297.956 227.296 302.819 222.543 308.819 222.543C314.818 222.543 319.682 227.296 319.682 233.159ZM145.486 222.543C144.201 222.543 143.159 223.562 143.159 224.818V234.676C143.159 235.932 144.201 236.951 145.486 236.951H155.573C156.859 236.951 157.901 235.932 157.901 234.676V224.818C157.901 223.562 156.859 222.543 155.573 222.543H145.486ZM261.487 224.818C261.487 223.562 262.529 222.543 263.815 222.543H273.902C275.188 222.543 276.23 223.562 276.23 224.818V234.676C276.23 235.932 275.188 236.951 273.902 236.951H263.815C262.529 236.951 261.487 235.932 261.487 234.676V224.818Z" fill="black"/>
</g>
</mask>
<g mask="url(#mask0_673_5099)">
<path d="M2.32778 17.8202C2.32778 9.23479 9.44934 2.27492 18.2343 2.27492V0C8.16375 0 0 7.97839 0 17.8202H2.32778ZM2.32778 233.18V17.8202H0V233.18H2.32778ZM18.2343 248.725C9.44934 248.725 2.32778 241.765 2.32778 233.18H0C0 243.021 8.16375 251 18.2343 251V248.725ZM400.766 248.725H18.2343V251H400.766V248.725ZM416.672 233.18C416.672 241.765 409.549 248.725 400.766 248.725V251C410.837 251 419 243.021 419 233.18H416.672ZM416.672 17.8202V233.18H419V17.8202H416.672ZM400.766 2.27492C409.549 2.27492 416.672 9.23479 416.672 17.8202H419C419 7.97839 410.837 0 400.766 0V2.27492ZM18.2343 2.27492H400.766V0H18.2343V2.27492ZM124.924 137.633C138.209 137.633 148.978 127.108 148.978 114.125H146.65C146.65 125.852 136.923 135.358 124.924 135.358V137.633ZM100.87 114.125C100.87 127.108 111.639 137.633 124.924 137.633V135.358C112.925 135.358 103.198 125.852 103.198 114.125H100.87ZM124.924 90.6178C111.639 90.6178 100.87 101.142 100.87 114.125H103.198C103.198 102.399 112.925 92.8928 124.924 92.8928V90.6178ZM148.978 114.125C148.978 101.142 138.209 90.6178 124.924 90.6178V92.8928C136.923 92.8928 146.65 102.399 146.65 114.125H148.978ZM294.076 137.633C307.361 137.633 318.13 127.108 318.13 114.125H315.802C315.802 125.852 306.075 135.358 294.076 135.358V137.633ZM270.022 114.125C270.022 127.108 280.791 137.633 294.076 137.633V135.358C282.077 135.358 272.35 125.852 272.35 114.125H270.022ZM294.076 90.6178C280.791 90.6178 270.022 101.142 270.022 114.125H272.35C272.35 102.399 282.077 92.8928 294.076 92.8928V90.6178ZM318.13 114.125C318.13 101.142 307.361 90.6178 294.076 90.6178V92.8928C306.075 92.8928 315.802 102.399 315.802 114.125H318.13ZM120.269 233.159C120.269 238.394 115.926 242.638 110.569 242.638V244.913C117.212 244.913 122.596 239.65 122.596 233.159H120.269ZM110.569 223.68C115.926 223.68 120.269 227.924 120.269 233.159H122.596C122.596 226.667 117.212 221.405 110.569 221.405V223.68ZM100.87 233.159C100.87 227.924 105.213 223.68 110.569 223.68V221.405C103.927 221.405 98.5426 226.667 98.5426 233.159H100.87ZM110.569 242.638C105.213 242.638 100.87 238.394 100.87 233.159H98.5426C98.5426 239.65 103.927 244.913 110.569 244.913V242.638ZM308.819 244.913C315.461 244.913 320.845 239.65 320.845 233.159H318.518C318.518 238.394 314.175 242.638 308.819 242.638V244.913ZM296.792 233.159C296.792 239.65 302.176 244.913 308.819 244.913V242.638C303.462 242.638 299.119 238.394 299.119 233.159H296.792ZM308.819 221.405C302.176 221.405 296.792 226.667 296.792 233.159H299.119C299.119 227.924 303.462 223.68 308.819 223.68V221.405ZM320.845 233.159C320.845 226.667 315.461 221.405 308.819 221.405V223.68C314.175 223.68 318.518 227.924 318.518 233.159H320.845ZM144.322 224.818C144.322 224.189 144.843 223.68 145.486 223.68V221.405C143.558 221.405 141.994 222.933 141.994 224.818H144.322ZM144.322 234.676V224.818H141.994V234.676H144.322ZM145.486 235.813C144.843 235.813 144.322 235.304 144.322 234.676H141.994C141.994 236.56 143.558 238.088 145.486 238.088V235.813ZM155.573 235.813H145.486V238.088H155.573V235.813ZM156.737 234.676C156.737 235.304 156.216 235.813 155.573 235.813V238.088C157.502 238.088 159.065 236.56 159.065 234.676H156.737ZM156.737 224.818V234.676H159.065V224.818H156.737ZM155.573 223.68C156.216 223.68 156.737 224.189 156.737 224.818H159.065C159.065 222.933 157.502 221.405 155.573 221.405V223.68ZM145.486 223.68H155.573V221.405H145.486V223.68ZM263.815 221.405C261.886 221.405 260.323 222.933 260.323 224.818H262.651C262.651 224.189 263.172 223.68 263.815 223.68V221.405ZM273.902 221.405H263.815V223.68H273.902V221.405ZM277.394 224.818C277.394 222.933 275.83 221.405 273.902 221.405V223.68C274.545 223.68 275.066 224.189 275.066 224.818H277.394ZM277.394 234.676V224.818H275.066V234.676H277.394ZM273.902 238.088C275.83 238.088 277.394 236.56 277.394 234.676H275.066C275.066 235.304 274.545 235.813 273.902 235.813V238.088ZM263.815 238.088H273.902V235.813H263.815V238.088ZM260.323 234.676C260.323 236.56 261.886 238.088 263.815 238.088V235.813C263.172 235.813 262.651 235.304 262.651 234.676H260.323ZM260.323 224.818V234.676H262.651V224.818H260.323Z" fill="#202020"/>
</g>
<path fill-rule="evenodd" clip-rule="evenodd" d="M124.538 182.752C163.32 182.752 194.759 152.027 194.759 114.125C194.759 76.2232 163.32 45.498 124.538 45.498C85.7554 45.498 54.3164 76.2232 54.3164 114.125C54.3164 152.027 85.7554 182.752 124.538 182.752ZM124.926 137.632C138.21 137.632 148.979 127.108 148.979 114.125C148.979 101.142 138.21 90.6174 124.926 90.6174C111.641 90.6174 100.872 101.142 100.872 114.125C100.872 127.108 111.641 137.632 124.926 137.632Z" fill="#202020"/>
<path fill-rule="evenodd" clip-rule="evenodd" d="M293.687 142.562C309.757 142.562 322.784 129.83 322.784 114.125C322.784 98.4201 309.757 85.6885 293.687 85.6885C277.617 85.6885 264.59 98.4201 264.59 114.125C264.59 129.83 277.617 142.562 293.687 142.562ZM294.075 137.633C307.36 137.633 318.129 127.108 318.129 114.125C318.129 101.142 307.36 90.6175 294.075 90.6175C280.79 90.6175 270.021 101.142 270.021 114.125C270.021 127.108 280.79 137.633 294.075 137.633Z" fill="#202020"/>
<path d="M351.52 250.431H67.9062L83.1198 202.457C84.655 197.617 89.2365 194.316 94.4224 194.316H327.673C333.082 194.316 337.802 197.9 339.139 203.021L351.52 250.431Z" stroke="#202020" stroke-width="3"/>
<path d="M110.57 243.227C116.248 243.227 120.851 238.729 120.851 233.179C120.851 227.63 116.248 223.132 110.57 223.132C104.892 223.132 100.289 227.63 100.289 233.179C100.289 238.729 104.892 243.227 110.57 243.227Z" stroke="#202020" stroke-width="3"/>
<path d="M308.82 243.227C314.498 243.227 319.101 238.729 319.101 233.179C319.101 227.63 314.498 223.132 308.82 223.132C303.142 223.132 298.539 227.63 298.539 233.179C298.539 238.729 303.142 243.227 308.82 243.227Z" stroke="#202020" stroke-width="3"/>
<path d="M155.575 223.132H145.488C144.524 223.132 143.742 223.896 143.742 224.838V234.696C143.742 235.638 144.524 236.402 145.488 236.402H155.575C156.539 236.402 157.321 235.638 157.321 234.696V224.838C157.321 223.896 156.539 223.132 155.575 223.132Z" stroke="#202020" stroke-width="3"/>
<path d="M273.903 223.132H263.816C262.852 223.132 262.07 223.896 262.07 224.838V234.696C262.07 235.638 262.852 236.402 263.816 236.402H273.903C274.867 236.402 275.649 235.638 275.649 234.696V224.838C275.649 223.896 274.867 223.132 273.903 223.132Z" stroke="#202020" stroke-width="3"/>
<mask id="mask1_673_5099" style="mask-type:luminance" maskUnits="userSpaceOnUse" x="202" y="198" width="15" height="15">
<path d="M216.482 198.677H202.516V212.326H216.482V198.677Z" fill="white"/>
</mask>
<g mask="url(#mask1_673_5099)">
<path fill-rule="evenodd" clip-rule="evenodd" d="M209.499 212.326C213.356 212.326 216.482 209.271 216.482 205.502C216.482 201.732 213.356 198.677 209.499 198.677C205.642 198.677 202.516 201.732 202.516 205.502C202.516 209.271 205.642 212.326 209.499 212.326ZM210.602 203.979L210.069 201.417C209.943 200.81 209.055 200.81 208.929 201.417L208.396 203.979C208.349 204.203 208.17 204.378 207.941 204.423L205.32 204.944C204.698 205.068 204.698 205.935 205.32 206.059L207.941 206.58C208.17 206.625 208.349 206.8 208.396 207.024L208.929 209.586C209.055 210.193 209.943 210.193 210.069 209.586L210.602 207.024C210.649 206.8 210.828 206.625 211.057 206.58L213.678 206.059C214.3 205.935 214.3 205.068 213.678 204.944L211.057 204.423C210.828 204.378 210.649 204.203 210.602 203.979Z" fill="#202020"/>
</g>
<mask id="mask2_673_5099" style="mask-type:luminance" maskUnits="userSpaceOnUse" x="10" y="10" width="15" height="14">
<path d="M24.4432 10.2373H10.4766V23.8869H24.4432V10.2373Z" fill="white"/>
</mask>
<g mask="url(#mask2_673_5099)">
<path fill-rule="evenodd" clip-rule="evenodd" d="M17.4599 23.8869C21.3167 23.8869 24.4432 20.8313 24.4432 17.0621C24.4432 13.2929 21.3167 10.2373 17.4599 10.2373C13.6031 10.2373 10.4766 13.2929 10.4766 17.0621C10.4766 20.8313 13.6031 23.8869 17.4599 23.8869ZM18.5633 15.5397L18.0302 12.9778C17.9038 12.3706 17.016 12.3706 16.8896 12.9778L16.3565 15.5397C16.3099 15.7634 16.1311 15.9382 15.9022 15.9837L13.2807 16.5048C12.6594 16.6283 12.6594 17.4959 13.2807 17.6194L15.9022 18.1404C16.1311 18.1859 16.3099 18.3607 16.3565 18.5844L16.8896 21.1464C17.016 21.7536 17.9038 21.7536 18.0302 21.1464L18.5633 18.5844C18.6099 18.3607 18.7887 18.1859 19.0176 18.1404L21.6391 17.6194C22.2604 17.4959 22.2604 16.6283 21.6391 16.5048L19.0176 15.9837C18.7887 15.9382 18.6099 15.7634 18.5633 15.5397Z" fill="#202020"/>
</g>
<mask id="mask3_673_5099" style="mask-type:luminance" maskUnits="userSpaceOnUse" x="10" y="227" width="15" height="14">
<path d="M24.4432 227.113H10.4766V240.763H24.4432V227.113Z" fill="white"/>
</mask>
<g mask="url(#mask3_673_5099)">
<path fill-rule="evenodd" clip-rule="evenodd" d="M17.4599 240.763C21.3167 240.763 24.4432 237.707 24.4432 233.938C24.4432 230.169 21.3167 227.113 17.4599 227.113C13.6031 227.113 10.4766 230.169 10.4766 233.938C10.4766 237.707 13.6031 240.763 17.4599 240.763ZM18.5633 232.416L18.0302 229.854C17.9038 229.246 17.016 229.246 16.8896 229.854L16.3565 232.416C16.3099 232.639 16.1311 232.814 15.9022 232.86L13.2807 233.381C12.6594 233.504 12.6594 234.372 13.2807 234.495L15.9022 235.016C16.1311 235.062 16.3099 235.237 16.3565 235.46L16.8896 238.022C17.016 238.63 17.9038 238.63 18.0302 238.022L18.5633 235.46C18.6099 235.237 18.7887 235.062 19.0176 235.016L21.6391 234.495C22.2604 234.372 22.2604 233.504 21.6391 233.381L19.0176 232.86C18.7887 232.814 18.6099 232.639 18.5633 232.416Z" fill="#202020"/>
</g>
<mask id="mask4_673_5099" style="mask-type:luminance" maskUnits="userSpaceOnUse" x="394" y="10" width="15" height="14">
<path d="M408.525 10.2373H394.559V23.8869H408.525V10.2373Z" fill="white"/>
</mask>
<g mask="url(#mask4_673_5099)">
<path fill-rule="evenodd" clip-rule="evenodd" d="M401.542 23.8869C405.398 23.8869 408.525 20.8313 408.525 17.0621C408.525 13.2929 405.398 10.2373 401.542 10.2373C397.686 10.2373 394.559 13.2929 394.559 17.0621C394.559 20.8313 397.686 23.8869 401.542 23.8869ZM402.644 15.5397L402.112 12.9778C401.984 12.3706 401.1 12.3706 400.972 12.9778L400.44 15.5397C400.394 15.7634 400.211 15.9382 399.982 15.9837L397.364 16.5048C396.743 16.6283 396.743 17.4959 397.364 17.6194L399.982 18.1404C400.211 18.1859 400.394 18.3607 400.44 18.5844L400.972 21.1464C401.1 21.7536 401.984 21.7536 402.112 21.1464L402.644 18.5844C402.69 18.3607 402.873 18.1859 403.102 18.1404L405.72 17.6194C406.341 17.4959 406.341 16.6283 405.72 16.5048L403.102 15.9837C402.873 15.9382 402.69 15.7634 402.644 15.5397Z" fill="#202020"/>
</g>
<mask id="mask5_673_5099" style="mask-type:luminance" maskUnits="userSpaceOnUse" x="394" y="227" width="15" height="14">
<path d="M408.525 227.113H394.559V240.763H408.525V227.113Z" fill="white"/>
</mask>
<g mask="url(#mask5_673_5099)">
<path fill-rule="evenodd" clip-rule="evenodd" d="M401.542 240.763C405.398 240.763 408.525 237.707 408.525 233.938C408.525 230.169 405.398 227.113 401.542 227.113C397.686 227.113 394.559 230.169 394.559 233.938C394.559 237.707 397.686 240.763 401.542 240.763ZM402.644 232.416L402.112 229.854C401.984 229.246 401.1 229.246 400.972 229.854L400.44 232.416C400.394 232.639 400.211 232.814 399.982 232.86L397.364 233.381C396.743 233.504 396.743 234.372 397.364 234.495L399.982 235.016C400.211 235.062 400.394 235.237 400.44 235.46L400.972 238.022C401.1 238.63 401.984 238.63 402.112 238.022L402.644 235.46C402.69 235.237 402.873 235.062 403.102 235.016L405.72 234.495C406.341 234.372 406.341 233.504 405.72 233.381L403.102 232.86C402.873 232.814 402.69 232.639 402.644 232.416Z" fill="#202020"/>
</g>
<mask id="mask6_673_5099" style="mask-type:alpha" maskUnits="userSpaceOnUse" x="23" y="20" width="374" height="164">
<path d="M46.3184 21.8008H373.46C376.589 21.8008 379.591 23.012 381.808 25.1695L391.657 34.7512C393.888 36.9213 395.141 39.8705 395.141 42.9466V170.619C395.141 177.006 389.842 182.183 383.308 182.183H36.4696C29.9345 182.183 24.6367 177.006 24.6367 170.619V42.9466C24.6367 39.8705 25.8907 36.9213 28.1214 34.7512L37.97 25.1695C40.1874 23.012 43.1891 21.8008 46.3184 21.8008ZM298.345 79.8114H120.658C101.481 79.8114 85.9349 95.0044 85.9349 113.746V114.504C85.9349 133.245 101.481 148.438 120.658 148.438H298.345C317.522 148.438 333.067 133.245 333.067 114.504V113.746C333.067 95.0044 317.522 79.8114 298.345 79.8114Z" fill="#EDA35F" stroke="#202020" stroke-width="3"/>
</mask>
<g mask="url(#mask6_673_5099)">
<mask id="mask7_673_5099" style="mask-type:luminance" maskUnits="userSpaceOnUse" x="24" y="21" width="372" height="162">
<path d="M395.723 21.2324H24.0547V182.752H395.723V21.2324Z" fill="white"/>
</mask>
<g mask="url(#mask7_673_5099)">
<path d="M395.723 21.2324H24.0547V182.752H395.723V21.2324Z" fill="#EAE8F5"/>
</g>
</g>
<path d="M373.46 21.2324H46.3183C43.0354 21.2324 39.8859 22.5032 37.5594 24.7667L27.7107 34.3485C25.3704 36.6254 24.0547 39.7196 24.0547 42.947V170.619C24.0547 177.32 29.613 182.752 36.4695 182.752H383.308C390.164 182.752 395.723 177.32 395.723 170.619V42.947C395.723 39.7196 394.408 36.6254 392.069 34.3485L382.219 24.7667C379.892 22.5032 376.743 21.2324 373.46 21.2324Z" stroke="#202020" stroke-width="3"/>
<mask id="mask8_673_5099" style="mask-type:luminance" maskUnits="userSpaceOnUse" x="86" y="80" width="247" height="68">
<path d="M298.343 80.3809H120.656C101.801 80.3809 86.5156 95.3191 86.5156 113.746V114.505C86.5156 132.932 101.801 147.87 120.656 147.87H298.343C317.199 147.87 332.484 132.932 332.484 114.505V113.746C332.484 95.3191 317.199 80.3809 298.343 80.3809Z" fill="white"/>
</mask>
<g mask="url(#mask8_673_5099)">
<path d="M120.656 80.9492H298.344C316.878 80.9492 331.902 95.6327 331.902 113.746V114.504C331.902 132.618 316.878 147.301 298.344 147.301H120.656C102.122 147.301 87.0977 132.618 87.0977 114.504V113.746C87.0977 95.6327 102.122 80.9492 120.656 80.9492Z" stroke="#202020" stroke-width="3"/>
</g>
</g>
<defs>
<clipPath id="clip0_673_5099">
<rect width="419" height="251" fill="white"/>
</clipPath>
</defs>
</svg>
