<svg width="500" height="300" viewBox="0 0 500 300" fill="none" xmlns="http://www.w3.org/2000/svg">
<g clip-path="url(#clip0_265_5459)">
<g opacity="0.8">
<path fill-rule="evenodd" clip-rule="evenodd" d="M21.761 1.35938C10.5108 1.35938 1.39062 10.2866 1.39062 21.299V278.701C1.39062 289.713 10.5108 298.64 21.761 298.64H478.242C489.492 298.64 498.613 289.713 498.613 278.701V21.299C498.613 10.2866 489.492 1.35938 478.242 1.35938H21.761ZM176.391 136.405C176.391 151.171 164.161 163.142 149.076 163.142C133.99 163.142 121.761 151.171 121.761 136.405C121.761 121.638 133.99 109.668 149.076 109.668C164.161 109.668 176.391 121.638 176.391 136.405ZM378.242 136.405C378.242 151.171 366.013 163.142 350.928 163.142C335.842 163.142 323.613 151.171 323.613 136.405C323.613 121.638 335.842 109.668 350.928 109.668C366.013 109.668 378.242 121.638 378.242 136.405ZM131.946 291.365C139.105 291.365 144.909 285.684 144.909 278.676C144.909 271.668 139.105 265.987 131.946 265.987C124.787 265.987 118.983 271.668 118.983 278.676C118.983 285.684 124.787 291.365 131.946 291.365ZM381.483 278.676C381.483 285.684 375.68 291.365 368.52 291.365C361.361 291.365 355.557 285.684 355.557 278.676C355.557 271.668 361.361 265.987 368.52 265.987C375.68 265.987 381.483 271.668 381.483 278.676ZM173.613 265.987C172.079 265.987 170.835 267.205 170.835 268.706V280.489C170.835 281.99 172.079 283.208 173.613 283.208H185.65C187.184 283.208 188.428 281.99 188.428 280.489V268.706C188.428 267.205 187.184 265.987 185.65 265.987H173.613ZM312.039 268.706C312.039 267.205 313.282 265.987 314.817 265.987H326.854C328.388 265.987 329.631 267.205 329.631 268.706V280.489C329.631 281.99 328.388 283.208 326.854 283.208H314.817C313.282 283.208 312.039 281.99 312.039 280.489V268.706Z" fill="#E88338"/>
<mask id="mask0_265_5459" style="mask-type:luminance" maskUnits="userSpaceOnUse" x="0" y="0" width="500" height="300">
<g opacity="0.8">
<path d="M500 0H0V300H500V0Z" fill="white"/>
<path fill-rule="evenodd" clip-rule="evenodd" d="M21.761 1.35938C10.5108 1.35938 1.39062 10.2866 1.39062 21.299V278.701C1.39062 289.713 10.5108 298.64 21.761 298.64H478.242C489.492 298.64 498.613 289.713 498.613 278.701V21.299C498.613 10.2866 489.492 1.35938 478.242 1.35938H21.761ZM176.391 136.405C176.391 151.171 164.161 163.142 149.076 163.142C133.99 163.142 121.761 151.171 121.761 136.405C121.761 121.638 133.99 109.668 149.076 109.668C164.161 109.668 176.391 121.638 176.391 136.405ZM378.242 136.405C378.242 151.171 366.013 163.142 350.928 163.142C335.842 163.142 323.613 151.171 323.613 136.405C323.613 121.638 335.842 109.668 350.928 109.668C366.013 109.668 378.242 121.638 378.242 136.405ZM131.946 291.365C139.105 291.365 144.909 285.684 144.909 278.676C144.909 271.668 139.105 265.987 131.946 265.987C124.787 265.987 118.983 271.668 118.983 278.676C118.983 285.684 124.787 291.365 131.946 291.365ZM381.483 278.676C381.483 285.684 375.68 291.365 368.52 291.365C361.361 291.365 355.557 285.684 355.557 278.676C355.557 271.668 361.361 265.987 368.52 265.987C375.68 265.987 381.483 271.668 381.483 278.676ZM173.613 265.987C172.079 265.987 170.835 267.205 170.835 268.706V280.489C170.835 281.99 172.079 283.208 173.613 283.208H185.65C187.184 283.208 188.428 281.99 188.428 280.489V268.706C188.428 267.205 187.184 265.987 185.65 265.987H173.613ZM312.039 268.706C312.039 267.205 313.282 265.987 314.817 265.987H326.854C328.388 265.987 329.631 267.205 329.631 268.706V280.489C329.631 281.99 328.388 283.208 326.854 283.208H314.817C313.282 283.208 312.039 281.99 312.039 280.489V268.706Z" fill="black"/>
</g>
</mask>
<g mask="url(#mask0_265_5459)">
<path d="M2.77778 21.2991C2.77778 11.0376 11.2761 2.71903 21.7593 2.71903V0C9.74194 0 0 9.53592 0 21.2991H2.77778ZM2.77778 278.701V21.2991H0V278.701H2.77778ZM21.7593 297.281C11.2761 297.281 2.77778 288.963 2.77778 278.701H0C0 290.464 9.74194 300 21.7593 300V297.281ZM478.241 297.281H21.7593V300H478.241V297.281ZM497.222 278.701C497.222 288.963 488.722 297.281 478.241 297.281V300C490.259 300 500 290.464 500 278.701H497.222ZM497.222 21.2991V278.701H500V21.2991H497.222ZM478.241 2.71903C488.722 2.71903 497.222 11.0376 497.222 21.2991H500C500 9.53592 490.259 0 478.241 0V2.71903ZM21.7593 2.71903H478.241V0H21.7593V2.71903ZM149.074 164.502C164.927 164.502 177.778 151.922 177.778 136.405H175C175 150.421 163.393 161.782 149.074 161.782V164.502ZM120.37 136.405C120.37 151.922 133.221 164.502 149.074 164.502V161.782C134.756 161.782 123.148 150.421 123.148 136.405H120.37ZM149.074 108.308C133.221 108.308 120.37 120.887 120.37 136.405H123.148C123.148 122.389 134.756 111.027 149.074 111.027V108.308ZM177.778 136.405C177.778 120.887 164.927 108.308 149.074 108.308V111.027C163.393 111.027 175 122.389 175 136.405H177.778ZM350.926 164.502C366.779 164.502 379.63 151.922 379.63 136.405H376.852C376.852 150.421 365.244 161.782 350.926 161.782V164.502ZM322.222 136.405C322.222 151.922 335.073 164.502 350.926 164.502V161.782C336.607 161.782 325 150.421 325 136.405H322.222ZM350.926 108.308C335.073 108.308 322.222 120.887 322.222 136.405H325C325 122.389 336.607 111.027 350.926 111.027V108.308ZM379.63 136.405C379.63 120.887 366.779 108.308 350.926 108.308V111.027C365.244 111.027 376.852 122.389 376.852 136.405H379.63ZM143.519 278.676C143.519 284.933 138.337 290.005 131.944 290.005V292.724C139.871 292.724 146.296 286.435 146.296 278.676H143.519ZM131.944 267.347C138.337 267.347 143.519 272.419 143.519 278.676H146.296C146.296 270.917 139.871 264.628 131.944 264.628V267.347ZM120.37 278.676C120.37 272.419 125.552 267.347 131.944 267.347V264.628C124.018 264.628 117.593 270.917 117.593 278.676H120.37ZM131.944 290.005C125.552 290.005 120.37 284.933 120.37 278.676H117.593C117.593 286.435 124.018 292.724 131.944 292.724V290.005ZM368.519 292.724C376.445 292.724 382.87 286.435 382.87 278.676H380.093C380.093 284.933 374.911 290.005 368.519 290.005V292.724ZM354.167 278.676C354.167 286.435 360.592 292.724 368.519 292.724V290.005C362.126 290.005 356.944 284.933 356.944 278.676H354.167ZM368.519 264.628C360.592 264.628 354.167 270.917 354.167 278.676H356.944C356.944 272.419 362.126 267.347 368.519 267.347V264.628ZM382.87 278.676C382.87 270.917 376.445 264.628 368.519 264.628V267.347C374.911 267.347 380.093 272.419 380.093 278.676H382.87ZM172.222 268.706C172.222 267.955 172.844 267.347 173.611 267.347V264.628C171.31 264.628 169.444 266.454 169.444 268.706H172.222ZM172.222 280.489V268.706H169.444V280.489H172.222ZM173.611 281.848C172.844 281.848 172.222 281.24 172.222 280.489H169.444C169.444 282.741 171.31 284.567 173.611 284.567V281.848ZM185.648 281.848H173.611V284.567H185.648V281.848ZM187.037 280.489C187.037 281.24 186.415 281.848 185.648 281.848V284.567C187.95 284.567 189.815 282.741 189.815 280.489H187.037ZM187.037 268.706V280.489H189.815V268.706H187.037ZM185.648 267.347C186.415 267.347 187.037 267.955 187.037 268.706H189.815C189.815 266.454 187.95 264.628 185.648 264.628V267.347ZM173.611 267.347H185.648V264.628H173.611V267.347ZM314.815 264.628C312.513 264.628 310.648 266.454 310.648 268.706H313.426C313.426 267.955 314.048 267.347 314.815 267.347V264.628ZM326.852 264.628H314.815V267.347H326.852V264.628ZM331.019 268.706C331.019 266.454 329.153 264.628 326.852 264.628V267.347C327.619 267.347 328.241 267.955 328.241 268.706H331.019ZM331.019 280.489V268.706H328.241V280.489H331.019ZM326.852 284.567C329.153 284.567 331.019 282.741 331.019 280.489H328.241C328.241 281.24 327.619 281.848 326.852 281.848V284.567ZM314.815 284.567H326.852V281.848H314.815V284.567ZM310.648 280.489C310.648 282.741 312.513 284.567 314.815 284.567V281.848C314.048 281.848 313.426 281.24 313.426 280.489H310.648ZM310.648 268.706V280.489H313.426V268.706H310.648Z" fill="#202020"/>
</g>
</g>
<path fill-rule="evenodd" clip-rule="evenodd" d="M148.609 218.429C194.888 218.429 232.405 181.706 232.405 136.405C232.405 91.1041 194.888 54.3809 148.609 54.3809C102.329 54.3809 64.8125 91.1041 64.8125 136.405C64.8125 181.706 102.329 218.429 148.609 218.429ZM149.072 164.502C164.925 164.502 177.775 151.923 177.775 136.405C177.775 120.888 164.925 108.308 149.072 108.308C133.219 108.308 120.368 120.888 120.368 136.405C120.368 151.923 133.219 164.502 149.072 164.502Z" fill="#202020"/>
<path fill-rule="evenodd" clip-rule="evenodd" d="M350.464 170.393C369.641 170.393 385.187 155.176 385.187 136.405C385.187 117.634 369.641 102.417 350.464 102.417C331.288 102.417 315.742 117.634 315.742 136.405C315.742 155.176 331.288 170.393 350.464 170.393ZM350.927 164.502C366.78 164.502 379.631 151.922 379.631 136.405C379.631 120.887 366.78 108.308 350.927 108.308C335.075 108.308 322.224 120.887 322.224 136.405C322.224 151.922 335.075 164.502 350.927 164.502Z" fill="#202020"/>
<path d="M419.477 299.32H81.0352L99.1898 241.981C101.022 236.195 106.489 232.251 112.677 232.251H391.02C397.474 232.251 403.106 236.534 404.702 242.654L419.477 299.32Z" stroke="#202020" stroke-width="3"/>
<path d="M131.944 290.71C138.72 290.71 144.213 285.333 144.213 278.701C144.213 272.069 138.72 266.692 131.944 266.692C125.169 266.692 119.676 272.069 119.676 278.701C119.676 285.333 125.169 290.71 131.944 290.71Z" stroke="#202020" stroke-width="3"/>
<path d="M368.519 290.71C375.294 290.71 380.787 285.333 380.787 278.701C380.787 272.069 375.294 266.692 368.519 266.692C361.743 266.692 356.25 272.069 356.25 278.701C356.25 285.333 361.743 290.71 368.519 290.71Z" stroke="#202020" stroke-width="3"/>
<path d="M185.648 266.692H173.611C172.46 266.692 171.527 267.605 171.527 268.731V280.514C171.527 281.64 172.46 282.553 173.611 282.553H185.648C186.798 282.553 187.731 281.64 187.731 280.514V268.731C187.731 267.605 186.798 266.692 185.648 266.692Z" stroke="#202020" stroke-width="3"/>
<path d="M326.855 266.692H314.818C313.667 266.692 312.734 267.605 312.734 268.731V280.514C312.734 281.64 313.667 282.553 314.818 282.553H326.855C328.005 282.553 328.938 281.64 328.938 280.514V268.731C328.938 267.605 328.005 266.692 326.855 266.692Z" stroke="#202020" stroke-width="3"/>
<mask id="mask1_265_5459" style="mask-type:luminance" maskUnits="userSpaceOnUse" x="241" y="237" width="18" height="17">
<path d="M258.331 237.462H241.664V253.776H258.331V237.462Z" fill="white"/>
</mask>
<g mask="url(#mask1_265_5459)">
<path fill-rule="evenodd" clip-rule="evenodd" d="M249.997 253.776C254.6 253.776 258.331 250.124 258.331 245.619C258.331 241.114 254.6 237.462 249.997 237.462C245.395 237.462 241.664 241.114 241.664 245.619C241.664 250.124 245.395 253.776 249.997 253.776ZM251.314 243.8L250.678 240.737C250.527 240.011 249.468 240.011 249.317 240.737L248.681 243.8C248.625 244.067 248.412 244.276 248.139 244.33L245.01 244.953C244.269 245.101 244.269 246.137 245.01 246.285L248.139 246.908C248.412 246.962 248.625 247.171 248.681 247.439L249.317 250.501C249.468 251.227 250.527 251.227 250.678 250.501L251.314 247.439C251.37 247.171 251.583 246.962 251.856 246.908L254.984 246.285C255.726 246.137 255.726 245.101 254.984 244.953L251.856 244.33C251.583 244.276 251.37 244.067 251.314 243.8Z" fill="#202020"/>
</g>
<mask id="mask2_265_5459" style="mask-type:luminance" maskUnits="userSpaceOnUse" x="12" y="12" width="18" height="17">
<path d="M29.1667 12.2358H12.5V28.55H29.1667V12.2358Z" fill="white"/>
</mask>
<g mask="url(#mask2_265_5459)">
<path fill-rule="evenodd" clip-rule="evenodd" d="M20.8333 28.55C25.4357 28.55 29.1667 24.898 29.1667 20.3929C29.1667 15.8879 25.4357 12.2358 20.8333 12.2358C16.231 12.2358 12.5 15.8879 12.5 20.3929C12.5 24.898 16.231 28.55 20.8333 28.55ZM22.15 18.5734L21.5138 15.5113C21.3631 14.7856 20.3036 14.7856 20.1528 15.5113L19.5166 18.5734C19.4611 18.8408 19.2476 19.0497 18.9745 19.1041L15.8463 19.7268C15.1048 19.8744 15.1048 20.9115 15.8463 21.0591L18.9745 21.6818C19.2476 21.7362 19.4611 21.9451 19.5166 22.2125L20.1528 25.2746C20.3036 26.0003 21.3631 26.0003 21.5138 25.2746L22.15 22.2125C22.2056 21.9451 22.419 21.7362 22.6922 21.6818L25.8204 21.0591C26.5619 20.9115 26.5619 19.8744 25.8204 19.7268L22.6922 19.1041C22.419 19.0497 22.2056 18.8408 22.15 18.5734Z" fill="#202020"/>
</g>
<mask id="mask3_265_5459" style="mask-type:luminance" maskUnits="userSpaceOnUse" x="12" y="271" width="18" height="17">
<path d="M29.1667 271.45H12.5V287.764H29.1667V271.45Z" fill="white"/>
</mask>
<g mask="url(#mask3_265_5459)">
<path fill-rule="evenodd" clip-rule="evenodd" d="M20.8333 287.764C25.4357 287.764 29.1667 284.112 29.1667 279.607C29.1667 275.102 25.4357 271.45 20.8333 271.45C16.231 271.45 12.5 275.102 12.5 279.607C12.5 284.112 16.231 287.764 20.8333 287.764ZM22.15 277.788L21.5138 274.726C21.3631 274 20.3036 274 20.1528 274.726L19.5166 277.788C19.4611 278.055 19.2476 278.264 18.9745 278.318L15.8463 278.941C15.1048 279.089 15.1048 280.126 15.8463 280.273L18.9745 280.896C19.2476 280.95 19.4611 281.159 19.5166 281.427L20.1528 284.489C20.3036 285.215 21.3631 285.215 21.5138 284.489L22.15 281.427C22.2056 281.159 22.419 280.95 22.6922 280.896L25.8204 280.273C26.5619 280.126 26.5619 279.089 25.8204 278.941L22.6922 278.318C22.419 278.264 22.2056 278.055 22.15 277.788Z" fill="#202020"/>
</g>
<mask id="mask4_265_5459" style="mask-type:luminance" maskUnits="userSpaceOnUse" x="470" y="12" width="18" height="17">
<path d="M487.503 12.2354H470.836V28.5496H487.503V12.2354Z" fill="white"/>
</mask>
<g mask="url(#mask4_265_5459)">
<path fill-rule="evenodd" clip-rule="evenodd" d="M479.169 28.5496C483.771 28.5496 487.503 24.8975 487.503 20.3925C487.503 15.8874 483.771 12.2354 479.169 12.2354C474.567 12.2354 470.836 15.8874 470.836 20.3925C470.836 24.8975 474.567 28.5496 479.169 28.5496ZM480.484 18.5729L479.85 15.5108C479.697 14.7851 478.642 14.7851 478.489 15.5108L477.854 18.5729C477.799 18.8403 477.581 19.0492 477.308 19.1036L474.183 19.7263C473.442 19.8739 473.442 20.911 474.183 21.0586L477.308 21.6813C477.581 21.7357 477.799 21.9446 477.854 22.212L478.489 25.2741C478.642 25.9998 479.697 25.9998 479.85 25.2741L480.484 22.212C480.54 21.9446 480.757 21.7357 481.03 21.6813L484.155 21.0586C484.896 20.911 484.896 19.8739 484.155 19.7263L481.03 19.1036C480.757 19.0492 480.54 18.8403 480.484 18.5729Z" fill="#202020"/>
</g>
<mask id="mask5_265_5459" style="mask-type:luminance" maskUnits="userSpaceOnUse" x="470" y="271" width="18" height="17">
<path d="M487.503 271.45H470.836V287.764H487.503V271.45Z" fill="white"/>
</mask>
<g mask="url(#mask5_265_5459)">
<path fill-rule="evenodd" clip-rule="evenodd" d="M479.169 287.764C483.771 287.764 487.503 284.112 487.503 279.607C487.503 275.102 483.771 271.45 479.169 271.45C474.567 271.45 470.836 275.102 470.836 279.607C470.836 284.112 474.567 287.764 479.169 287.764ZM480.484 277.788L479.85 274.726C479.697 274 478.642 274 478.489 274.726L477.854 277.788C477.799 278.055 477.581 278.264 477.308 278.318L474.183 278.941C473.442 279.089 473.442 280.126 474.183 280.273L477.308 280.896C477.581 280.95 477.799 281.159 477.854 281.427L478.489 284.489C478.642 285.215 479.697 285.215 479.85 284.489L480.484 281.427C480.54 281.159 480.757 280.95 481.03 280.896L484.155 280.273C484.896 280.126 484.896 279.089 484.155 278.941L481.03 278.318C480.757 278.264 480.54 278.055 480.484 277.788Z" fill="#202020"/>
</g>
<mask id="mask6_265_5459" style="mask-type:alpha" maskUnits="userSpaceOnUse" x="27" y="24" width="447" height="196">
<path d="M55.2716 26.0576H445.655C449.389 26.0576 452.971 27.5053 455.617 30.0839L467.371 41.5362C470.033 44.13 471.528 47.6549 471.528 51.3315V203.928C471.528 211.561 465.204 217.749 457.408 217.749H43.5188C35.7203 217.749 29.3984 211.561 29.3984 203.928V51.3315C29.3984 47.6549 30.8949 44.13 33.5567 41.5362L45.3093 30.0839C47.9554 27.5053 51.5373 26.0576 55.2716 26.0576ZM356.019 95.393H143.982C121.098 95.393 102.547 113.552 102.547 135.952V136.858C102.547 159.258 121.098 177.417 143.982 177.417H356.019C378.903 177.417 397.454 159.258 397.454 136.858V135.952C397.454 113.552 378.903 95.393 356.019 95.393Z" fill="#EDA35F" stroke="#202020" stroke-width="3"/>
</mask>
<g mask="url(#mask6_265_5459)">
<mask id="mask7_265_5459" style="mask-type:luminance" maskUnits="userSpaceOnUse" x="28" y="25" width="445" height="194">
<path d="M472.222 25.3779H28.7031V218.429H472.222V25.3779Z" fill="white"/>
</mask>
<g mask="url(#mask7_265_5459)">
<path d="M472.222 25.3779H28.7031V218.429H472.222V25.3779Z" fill="#FFF3DC"/>
</g>
</g>
<path d="M445.654 25.3779H55.2707C51.3531 25.3779 47.5948 26.8968 44.8185 29.6022L33.0659 41.0545C30.2732 43.7759 28.7031 47.4742 28.7031 51.3316V203.928C28.7031 211.937 35.3359 218.429 43.5179 218.429H457.407C465.587 218.429 472.222 211.937 472.222 203.928V51.3316C472.222 47.4742 470.652 43.7759 467.861 41.0545L456.106 29.6022C453.33 26.8968 449.572 25.3779 445.654 25.3779Z" stroke="#202020" stroke-width="3"/>
<mask id="mask8_265_5459" style="mask-type:luminance" maskUnits="userSpaceOnUse" x="103" y="96" width="294" height="81">
<path d="M356.02 96.0723H143.983C121.482 96.0723 103.242 113.927 103.242 135.951V136.858C103.242 158.882 121.482 176.737 143.983 176.737H356.02C378.52 176.737 396.761 158.882 396.761 136.858V135.951C396.761 113.927 378.52 96.0723 356.02 96.0723Z" fill="white"/>
</mask>
<g mask="url(#mask8_265_5459)">
<path d="M143.984 96.752H356.021C378.138 96.752 396.067 114.302 396.067 135.951V136.858C396.067 158.507 378.138 176.057 356.021 176.057H143.984C121.867 176.057 103.938 158.507 103.938 136.858V135.951C103.938 114.302 121.867 96.752 143.984 96.752Z" stroke="#202020" stroke-width="3"/>
</g>
</g>
<defs>
<clipPath id="clip0_265_5459">
<rect width="500" height="300" fill="white"/>
</clipPath>
</defs>
</svg>
