<svg width="371" height="272" viewBox="0 0 371 272" fill="none" xmlns="http://www.w3.org/2000/svg">
<path d="M358.213 146.002L356.514 145.195C356.283 145.086 356.007 145.158 355.86 145.367L355.067 146.499C355.037 146.542 355.014 146.59 354.998 146.639C354.782 147.308 354.32 147.868 353.707 148.206L353.501 148.319L354.347 145.614C354.422 145.373 354.288 145.117 354.049 145.04C353.809 144.962 353.554 145.095 353.479 145.335L352.349 148.953L350.789 149.812L351.883 146.309C351.977 146.006 351.81 145.683 351.508 145.586C351.207 145.49 350.886 145.656 350.792 145.958L349.339 150.61L347.12 151.831L348.813 146.411C348.908 146.109 348.739 145.786 348.439 145.689C348.137 145.592 347.816 145.758 347.722 146.06L345.313 152.825L342.647 154.292C341.108 155.139 339.232 155.095 337.723 154.173L336.538 153.452C335.033 152.533 334.122 150.882 334.148 149.119L334.193 146.099L339.177 140.876C339.404 140.657 339.409 140.293 339.189 140.064C338.969 139.835 338.607 139.827 338.381 140.046L334.222 144.071L334.262 141.445L337.73 138.087C337.956 137.868 337.962 137.505 337.742 137.275C337.522 137.046 337.16 137.038 336.934 137.258L334.285 139.821L334.313 137.901L336.903 135.395C337.083 135.22 337.087 134.931 336.912 134.749C336.737 134.567 336.45 134.561 336.27 134.735L334.333 136.61L334.338 136.251C334.347 135.622 334.692 135.093 335.116 134.632C335.148 134.597 335.176 134.557 335.198 134.514L335.821 133.279C335.937 133.051 335.873 132.771 335.668 132.616L334.168 131.476C333.985 131.337 333.735 131.331 333.549 131.462L332.016 132.535C331.807 132.681 331.734 132.958 331.842 133.192L332.43 134.453C332.461 134.499 332.491 134.544 332.521 134.59C332.99 135.114 333.244 135.796 333.234 136.499L333.23 136.734L331.311 134.634C331.141 134.447 330.853 134.434 330.669 134.604C330.484 134.774 330.473 135.063 330.643 135.249L333.211 138.058L333.184 139.851L330.698 137.131C330.484 136.896 330.122 136.88 329.891 137.092C329.658 137.306 329.644 137.669 329.859 137.904L333.16 141.515L333.122 144.065L329.276 139.856C329.062 139.621 328.7 139.605 328.469 139.818C328.237 140.031 328.222 140.395 328.436 140.629L333.092 146.139L333.047 149.149C333.021 150.921 332.054 152.535 330.513 153.384L329.373 154.011C327.831 154.859 325.95 154.812 324.44 153.887L321.8 152.269L319.788 145.281C319.711 144.972 319.402 144.782 319.095 144.856C318.789 144.93 318.602 145.24 318.678 145.549L320.071 151.209L317.831 149.836L316.669 145.115C316.593 144.806 316.284 144.616 315.977 144.69C315.67 144.765 315.484 145.074 315.559 145.382L316.447 148.988L314.809 147.984L313.942 144.46C313.881 144.215 313.635 144.064 313.391 144.122C313.148 144.182 312.999 144.427 313.06 144.673L313.708 147.309L313.407 147.125C312.869 146.795 312.583 146.226 312.397 145.622C312.383 145.576 312.362 145.532 312.336 145.491L311.584 144.319C311.445 144.103 311.173 144.017 310.938 144.115L309.211 144.835C309.001 144.923 308.871 145.137 308.891 145.366L309.051 147.243C309.073 147.499 309.275 147.703 309.529 147.728L310.906 147.862C310.961 147.858 311.015 147.855 311.069 147.852C311.754 147.713 312.467 147.84 313.066 148.207L313.266 148.33L310.505 148.924C310.26 148.978 310.106 149.22 310.16 149.467C310.214 149.713 310.457 149.87 310.702 149.818L314.396 149.022L315.924 149.959L312.348 150.729C312.04 150.796 311.845 151.101 311.913 151.411C311.982 151.721 312.287 151.918 312.595 151.852L317.344 150.829L319.518 152.161L313.984 153.353C313.676 153.419 313.482 153.725 313.55 154.035C313.618 154.345 313.924 154.542 314.231 154.476L321.286 153.245L323.959 154.883C325.463 155.804 326.37 157.457 326.34 159.22L326.32 160.449C326.29 162.216 325.324 163.826 323.785 164.673L321.119 166.14L314.114 164.555C313.809 164.474 313.497 164.656 313.418 164.962C313.338 165.268 313.522 165.583 313.827 165.665L319.312 167.135L317.094 168.356L312.386 167.094C312.08 167.012 311.768 167.195 311.688 167.501C311.61 167.807 311.792 168.122 312.098 168.205L315.643 169.154L314.083 170.012L310.422 169.032C310.179 168.967 309.93 169.111 309.868 169.355C309.804 169.598 309.95 169.848 310.193 169.914L312.93 170.647L312.506 170.881C311.951 171.186 311.315 171.15 310.696 171.009C310.65 170.998 310.603 170.994 310.555 170.997L309.175 171.06C308.92 171.072 308.711 171.267 308.68 171.521L308.452 173.388C308.425 173.616 308.546 173.836 308.753 173.934L310.452 174.741C310.684 174.851 310.96 174.779 311.106 174.57L311.898 173.437C311.923 173.387 311.947 173.34 311.97 173.29C312.187 172.624 312.648 172.067 313.259 171.731L313.335 171.689L312.593 174.29C312.524 174.532 312.663 174.786 312.904 174.857C313.146 174.928 313.397 174.789 313.466 174.548L314.459 171.07L316.131 170.15L315.116 173.707C315.029 174.011 315.204 174.33 315.508 174.42C315.811 174.51 316.128 174.336 316.214 174.032L317.545 169.372L319.831 168.114L318.237 173.699C318.151 174.003 318.326 174.322 318.629 174.412C318.932 174.501 319.249 174.327 319.336 174.023L321.597 167.142L324.322 165.643C325.86 164.796 327.737 164.841 329.245 165.762L330.339 166.428C331.844 167.346 332.754 168.997 332.728 170.76L332.681 173.929L327.867 179.23C327.646 179.454 327.65 179.818 327.875 180.042C328.1 180.265 328.462 180.265 328.683 180.04L332.651 176.003L332.613 178.551L329.208 182.017C328.987 182.241 328.99 182.605 329.216 182.829C329.441 183.051 329.803 183.051 330.024 182.826L332.589 180.217L332.562 182.009L329.913 184.704C329.738 184.883 329.741 185.172 329.92 185.35C330.099 185.527 330.387 185.527 330.563 185.348L332.543 183.333L332.535 183.828C332.526 184.462 332.182 184.996 331.757 185.461C331.725 185.496 331.697 185.535 331.676 185.578L331.051 186.813C330.935 187.041 331.001 187.321 331.205 187.476L332.706 188.616C332.888 188.755 333.138 188.76 333.325 188.629L334.857 187.557C335.066 187.411 335.139 187.134 335.031 186.901L334.443 185.64C334.413 185.593 334.383 185.548 334.352 185.503C333.883 184.977 333.629 184.296 333.64 183.594L333.641 183.506L335.521 185.465C335.696 185.647 335.984 185.654 336.164 185.479C336.344 185.305 336.348 185.016 336.174 184.834L333.66 182.215L333.688 180.295L336.259 182.974C336.479 183.203 336.841 183.211 337.067 182.991C337.294 182.772 337.299 182.409 337.079 182.18L333.712 178.672L333.751 176.045L337.788 180.251C338.008 180.479 338.37 180.488 338.596 180.268C338.822 180.049 338.828 179.686 338.607 179.456L333.781 174.016L333.828 170.833C333.854 169.062 334.821 167.447 336.362 166.599L337.407 166.024C338.949 165.175 340.83 165.222 342.34 166.148L344.982 167.767L347.147 174.648C347.23 174.955 347.544 175.137 347.849 175.056C348.153 174.974 348.332 174.659 348.248 174.353L346.751 168.852L348.924 170.184L350.21 174.905C350.294 175.211 350.608 175.394 350.912 175.312C351.217 175.23 351.396 174.916 351.313 174.61L350.345 171.054L351.873 171.991L352.873 175.663C352.939 175.906 353.19 176.051 353.431 175.987C353.673 175.921 353.816 175.672 353.75 175.428L353.002 172.682L353.429 172.944C353.967 173.274 354.254 173.843 354.44 174.448C354.454 174.495 354.475 174.539 354.501 174.58L355.253 175.75C355.392 175.967 355.664 176.053 355.9 175.955L357.626 175.234C357.837 175.147 357.966 174.932 357.946 174.704L357.786 172.827C357.763 172.571 357.562 172.367 357.308 172.342L355.931 172.209C355.879 172.203 355.826 172.206 355.774 172.217C355.089 172.357 354.372 172.232 353.772 171.864L353.697 171.818L356.318 171.184C356.561 171.126 356.709 170.879 356.649 170.634C356.589 170.389 356.343 170.238 356.098 170.296L352.596 171.143L350.959 170.139L354.542 169.274C354.848 169.2 355.035 168.89 354.959 168.581C354.883 168.273 354.574 168.083 354.267 168.157L349.574 169.291L347.335 167.918L352.96 166.559C353.266 166.485 353.453 166.175 353.377 165.867C353.301 165.558 352.992 165.368 352.686 165.442L345.605 166.859L343.002 165.263C341.498 164.341 340.591 162.689 340.62 160.926L340.645 159.488C340.674 157.721 341.64 156.111 343.179 155.264L345.903 153.765L352.926 155.537C353.229 155.626 353.546 155.451 353.633 155.147C353.72 154.844 353.544 154.525 353.241 154.435L347.669 152.793L349.956 151.535L354.604 152.904C354.907 152.994 355.224 152.819 355.31 152.515C355.397 152.21 355.221 151.891 354.918 151.802L351.369 150.757L353.041 149.837L356.51 150.859C356.751 150.93 357.003 150.791 357.072 150.549C357.141 150.308 357.001 150.054 356.76 149.983L354.165 149.218L354.241 149.177C354.855 148.839 355.574 148.748 356.256 148.924C356.306 148.937 356.359 148.942 356.411 148.94L357.792 148.877C358.047 148.865 358.256 148.67 358.286 148.416L358.514 146.548C358.542 146.321 358.421 146.101 358.213 146.002Z" fill="#97A1D6" fill-opacity="0.5"/>
<path d="M290.236 149.999L279.758 131.217C278.332 128.658 275.27 127.488 272.497 128.45L257.491 133.64C256.898 133.845 256.347 134.15 255.836 134.52C249.344 139.234 241.301 141.32 233.33 140.361L228.331 139.757L251.664 121.472C253.62 119.939 254.381 117.183 253.181 115.012C251.651 112.243 248.096 111.6 245.715 113.468L214.32 138.07L195.839 135.843C189.499 135.08 184.05 130.996 181.541 125.131L179.457 120.258C176.818 114.082 177.872 106.952 182.182 101.8L194.141 87.5108L233.625 83.9845C236.097 83.7613 238.239 81.8666 238.414 79.3952C238.643 76.2383 236.015 73.7669 232.995 74.0353L203.19 76.6953L205.367 74.0991C210.81 67.5885 218.287 62.5156 226.742 61.7051C227.397 61.6413 228.035 61.4739 228.634 61.2055L243.126 54.7215C245.806 53.5257 247.237 50.5813 246.519 47.7406L241.275 26.8856C240.633 24.3478 238.43 22.5089 235.818 22.3335L214.341 20.8746C211.414 20.6726 208.764 22.6045 208.059 25.4479L204.244 40.8421C204.092 41.4533 204.044 42.0831 204.079 42.7102C204.499 50.7169 201.873 58.5907 196.725 64.7425L193.101 69.0687L191.188 39.5001C191.031 37.0234 189.187 34.8364 186.713 34.5972C183.56 34.2916 181.019 36.856 181.213 39.8774L183.821 80.1605L173.753 92.1878C169.874 96.8249 163.909 99.1847 157.901 98.4592L146.229 97.0535C139.779 96.2775 134.261 92.0656 131.813 86.0572L125.353 70.1927L140.761 33.7123C141.727 31.427 141.056 28.6501 138.954 27.332C136.27 25.6525 132.848 26.8085 131.67 29.5987L120.037 57.1371L118.755 53.9801C115.559 46.1276 114.58 37.1643 117.832 29.333C118.084 28.7245 118.236 28.0814 118.281 27.4277L119.348 11.603C119.548 8.67728 117.613 6.03583 114.767 5.33163L93.8646 0.1763C91.321 -0.450836 88.663 0.630737 87.2795 2.85229L75.9133 21.1111C74.3621 23.5984 74.8251 26.8404 77.0095 28.7962L88.8333 39.3858C89.3016 39.8057 89.8364 40.1405 90.4058 40.4062C97.6826 43.7917 103.408 49.8027 106.436 57.2327L108.562 62.4571L81.5219 50.2704C79.255 49.2473 76.456 49.8479 75.0858 51.918C73.3351 54.5541 74.41 57.9981 77.1744 59.2444L114.014 75.8476L119.537 89.4108C121.897 95.2172 121.04 101.837 117.276 106.849L110.017 116.511C106.183 121.61 99.9202 124.284 93.5799 123.521L78.1961 121.666L53.7209 90.519C52.1884 88.5658 49.4319 87.8058 47.2582 89.0043C44.4858 90.5323 43.8393 94.0825 45.7124 96.4635L64.1825 119.976L58.0391 119.237C50.3232 118.307 43.7142 113.984 38.5605 108.175C38.196 107.763 37.7757 107.407 37.3154 107.106L23.9776 98.4991C21.5138 96.9073 18.2599 97.3165 16.2644 99.4637L1.61493 115.219C-0.165036 117.138 -0.510918 119.981 0.763528 122.267L11.2411 141.052C12.6699 143.613 15.7296 144.777 18.502 143.821L33.508 138.628C34.1013 138.423 34.6547 138.118 35.1629 137.751C41.6575 133.034 49.698 130.946 57.6719 131.905L63.2752 132.583L39.4918 150.291C37.499 151.777 36.6662 154.508 37.8129 156.711C39.2736 159.52 42.8123 160.248 45.2414 158.441L77.6453 134.315L92.3161 136.082C98.6564 136.848 104.105 140.929 106.612 146.794L109.56 153.69C112.199 159.866 111.145 166.995 106.835 172.148L97.1319 183.742L57.2356 188.3C54.7692 188.584 52.6752 190.529 52.5582 193.006C52.4065 196.165 55.0938 198.576 58.1083 198.23L87.8489 194.834L85.284 197.901C79.835 204.411 72.3613 209.482 63.9058 210.292C63.2513 210.358 62.6127 210.526 62.0141 210.794L47.5216 217.276C44.845 218.474 43.4109 221.418 44.1266 224.259L49.376 245.112C50.0146 247.649 52.215 249.488 54.8277 249.666L76.307 251.128C79.2337 251.324 81.8811 249.395 82.5888 246.552L86.4042 231.155C86.5478 230.573 86.6064 229.973 86.5718 229.372L86.8299 227.243C87.7238 219.848 92.3693 209.115 97.1558 203.399L99.7952 232.904C100.019 235.378 101.916 237.517 104.393 237.695C107.551 237.921 110.028 235.295 109.757 232.279L106.205 192.583L117.055 179.618C120.937 174.981 126.902 172.621 132.909 173.344L144.329 174.72C150.778 175.499 156.296 179.708 158.744 185.717L164.928 200.906L150.238 238.234C149.328 240.541 150.068 243.299 152.202 244.567C154.926 246.18 158.319 244.944 159.428 242.122L170.379 214.297L171.89 218.006C175.089 225.864 176.062 234.833 172.814 242.667C172.561 243.275 172.412 243.918 172.367 244.572L171.3 260.397C171.103 263.323 173.035 265.967 175.884 266.665L196.783 271.823C199.327 272.451 201.985 271.372 203.368 269.147L214.735 250.889C216.283 248.399 215.82 245.159 213.636 243.201L201.817 232.614C201.349 232.197 200.814 231.859 200.245 231.593C192.965 228.208 187.237 222.197 184.212 214.767L182.315 210.109L209.645 221.623C211.933 222.585 214.716 221.915 216.036 219.813C217.717 217.137 216.56 213.72 213.766 212.543L176.999 197.05L170.023 179.916C167.663 174.109 168.519 167.492 172.284 162.478L177.637 155.354C181.469 150.254 187.735 147.581 194.072 148.346L211.84 150.488L237.403 181.417C238.984 183.33 241.756 184.024 243.901 182.772C246.633 181.175 247.195 177.614 245.266 175.276L226.213 152.218L232.923 153.028C240.652 153.956 247.277 158.282 252.444 164.099C252.808 164.506 253.224 164.864 253.687 165.162L267.022 173.766C269.485 175.358 272.739 174.954 274.737 172.804L289.384 157.049C291.167 155.133 291.51 152.284 290.236 149.999Z" fill="#EAE8F5" fill-opacity="0.5"/>
<path d="M290.722 95.0533L287.695 90.9019C287.282 90.3374 286.52 90.1481 285.889 90.454L282.472 92.1122C282.343 92.1747 282.222 92.2575 282.119 92.3539C280.708 93.6655 278.852 94.3941 276.922 94.3941H276.277L281.91 89.0578C282.411 88.5829 282.428 87.7952 281.952 87.2982C281.477 86.7996 280.686 86.781 280.186 87.256L272.653 94.3941H267.748L275.041 87.4825C275.671 86.8841 275.695 85.8953 275.095 85.2682C274.496 84.6428 273.502 84.6175 272.874 85.2141L263.189 94.3941H256.213L267.496 83.6979C268.126 83.103 268.15 82.1124 267.552 81.487C266.953 80.8616 265.959 80.8363 265.331 81.4313L250.534 94.3941H242.151C237.313 94.3941 232.844 91.8265 230.427 87.6532L228.526 84.3791C226.114 80.216 226.109 75.0876 228.513 70.9211L232.63 63.783L251.594 57.8721C252.433 57.6473 252.928 56.7869 252.703 55.9536C252.477 55.1186 251.613 54.6267 250.776 54.8515L235.395 58.9894L238.978 52.7809L251.807 49.3294C252.643 49.1029 253.139 48.2459 252.915 47.4092C252.687 46.5759 251.825 46.0823 250.988 46.3088L241.192 48.944L243.809 44.4056L253.387 41.8296C254.054 41.6487 254.448 40.9659 254.266 40.3016C254.086 39.639 253.402 39.2468 252.735 39.426L245.571 41.3529L246.059 40.5061C246.918 39.0186 248.451 38.2107 250.087 37.6681C250.213 37.6259 250.332 37.5667 250.442 37.4923L253.587 35.3676C254.169 34.9772 254.385 34.225 254.096 33.5878L251.992 28.9023C251.734 28.3327 251.139 27.9912 250.517 28.0589L245.392 28.6048C244.693 28.6792 244.15 29.2437 244.101 29.9418L243.844 33.7179C243.858 33.8684 243.87 34.0154 243.882 34.1642C244.316 36.0285 244.024 37.9859 243.067 39.6474L242.745 40.2035L240.903 32.6835C240.74 32.0141 240.063 31.6051 239.394 31.769C238.722 31.9313 238.311 32.604 238.476 33.2717L240.94 43.3323L238.495 47.5698L236.108 37.8287C235.903 36.9869 235.052 36.4748 234.211 36.6776C233.367 36.8821 232.849 37.729 233.056 38.569L236.225 51.5048L232.749 57.5306L229.057 42.4567C228.852 41.6166 228.002 41.1028 227.16 41.3073C226.316 41.5118 225.799 42.3587 226.004 43.1987L229.921 62.4325L225.816 69.5486C223.4 73.7354 218.923 76.3148 214.077 76.3148H210.492C205.646 76.3148 201.169 73.7354 198.754 69.5486L194.532 62.233L198.957 42.9401C199.183 42.1051 198.687 41.2464 197.849 41.02C197.012 40.7951 196.15 41.2887 195.923 42.1237L191.768 57.4377L188.186 51.231L191.652 38.4558C191.88 37.6191 191.384 36.7621 190.545 36.5356C189.707 36.3108 188.846 36.8044 188.619 37.6377L185.971 47.394L183.352 42.8539L185.941 33.319C186.121 32.6547 185.727 31.9719 185.06 31.791C184.394 31.6135 183.709 32.004 183.529 32.6699L181.592 39.8013L181.11 38.9662C180.25 37.4754 180.316 35.7446 180.669 34.061C180.698 33.9326 180.706 33.8007 180.698 33.6689L180.438 29.8911C180.39 29.193 179.847 28.6302 179.15 28.5558L174.026 28.0081C173.403 27.9422 172.805 28.282 172.549 28.8533L170.444 33.5354C170.157 34.1743 170.371 34.9265 170.953 35.3186L174.099 37.4433C174.234 37.5058 174.368 37.5701 174.504 37.6326C176.341 38.2005 177.892 39.4378 178.851 41.0977L179.172 41.6538L171.719 39.4497C171.057 39.2553 170.363 39.6305 170.166 40.2897C169.969 40.9473 170.346 41.6403 171.008 41.8364L180.978 44.7842L183.422 49.0218L173.769 46.1669C172.936 45.9218 172.062 46.3934 171.814 47.2216C171.568 48.0498 172.041 48.9203 172.873 49.1671L185.693 52.9567L189.169 58.9809L174.233 54.5659C173.401 54.3191 172.527 54.7924 172.281 55.6206C172.033 56.4489 172.508 57.3194 173.338 57.5644L191.997 63.8844L196.272 71.2929C198.677 75.4612 198.671 80.5878 196.257 84.7493L194.575 87.6532C192.156 91.8248 187.687 94.3941 182.85 94.3941H174.467L159.67 81.4313C159.042 80.8363 158.047 80.8616 157.448 81.487C156.85 82.1124 156.874 83.103 157.504 83.6979L168.788 94.3941H161.812L152.127 85.2141C151.497 84.6175 150.503 84.6428 149.903 85.2682C149.308 85.8953 149.33 86.8841 149.958 87.4825L157.253 94.3941H152.348L144.813 87.256C144.314 86.781 143.521 86.7996 143.048 87.2982C142.573 87.7952 142.591 88.5829 143.092 89.0578L148.722 94.3941H147.388C145.645 94.3941 144.156 93.4729 142.849 92.3268C142.753 92.2406 142.646 92.1696 142.527 92.1122L139.112 90.454C138.48 90.1481 137.718 90.3374 137.306 90.9019L134.276 95.0533C133.908 95.5603 133.908 96.2432 134.276 96.7486L137.306 100.9C137.718 101.466 138.48 101.656 139.112 101.35L142.527 99.6897C142.652 99.6035 142.773 99.5207 142.895 99.4345C144.304 98.1313 146.154 97.4078 148.077 97.4078H148.316L143.07 102.633C142.581 103.119 142.581 103.907 143.068 104.392C143.557 104.877 144.348 104.877 144.835 104.392L151.85 97.4078H157.105L149.932 104.553C149.318 105.163 149.318 106.153 149.932 106.767C150.545 107.377 151.54 107.377 152.152 106.767L161.55 97.4078H168.74L157.475 108.626C156.862 109.238 156.862 110.229 157.475 110.839C158.088 111.449 159.082 111.449 159.697 110.839L174.29 97.4078H182.857C187.694 97.4078 192.163 99.9771 194.58 104.149L196.333 107.171C198.747 111.332 198.75 116.459 196.345 120.627L192.026 128.117L173.367 134.435C172.535 134.68 172.062 135.552 172.308 136.381C172.556 137.209 173.43 137.682 174.261 137.435L189.198 133.02L185.722 139.043L172.902 142.834C172.07 143.079 171.595 143.952 171.843 144.78C172.091 145.606 172.965 146.08 173.796 145.834L183.451 142.98L181.005 147.215L171.037 150.163C170.375 150.361 169.998 151.052 170.193 151.712C170.39 152.369 171.086 152.746 171.748 152.55L179.201 150.346L178.525 151.514C177.663 153.013 176.123 153.835 174.48 154.386C174.355 154.426 174.236 154.484 174.127 154.558L170.981 156.683C170.398 157.073 170.185 157.827 170.471 158.464L172.579 163.148C172.834 163.718 173.432 164.059 174.054 163.992L179.177 163.446C179.874 163.371 180.419 162.808 180.467 162.11L180.725 158.334C180.713 158.184 180.699 158.037 180.686 157.888C180.253 156.022 180.545 154.064 181.502 152.405L181.621 152.198L183.556 159.331C183.738 159.996 184.423 160.388 185.09 160.209C185.756 160.029 186.149 159.347 185.97 158.684L183.383 149.146L186 144.607L188.646 154.364C188.874 155.197 189.736 155.691 190.574 155.464C191.411 155.239 191.907 154.381 191.679 153.546L188.213 140.77L191.796 134.562L195.951 149.879C196.179 150.713 197.041 151.206 197.88 150.98C198.716 150.755 199.212 149.896 198.985 149.061L194.563 129.768L198.903 122.243C201.318 118.056 205.796 115.477 210.642 115.477H213.926C218.773 115.477 223.251 118.056 225.665 122.243L229.891 129.567L225.977 148.803C225.77 149.643 226.286 150.49 227.129 150.694C227.971 150.897 228.822 150.383 229.027 149.543L232.72 134.471L236.195 140.495L233.027 153.432C232.822 154.271 233.338 155.118 234.18 155.322C235.025 155.527 235.874 155.014 236.081 154.174L238.466 144.432L240.91 148.667L238.445 158.73C238.282 159.396 238.695 160.07 239.364 160.234C240.034 160.395 240.71 159.987 240.874 159.32L242.716 151.796L243.398 152.979C244.259 154.472 244.194 156.204 243.841 157.891C243.814 158.02 243.805 158.152 243.814 158.283L244.074 162.06C244.121 162.758 244.664 163.32 245.362 163.397L250.486 163.942C251.109 164.01 251.706 163.669 251.961 163.099L254.067 158.414C254.354 157.775 254.139 157.024 253.558 156.632L250.413 154.509C250.294 154.428 250.164 154.365 250.024 154.323C248.183 153.759 246.621 152.52 245.661 150.855L245.542 150.648L252.706 152.575C253.371 152.755 254.055 152.361 254.237 151.7C254.417 151.035 254.023 150.353 253.356 150.172L243.782 147.596L241.163 143.057L250.958 145.692C251.795 145.919 252.659 145.425 252.884 144.59C253.112 143.755 252.616 142.898 251.778 142.672L238.948 139.22L235.368 133.012L250.746 137.15C251.584 137.375 252.446 136.881 252.672 136.048C252.9 135.213 252.404 134.354 251.567 134.129L232.601 128.218L228.438 121.001C226.033 116.833 226.04 111.706 228.452 107.543L230.42 104.149C232.837 99.9771 237.306 97.4078 242.144 97.4078H250.708L265.302 110.839C265.916 111.449 266.911 111.449 267.525 110.839C268.138 110.229 268.138 109.238 267.525 108.626L256.26 97.4078H263.45L272.846 106.767C273.459 107.377 274.455 107.377 275.068 106.767C275.683 106.153 275.683 105.163 275.068 104.553L267.894 97.4078H273.149L280.164 104.392C280.651 104.877 281.443 104.877 281.93 104.392C282.418 103.907 282.418 103.119 281.93 102.633L276.684 97.4078H276.922C278.852 97.4078 280.708 98.1363 282.119 99.448C282.222 99.546 282.343 99.6272 282.472 99.6897L285.889 101.35C286.52 101.656 287.282 101.466 287.695 100.9L290.722 96.7486C291.093 96.2432 291.093 95.5603 290.722 95.0533Z" fill="#50659C" fill-opacity="0.5"/>
</svg>
